<svg xmlns="http://www.w3.org/2000/svg" width="96" height="57" viewBox="0 0 96 57">
    <g fill="none" fill-rule="evenodd">
        <g fill="#29D392" fill-opacity=".16" transform="translate(0 10)">
            <circle cx="1" cy="13" r="1"/>
            <circle cx="4" cy="13" r="1"/>
            <circle cx="7" cy="13" r="1"/>
            <circle cx="10" cy="13" r="1"/>
            <circle cx="13" cy="13" r="1"/>
            <circle cx="16" cy="13" r="1"/>
            <circle cx="19" cy="13" r="1"/>
            <circle cx="22" cy="13" r="1"/>
            <circle cx="25" cy="13" r="1"/>
            <circle cx="28" cy="13" r="1"/>
            <circle cx="31" cy="13" r="1"/>
            <circle cx="34" cy="13" r="1"/>
            <circle cx="37" cy="13" r="1"/>
            <circle cx="40" cy="13" r="1"/>
            <circle cx="43" cy="13" r="1"/>
            <circle cx="46" cy="13" r="1"/>
            <circle cx="2" cy="16" r="1"/>
            <circle cx="5" cy="16" r="1"/>
            <circle cx="8" cy="16" r="1"/>
            <circle cx="11" cy="16" r="1"/>
            <circle cx="14" cy="16" r="1"/>
            <circle cx="17" cy="16" r="1"/>
            <circle cx="20" cy="16" r="1"/>
            <circle cx="23" cy="16" r="1"/>
            <circle cx="26" cy="16" r="1"/>
            <circle cx="29" cy="16" r="1"/>
            <circle cx="32" cy="16" r="1"/>
            <circle cx="35" cy="16" r="1"/>
            <circle cx="38" cy="16" r="1"/>
            <circle cx="41" cy="16" r="1"/>
            <circle cx="44" cy="16" r="1"/>
            <circle cx="47" cy="16" r="1"/>
            <circle cx="1" cy="7" r="1"/>
            <circle cx="4" cy="7" r="1"/>
            <circle cx="7" cy="7" r="1"/>
            <circle cx="10" cy="7" r="1"/>
            <circle cx="13" cy="7" r="1"/>
            <circle cx="16" cy="7" r="1"/>
            <circle cx="19" cy="7" r="1"/>
            <circle cx="22" cy="7" r="1"/>
            <circle cx="25" cy="7" r="1"/>
            <circle cx="28" cy="7" r="1"/>
            <circle cx="31" cy="7" r="1"/>
            <circle cx="34" cy="7" r="1"/>
            <circle cx="37" cy="7" r="1"/>
            <circle cx="40" cy="7" r="1"/>
            <circle cx="43" cy="7" r="1"/>
            <circle cx="46" cy="7" r="1"/>
            <circle cx="2" cy="10" r="1"/>
            <circle cx="5" cy="10" r="1"/>
            <circle cx="8" cy="10" r="1"/>
            <circle cx="11" cy="10" r="1"/>
            <circle cx="14" cy="10" r="1"/>
            <circle cx="17" cy="10" r="1"/>
            <circle cx="20" cy="10" r="1"/>
            <circle cx="23" cy="10" r="1"/>
            <circle cx="26" cy="10" r="1"/>
            <circle cx="29" cy="10" r="1"/>
            <circle cx="32" cy="10" r="1"/>
            <circle cx="35" cy="10" r="1"/>
            <circle cx="38" cy="10" r="1"/>
            <circle cx="41" cy="10" r="1"/>
            <circle cx="44" cy="10" r="1"/>
            <circle cx="47" cy="10" r="1"/>
            <circle cx="1" cy="1" r="1"/>
            <circle cx="4" cy="1" r="1"/>
            <circle cx="7" cy="1" r="1"/>
            <circle cx="10" cy="1" r="1"/>
            <circle cx="13" cy="1" r="1"/>
            <circle cx="16" cy="1" r="1"/>
            <circle cx="19" cy="1" r="1"/>
            <circle cx="22" cy="1" r="1"/>
            <circle cx="25" cy="1" r="1"/>
            <circle cx="28" cy="1" r="1"/>
            <circle cx="31" cy="1" r="1"/>
            <circle cx="34" cy="1" r="1"/>
            <circle cx="37" cy="1" r="1"/>
            <circle cx="40" cy="1" r="1"/>
            <circle cx="43" cy="1" r="1"/>
            <circle cx="46" cy="1" r="1"/>
            <circle cx="2" cy="4" r="1"/>
            <circle cx="5" cy="4" r="1"/>
            <circle cx="8" cy="4" r="1"/>
            <circle cx="11" cy="4" r="1"/>
            <circle cx="14" cy="4" r="1"/>
            <circle cx="17" cy="4" r="1"/>
            <circle cx="20" cy="4" r="1"/>
            <circle cx="23" cy="4" r="1"/>
            <circle cx="26" cy="4" r="1"/>
            <circle cx="29" cy="4" r="1"/>
            <circle cx="32" cy="4" r="1"/>
            <circle cx="35" cy="4" r="1"/>
            <circle cx="38" cy="4" r="1"/>
            <circle cx="41" cy="4" r="1"/>
            <circle cx="44" cy="4" r="1"/>
            <circle cx="47" cy="4" r="1"/>
            <circle cx="1" cy="19" r="1"/>
            <circle cx="4" cy="19" r="1"/>
            <circle cx="7" cy="19" r="1"/>
            <circle cx="10" cy="19" r="1"/>
            <circle cx="13" cy="19" r="1"/>
            <circle cx="16" cy="19" r="1"/>
            <circle cx="19" cy="19" r="1"/>
            <circle cx="22" cy="19" r="1"/>
            <circle cx="25" cy="19" r="1"/>
            <circle cx="28" cy="19" r="1"/>
            <circle cx="31" cy="19" r="1"/>
            <circle cx="34" cy="19" r="1"/>
            <circle cx="37" cy="19" r="1"/>
            <circle cx="40" cy="19" r="1"/>
            <circle cx="43" cy="19" r="1"/>
            <circle cx="46" cy="19" r="1"/>
            <circle cx="2" cy="22" r="1"/>
            <circle cx="5" cy="22" r="1"/>
            <circle cx="8" cy="22" r="1"/>
            <circle cx="11" cy="22" r="1"/>
            <circle cx="14" cy="22" r="1"/>
            <circle cx="17" cy="22" r="1"/>
            <circle cx="20" cy="22" r="1"/>
            <circle cx="23" cy="22" r="1"/>
            <circle cx="26" cy="22" r="1"/>
            <circle cx="29" cy="22" r="1"/>
            <circle cx="32" cy="22" r="1"/>
            <circle cx="35" cy="22" r="1"/>
            <circle cx="38" cy="22" r="1"/>
            <circle cx="41" cy="22" r="1"/>
            <circle cx="44" cy="22" r="1"/>
            <circle cx="47" cy="22" r="1"/>
            <circle cx="1" cy="25" r="1"/>
            <circle cx="4" cy="25" r="1"/>
            <circle cx="7" cy="25" r="1"/>
            <circle cx="10" cy="25" r="1"/>
            <circle cx="13" cy="25" r="1"/>
            <circle cx="16" cy="25" r="1"/>
            <circle cx="19" cy="25" r="1"/>
            <circle cx="22" cy="25" r="1"/>
            <circle cx="25" cy="25" r="1"/>
            <circle cx="28" cy="25" r="1"/>
            <circle cx="31" cy="25" r="1"/>
            <circle cx="34" cy="25" r="1"/>
            <circle cx="37" cy="25" r="1"/>
            <circle cx="40" cy="25" r="1"/>
            <circle cx="43" cy="25" r="1"/>
            <circle cx="46" cy="25" r="1"/>
            <circle cx="2" cy="28" r="1"/>
            <circle cx="5" cy="28" r="1"/>
            <circle cx="8" cy="28" r="1"/>
            <circle cx="11" cy="28" r="1"/>
            <circle cx="14" cy="28" r="1"/>
            <circle cx="17" cy="28" r="1"/>
            <circle cx="20" cy="28" r="1"/>
            <circle cx="23" cy="28" r="1"/>
            <circle cx="26" cy="28" r="1"/>
            <circle cx="29" cy="28" r="1"/>
            <circle cx="32" cy="28" r="1"/>
            <circle cx="35" cy="28" r="1"/>
            <circle cx="38" cy="28" r="1"/>
            <circle cx="41" cy="28" r="1"/>
            <circle cx="44" cy="28" r="1"/>
            <circle cx="47" cy="28" r="1"/>
            <circle cx="1" cy="31" r="1"/>
            <circle cx="4" cy="31" r="1"/>
            <circle cx="7" cy="31" r="1"/>
            <circle cx="10" cy="31" r="1"/>
            <circle cx="13" cy="31" r="1"/>
            <circle cx="16" cy="31" r="1"/>
            <circle cx="19" cy="31" r="1"/>
            <circle cx="22" cy="31" r="1"/>
            <circle cx="25" cy="31" r="1"/>
            <circle cx="28" cy="31" r="1"/>
            <circle cx="31" cy="31" r="1"/>
            <circle cx="34" cy="31" r="1"/>
            <circle cx="37" cy="31" r="1"/>
            <circle cx="40" cy="31" r="1"/>
            <circle cx="43" cy="31" r="1"/>
            <circle cx="46" cy="31" r="1"/>
            <circle cx="2" cy="34" r="1"/>
            <circle cx="5" cy="34" r="1"/>
            <circle cx="8" cy="34" r="1"/>
            <circle cx="11" cy="34" r="1"/>
            <circle cx="14" cy="34" r="1"/>
            <circle cx="17" cy="34" r="1"/>
            <circle cx="20" cy="34" r="1"/>
            <circle cx="23" cy="34" r="1"/>
            <circle cx="26" cy="34" r="1"/>
            <circle cx="29" cy="34" r="1"/>
            <circle cx="32" cy="34" r="1"/>
            <circle cx="35" cy="34" r="1"/>
            <circle cx="38" cy="34" r="1"/>
            <circle cx="41" cy="34" r="1"/>
            <circle cx="44" cy="34" r="1"/>
            <circle cx="47" cy="34" r="1"/>
            <circle cx="1" cy="37" r="1"/>
            <circle cx="4" cy="37" r="1"/>
            <circle cx="7" cy="37" r="1"/>
            <circle cx="10" cy="37" r="1"/>
            <circle cx="13" cy="37" r="1"/>
            <circle cx="16" cy="37" r="1"/>
            <circle cx="19" cy="37" r="1"/>
            <circle cx="22" cy="37" r="1"/>
            <circle cx="25" cy="37" r="1"/>
            <circle cx="28" cy="37" r="1"/>
            <circle cx="31" cy="37" r="1"/>
            <circle cx="34" cy="37" r="1"/>
            <circle cx="37" cy="37" r="1"/>
            <circle cx="40" cy="37" r="1"/>
            <circle cx="43" cy="37" r="1"/>
            <circle cx="46" cy="37" r="1"/>
            <circle cx="2" cy="40" r="1"/>
            <circle cx="5" cy="40" r="1"/>
            <circle cx="8" cy="40" r="1"/>
            <circle cx="11" cy="40" r="1"/>
            <circle cx="14" cy="40" r="1"/>
            <circle cx="17" cy="40" r="1"/>
            <circle cx="20" cy="40" r="1"/>
            <circle cx="23" cy="40" r="1"/>
            <circle cx="26" cy="40" r="1"/>
            <circle cx="29" cy="40" r="1"/>
            <circle cx="32" cy="40" r="1"/>
            <circle cx="35" cy="40" r="1"/>
            <circle cx="38" cy="40" r="1"/>
            <circle cx="41" cy="40" r="1"/>
            <circle cx="44" cy="40" r="1"/>
            <circle cx="47" cy="40" r="1"/>
            <circle cx="1" cy="43" r="1"/>
            <circle cx="4" cy="43" r="1"/>
            <circle cx="7" cy="43" r="1"/>
            <circle cx="10" cy="43" r="1"/>
            <circle cx="13" cy="43" r="1"/>
            <circle cx="16" cy="43" r="1"/>
            <circle cx="19" cy="43" r="1"/>
            <circle cx="22" cy="43" r="1"/>
            <circle cx="25" cy="43" r="1"/>
            <circle cx="28" cy="43" r="1"/>
            <circle cx="31" cy="43" r="1"/>
            <circle cx="34" cy="43" r="1"/>
            <circle cx="37" cy="43" r="1"/>
            <circle cx="40" cy="43" r="1"/>
            <circle cx="43" cy="43" r="1"/>
            <circle cx="46" cy="43" r="1"/>
            <circle cx="2" cy="46" r="1"/>
            <circle cx="5" cy="46" r="1"/>
            <circle cx="8" cy="46" r="1"/>
            <circle cx="11" cy="46" r="1"/>
            <circle cx="14" cy="46" r="1"/>
            <circle cx="17" cy="46" r="1"/>
            <circle cx="20" cy="46" r="1"/>
            <circle cx="23" cy="46" r="1"/>
            <circle cx="26" cy="46" r="1"/>
            <circle cx="29" cy="46" r="1"/>
            <circle cx="32" cy="46" r="1"/>
            <circle cx="35" cy="46" r="1"/>
            <circle cx="38" cy="46" r="1"/>
            <circle cx="41" cy="46" r="1"/>
            <circle cx="44" cy="46" r="1"/>
            <circle cx="47" cy="46" r="1"/>
            <circle cx="49" cy="13" r="1"/>
            <circle cx="52" cy="13" r="1"/>
            <circle cx="55" cy="13" r="1"/>
            <circle cx="58" cy="13" r="1"/>
            <circle cx="61" cy="13" r="1"/>
            <circle cx="64" cy="13" r="1"/>
            <circle cx="67" cy="13" r="1"/>
            <circle cx="70" cy="13" r="1"/>
            <circle cx="73" cy="13" r="1"/>
            <circle cx="76" cy="13" r="1"/>
            <circle cx="79" cy="13" r="1"/>
            <circle cx="82" cy="13" r="1"/>
            <circle cx="85" cy="13" r="1"/>
            <circle cx="88" cy="13" r="1"/>
            <circle cx="91" cy="13" r="1"/>
            <circle cx="94" cy="13" r="1"/>
            <circle cx="50" cy="16" r="1"/>
            <circle cx="53" cy="16" r="1"/>
            <circle cx="56" cy="16" r="1"/>
            <circle cx="59" cy="16" r="1"/>
            <circle cx="62" cy="16" r="1"/>
            <circle cx="65" cy="16" r="1"/>
            <circle cx="68" cy="16" r="1"/>
            <circle cx="71" cy="16" r="1"/>
            <circle cx="74" cy="16" r="1"/>
            <circle cx="77" cy="16" r="1"/>
            <circle cx="80" cy="16" r="1"/>
            <circle cx="83" cy="16" r="1"/>
            <circle cx="86" cy="16" r="1"/>
            <circle cx="89" cy="16" r="1"/>
            <circle cx="92" cy="16" r="1"/>
            <circle cx="95" cy="16" r="1"/>
            <circle cx="49" cy="7" r="1"/>
            <circle cx="52" cy="7" r="1"/>
            <circle cx="55" cy="7" r="1"/>
            <circle cx="58" cy="7" r="1"/>
            <circle cx="61" cy="7" r="1"/>
            <circle cx="64" cy="7" r="1"/>
            <circle cx="67" cy="7" r="1"/>
            <circle cx="70" cy="7" r="1"/>
            <circle cx="73" cy="7" r="1"/>
            <circle cx="76" cy="7" r="1"/>
            <circle cx="79" cy="7" r="1"/>
            <circle cx="82" cy="7" r="1"/>
            <circle cx="85" cy="7" r="1"/>
            <circle cx="88" cy="7" r="1"/>
            <circle cx="91" cy="7" r="1"/>
            <circle cx="94" cy="7" r="1"/>
            <circle cx="50" cy="10" r="1"/>
            <circle cx="53" cy="10" r="1"/>
            <circle cx="56" cy="10" r="1"/>
            <circle cx="59" cy="10" r="1"/>
            <circle cx="62" cy="10" r="1"/>
            <circle cx="65" cy="10" r="1"/>
            <circle cx="68" cy="10" r="1"/>
            <circle cx="71" cy="10" r="1"/>
            <circle cx="74" cy="10" r="1"/>
            <circle cx="77" cy="10" r="1"/>
            <circle cx="80" cy="10" r="1"/>
            <circle cx="83" cy="10" r="1"/>
            <circle cx="86" cy="10" r="1"/>
            <circle cx="89" cy="10" r="1"/>
            <circle cx="92" cy="10" r="1"/>
            <circle cx="95" cy="10" r="1"/>
            <circle cx="49" cy="1" r="1"/>
            <circle cx="52" cy="1" r="1"/>
            <circle cx="55" cy="1" r="1"/>
            <circle cx="58" cy="1" r="1"/>
            <circle cx="61" cy="1" r="1"/>
            <circle cx="64" cy="1" r="1"/>
            <circle cx="67" cy="1" r="1"/>
            <circle cx="70" cy="1" r="1"/>
            <circle cx="73" cy="1" r="1"/>
            <circle cx="76" cy="1" r="1"/>
            <circle cx="79" cy="1" r="1"/>
            <circle cx="82" cy="1" r="1"/>
            <circle cx="85" cy="1" r="1"/>
            <circle cx="88" cy="1" r="1"/>
            <circle cx="91" cy="1" r="1"/>
            <circle cx="94" cy="1" r="1"/>
            <circle cx="50" cy="4" r="1"/>
            <circle cx="53" cy="4" r="1"/>
            <circle cx="56" cy="4" r="1"/>
            <circle cx="59" cy="4" r="1"/>
            <circle cx="62" cy="4" r="1"/>
            <circle cx="65" cy="4" r="1"/>
            <circle cx="68" cy="4" r="1"/>
            <circle cx="71" cy="4" r="1"/>
            <circle cx="74" cy="4" r="1"/>
            <circle cx="77" cy="4" r="1"/>
            <circle cx="80" cy="4" r="1"/>
            <circle cx="83" cy="4" r="1"/>
            <circle cx="86" cy="4" r="1"/>
            <circle cx="89" cy="4" r="1"/>
            <circle cx="92" cy="4" r="1"/>
            <circle cx="95" cy="4" r="1"/>
            <circle cx="49" cy="19" r="1"/>
            <circle cx="52" cy="19" r="1"/>
            <circle cx="55" cy="19" r="1"/>
            <circle cx="58" cy="19" r="1"/>
            <circle cx="61" cy="19" r="1"/>
            <circle cx="64" cy="19" r="1"/>
            <circle cx="67" cy="19" r="1"/>
            <circle cx="70" cy="19" r="1"/>
            <circle cx="73" cy="19" r="1"/>
            <circle cx="76" cy="19" r="1"/>
            <circle cx="79" cy="19" r="1"/>
            <circle cx="82" cy="19" r="1"/>
            <circle cx="85" cy="19" r="1"/>
            <circle cx="88" cy="19" r="1"/>
            <circle cx="91" cy="19" r="1"/>
            <circle cx="94" cy="19" r="1"/>
            <circle cx="50" cy="22" r="1"/>
            <circle cx="53" cy="22" r="1"/>
            <circle cx="56" cy="22" r="1"/>
            <circle cx="59" cy="22" r="1"/>
            <circle cx="62" cy="22" r="1"/>
            <circle cx="65" cy="22" r="1"/>
            <circle cx="68" cy="22" r="1"/>
            <circle cx="71" cy="22" r="1"/>
            <circle cx="74" cy="22" r="1"/>
            <circle cx="77" cy="22" r="1"/>
            <circle cx="80" cy="22" r="1"/>
            <circle cx="83" cy="22" r="1"/>
            <circle cx="86" cy="22" r="1"/>
            <circle cx="89" cy="22" r="1"/>
            <circle cx="92" cy="22" r="1"/>
            <circle cx="95" cy="22" r="1"/>
            <circle cx="49" cy="25" r="1"/>
            <circle cx="52" cy="25" r="1"/>
            <circle cx="55" cy="25" r="1"/>
            <circle cx="58" cy="25" r="1"/>
            <circle cx="61" cy="25" r="1"/>
            <circle cx="64" cy="25" r="1"/>
            <circle cx="67" cy="25" r="1"/>
            <circle cx="70" cy="25" r="1"/>
            <circle cx="73" cy="25" r="1"/>
            <circle cx="76" cy="25" r="1"/>
            <circle cx="79" cy="25" r="1"/>
            <circle cx="82" cy="25" r="1"/>
            <circle cx="85" cy="25" r="1"/>
            <circle cx="88" cy="25" r="1"/>
            <circle cx="91" cy="25" r="1"/>
            <circle cx="94" cy="25" r="1"/>
            <circle cx="50" cy="28" r="1"/>
            <circle cx="53" cy="28" r="1"/>
            <circle cx="56" cy="28" r="1"/>
            <circle cx="59" cy="28" r="1"/>
            <circle cx="62" cy="28" r="1"/>
            <circle cx="65" cy="28" r="1"/>
            <circle cx="68" cy="28" r="1"/>
            <circle cx="71" cy="28" r="1"/>
            <circle cx="74" cy="28" r="1"/>
            <circle cx="77" cy="28" r="1"/>
            <circle cx="80" cy="28" r="1"/>
            <circle cx="83" cy="28" r="1"/>
            <circle cx="86" cy="28" r="1"/>
            <circle cx="89" cy="28" r="1"/>
            <circle cx="92" cy="28" r="1"/>
            <circle cx="95" cy="28" r="1"/>
            <circle cx="49" cy="31" r="1"/>
            <circle cx="52" cy="31" r="1"/>
            <circle cx="55" cy="31" r="1"/>
            <circle cx="58" cy="31" r="1"/>
            <circle cx="61" cy="31" r="1"/>
            <circle cx="64" cy="31" r="1"/>
            <circle cx="67" cy="31" r="1"/>
            <circle cx="70" cy="31" r="1"/>
            <circle cx="73" cy="31" r="1"/>
            <circle cx="76" cy="31" r="1"/>
            <circle cx="79" cy="31" r="1"/>
            <circle cx="82" cy="31" r="1"/>
            <circle cx="85" cy="31" r="1"/>
            <circle cx="88" cy="31" r="1"/>
            <circle cx="91" cy="31" r="1"/>
            <circle cx="94" cy="31" r="1"/>
            <circle cx="50" cy="34" r="1"/>
            <circle cx="53" cy="34" r="1"/>
            <circle cx="56" cy="34" r="1"/>
            <circle cx="59" cy="34" r="1"/>
            <circle cx="62" cy="34" r="1"/>
            <circle cx="65" cy="34" r="1"/>
            <circle cx="68" cy="34" r="1"/>
            <circle cx="71" cy="34" r="1"/>
            <circle cx="74" cy="34" r="1"/>
            <circle cx="77" cy="34" r="1"/>
            <circle cx="80" cy="34" r="1"/>
            <circle cx="83" cy="34" r="1"/>
            <circle cx="86" cy="34" r="1"/>
            <circle cx="89" cy="34" r="1"/>
            <circle cx="92" cy="34" r="1"/>
            <circle cx="95" cy="34" r="1"/>
            <circle cx="49" cy="37" r="1"/>
            <circle cx="52" cy="37" r="1"/>
            <circle cx="55" cy="37" r="1"/>
            <circle cx="58" cy="37" r="1"/>
            <circle cx="61" cy="37" r="1"/>
            <circle cx="64" cy="37" r="1"/>
            <circle cx="67" cy="37" r="1"/>
            <circle cx="70" cy="37" r="1"/>
            <circle cx="73" cy="37" r="1"/>
            <circle cx="76" cy="37" r="1"/>
            <circle cx="79" cy="37" r="1"/>
            <circle cx="82" cy="37" r="1"/>
            <circle cx="85" cy="37" r="1"/>
            <circle cx="88" cy="37" r="1"/>
            <circle cx="91" cy="37" r="1"/>
            <circle cx="94" cy="37" r="1"/>
            <circle cx="50" cy="40" r="1"/>
            <circle cx="53" cy="40" r="1"/>
            <circle cx="56" cy="40" r="1"/>
            <circle cx="59" cy="40" r="1"/>
            <circle cx="62" cy="40" r="1"/>
            <circle cx="65" cy="40" r="1"/>
            <circle cx="68" cy="40" r="1"/>
            <circle cx="71" cy="40" r="1"/>
            <circle cx="74" cy="40" r="1"/>
            <circle cx="77" cy="40" r="1"/>
            <circle cx="80" cy="40" r="1"/>
            <circle cx="83" cy="40" r="1"/>
            <circle cx="86" cy="40" r="1"/>
            <circle cx="89" cy="40" r="1"/>
            <circle cx="92" cy="40" r="1"/>
            <circle cx="95" cy="40" r="1"/>
            <circle cx="49" cy="43" r="1"/>
            <circle cx="52" cy="43" r="1"/>
            <circle cx="55" cy="43" r="1"/>
            <circle cx="58" cy="43" r="1"/>
            <circle cx="61" cy="43" r="1"/>
            <circle cx="64" cy="43" r="1"/>
            <circle cx="67" cy="43" r="1"/>
            <circle cx="70" cy="43" r="1"/>
            <circle cx="73" cy="43" r="1"/>
            <circle cx="76" cy="43" r="1"/>
            <circle cx="79" cy="43" r="1"/>
            <circle cx="82" cy="43" r="1"/>
            <circle cx="85" cy="43" r="1"/>
            <circle cx="88" cy="43" r="1"/>
            <circle cx="91" cy="43" r="1"/>
            <circle cx="94" cy="43" r="1"/>
            <circle cx="50" cy="46" r="1"/>
            <circle cx="53" cy="46" r="1"/>
            <circle cx="56" cy="46" r="1"/>
            <circle cx="59" cy="46" r="1"/>
            <circle cx="62" cy="46" r="1"/>
            <circle cx="65" cy="46" r="1"/>
            <circle cx="68" cy="46" r="1"/>
            <circle cx="71" cy="46" r="1"/>
            <circle cx="74" cy="46" r="1"/>
            <circle cx="77" cy="46" r="1"/>
            <circle cx="80" cy="46" r="1"/>
            <circle cx="83" cy="46" r="1"/>
            <circle cx="86" cy="46" r="1"/>
            <circle cx="89" cy="46" r="1"/>
            <circle cx="92" cy="46" r="1"/>
            <circle cx="95" cy="46" r="1"/>
        </g>
        <g transform="translate(13)">
            <path stroke="#29D392" stroke-linecap="square" stroke-width="2" d="M5 40l16-22M44.5 22.5L56 6M41 25l-20.5-8.5"/>
            <circle cx="3.5" cy="41.5" r="3.5" fill="#29D392"/>
            <circle cx="42.5" cy="25.5" r="3.5" fill="#29D392"/>
            <circle cx="21.5" cy="16.5" r="3.5" fill="#29D392"/>
            <circle cx="57.5" cy="3.5" r="3.5" fill="#29D392"/>
        </g>
    </g>
</svg>
