<?xml version="1.0" encoding="UTF-8"?>
<svg width="16px" height="14px" viewBox="0 0 16 14" version="1.1" xmlns="http://www.w3.org/2000/svg" xmlns:xlink="http://www.w3.org/1999/xlink">
    <!-- Generator: sketchtool 50.2 (55047) - http://www.bohemiancoding.com/sketch -->
    <title>03D076F4-1F03-4245-A1A3-972817F596BD</title>
    <desc>Created with sketchtool.</desc>
    <defs>
        <path d="M14.7455903,5.79548878 L14.7693171,5.80073366 L4.59816916,5.80073366 L7.79560656,2.56252098 C7.95217892,2.40442537 8.0380651,2.19025951 8.0380651,1.96547902 C8.0380651,1.74069854 7.95217892,1.52803122 7.79560656,1.36956098 L7.29808461,0.866552195 C7.14163583,0.708456585 6.93316103,0.621041951 6.71084559,0.621041951 C6.48840656,0.621041951 6.27980819,0.707832195 6.12335941,0.865927805 L0.64233827,6.40414439 C0.485271603,6.56286439 0.399385425,6.77428293 0.400003311,6.99918829 C0.399385425,7.22534244 0.485271603,7.43688585 0.64233827,7.5953561 L6.12335941,13.1340722 C6.27980819,13.2920429 6.48828299,13.378958 6.71084559,13.378958 C6.93316103,13.378958 7.14163583,13.291918 7.29808461,13.1340722 L7.79560656,12.6310634 C7.95217892,12.4732176 8.0380651,12.2624234 8.0380651,12.0376429 C8.0380651,11.8129873 7.95217892,11.6133073 7.79560656,11.4553366 L4.56208461,8.19901659 L14.7569594,8.19901659 C15.2150602,8.19901659 15.6000033,7.80003122 15.6000033,7.33735805 L15.6000033,6.6259278 C15.6000033,6.16325463 15.2036911,5.79548878 14.7455903,5.79548878 Z" id="path-1"></path>
    </defs>
    <g id="01-Homepage" stroke="none" stroke-width="1" fill="none" fill-rule="evenodd">
        <g id="homepage_1440px" transform="translate(-346.000000, -4844.000000)">
            <g id="05-Case-Studies" transform="translate(0.000000, 3662.000000)">
                <g id="cards" transform="translate(185.000000, 777.000000)">
                    <g id="case-study-1">
                        <g id="Read-case-study" transform="translate(24.000000, 399.000000)">
                            <g id="icon-/-arrow-right-purple" transform="translate(137.000000, 5.000000)">
                                <g id="icon-/-arrow-right" transform="translate(0.000000, 1.000000)">
                                    <mask id="mask-2" fill="white">
                                        <use xlink:href="#path-1"></use>
                                    </mask>
                                    <use id="Shape" fill="#4B45C6" fill-rule="nonzero" transform="translate(8.000002, 7.000000) rotate(180.000000) translate(-8.000002, -7.000000) " xlink:href="#path-1"></use>
                                </g>
                            </g>
                        </g>
                    </g>
                </g>
            </g>
        </g>
    </g>
</svg>