<svg xmlns="http://www.w3.org/2000/svg" width="64" height="59" viewBox="0 0 64 59">
    <g fill="none" fill-rule="evenodd" transform="translate(0 1)">
        <path stroke="#323897" stroke-linecap="round" stroke-linejoin="round" stroke-width="2" d="M52.5 6.5L58 2M48 5l-1-5M54 11l5 1"/>
        <g fill="#4046AD" opacity=".523" transform="translate(0 13)">
            <circle cx="1" cy="1" r="1"/>
            <circle cx="4" cy="1" r="1"/>
            <circle cx="7" cy="1" r="1"/>
            <circle cx="10" cy="1" r="1"/>
            <circle cx="13" cy="1" r="1"/>
            <circle cx="16" cy="1" r="1"/>
            <circle cx="19" cy="1" r="1"/>
            <circle cx="22" cy="1" r="1"/>
            <circle cx="25" cy="1" r="1"/>
            <circle cx="28" cy="1" r="1"/>
            <circle cx="31" cy="1" r="1"/>
            <circle cx="34" cy="1" r="1"/>
            <circle cx="37" cy="1" r="1"/>
            <circle cx="40" cy="1" r="1"/>
            <circle cx="43" cy="1" r="1"/>
            <circle cx="46" cy="1" r="1"/>
            <circle cx="2" cy="4" r="1"/>
            <circle cx="5" cy="4" r="1"/>
            <circle cx="8" cy="4" r="1"/>
            <circle cx="11" cy="4" r="1"/>
            <circle cx="14" cy="4" r="1"/>
            <circle cx="17" cy="4" r="1"/>
            <circle cx="20" cy="4" r="1"/>
            <circle cx="23" cy="4" r="1"/>
            <circle cx="26" cy="4" r="1"/>
            <circle cx="29" cy="4" r="1"/>
            <circle cx="32" cy="4" r="1"/>
            <circle cx="35" cy="4" r="1"/>
            <circle cx="38" cy="4" r="1"/>
            <circle cx="41" cy="4" r="1"/>
            <circle cx="44" cy="4" r="1"/>
            <circle cx="47" cy="4" r="1"/>
            <circle cx="1" cy="7" r="1"/>
            <circle cx="4" cy="7" r="1"/>
            <circle cx="7" cy="7" r="1"/>
            <circle cx="10" cy="7" r="1"/>
            <circle cx="13" cy="7" r="1"/>
            <circle cx="16" cy="7" r="1"/>
            <circle cx="19" cy="7" r="1"/>
            <circle cx="22" cy="7" r="1"/>
            <circle cx="25" cy="7" r="1"/>
            <circle cx="28" cy="7" r="1"/>
            <circle cx="31" cy="7" r="1"/>
            <circle cx="34" cy="7" r="1"/>
            <circle cx="37" cy="7" r="1"/>
            <circle cx="40" cy="7" r="1"/>
            <circle cx="43" cy="7" r="1"/>
            <circle cx="46" cy="7" r="1"/>
            <circle cx="2" cy="10" r="1"/>
            <circle cx="5" cy="10" r="1"/>
            <circle cx="8" cy="10" r="1"/>
            <circle cx="11" cy="10" r="1"/>
            <circle cx="14" cy="10" r="1"/>
            <circle cx="17" cy="10" r="1"/>
            <circle cx="20" cy="10" r="1"/>
            <circle cx="23" cy="10" r="1"/>
            <circle cx="26" cy="10" r="1"/>
            <circle cx="29" cy="10" r="1"/>
            <circle cx="32" cy="10" r="1"/>
            <circle cx="35" cy="10" r="1"/>
            <circle cx="38" cy="10" r="1"/>
            <circle cx="41" cy="10" r="1"/>
            <circle cx="44" cy="10" r="1"/>
            <circle cx="47" cy="10" r="1"/>
            <circle cx="1" cy="13" r="1"/>
            <circle cx="4" cy="13" r="1"/>
            <circle cx="7" cy="13" r="1"/>
            <circle cx="10" cy="13" r="1"/>
            <circle cx="13" cy="13" r="1"/>
            <circle cx="16" cy="13" r="1"/>
            <circle cx="19" cy="13" r="1"/>
            <circle cx="22" cy="13" r="1"/>
            <circle cx="25" cy="13" r="1"/>
            <circle cx="28" cy="13" r="1"/>
            <circle cx="31" cy="13" r="1"/>
            <circle cx="34" cy="13" r="1"/>
            <circle cx="37" cy="13" r="1"/>
            <circle cx="40" cy="13" r="1"/>
            <circle cx="43" cy="13" r="1"/>
            <circle cx="46" cy="13" r="1"/>
            <circle cx="2" cy="16" r="1"/>
            <circle cx="5" cy="16" r="1"/>
            <circle cx="8" cy="16" r="1"/>
            <circle cx="11" cy="16" r="1"/>
            <circle cx="14" cy="16" r="1"/>
            <circle cx="17" cy="16" r="1"/>
            <circle cx="20" cy="16" r="1"/>
            <circle cx="23" cy="16" r="1"/>
            <circle cx="26" cy="16" r="1"/>
            <circle cx="29" cy="16" r="1"/>
            <circle cx="32" cy="16" r="1"/>
            <circle cx="35" cy="16" r="1"/>
            <circle cx="38" cy="16" r="1"/>
            <circle cx="41" cy="16" r="1"/>
            <circle cx="44" cy="16" r="1"/>
            <circle cx="47" cy="16" r="1"/>
            <circle cx="1" cy="19" r="1"/>
            <circle cx="4" cy="19" r="1"/>
            <circle cx="7" cy="19" r="1"/>
            <circle cx="10" cy="19" r="1"/>
            <circle cx="13" cy="19" r="1"/>
            <circle cx="16" cy="19" r="1"/>
            <circle cx="19" cy="19" r="1"/>
            <circle cx="22" cy="19" r="1"/>
            <circle cx="25" cy="19" r="1"/>
            <circle cx="28" cy="19" r="1"/>
            <circle cx="31" cy="19" r="1"/>
            <circle cx="34" cy="19" r="1"/>
            <circle cx="37" cy="19" r="1"/>
            <circle cx="40" cy="19" r="1"/>
            <circle cx="43" cy="19" r="1"/>
            <circle cx="46" cy="19" r="1"/>
            <circle cx="2" cy="22" r="1"/>
            <circle cx="5" cy="22" r="1"/>
            <circle cx="8" cy="22" r="1"/>
            <circle cx="11" cy="22" r="1"/>
            <circle cx="14" cy="22" r="1"/>
            <circle cx="17" cy="22" r="1"/>
            <circle cx="20" cy="22" r="1"/>
            <circle cx="23" cy="22" r="1"/>
            <circle cx="26" cy="22" r="1"/>
            <circle cx="29" cy="22" r="1"/>
            <circle cx="32" cy="22" r="1"/>
            <circle cx="35" cy="22" r="1"/>
            <circle cx="38" cy="22" r="1"/>
            <circle cx="41" cy="22" r="1"/>
            <circle cx="44" cy="22" r="1"/>
            <circle cx="47" cy="22" r="1"/>
            <circle cx="1" cy="25" r="1"/>
            <circle cx="4" cy="25" r="1"/>
            <circle cx="7" cy="25" r="1"/>
            <circle cx="10" cy="25" r="1"/>
            <circle cx="13" cy="25" r="1"/>
            <circle cx="16" cy="25" r="1"/>
            <circle cx="19" cy="25" r="1"/>
            <circle cx="22" cy="25" r="1"/>
            <circle cx="25" cy="25" r="1"/>
            <circle cx="28" cy="25" r="1"/>
            <circle cx="31" cy="25" r="1"/>
            <circle cx="34" cy="25" r="1"/>
            <circle cx="37" cy="25" r="1"/>
            <circle cx="40" cy="25" r="1"/>
            <circle cx="43" cy="25" r="1"/>
            <circle cx="46" cy="25" r="1"/>
            <circle cx="2" cy="28" r="1"/>
            <circle cx="5" cy="28" r="1"/>
            <circle cx="8" cy="28" r="1"/>
            <circle cx="11" cy="28" r="1"/>
            <circle cx="14" cy="28" r="1"/>
            <circle cx="17" cy="28" r="1"/>
            <circle cx="20" cy="28" r="1"/>
            <circle cx="23" cy="28" r="1"/>
            <circle cx="26" cy="28" r="1"/>
            <circle cx="29" cy="28" r="1"/>
            <circle cx="32" cy="28" r="1"/>
            <circle cx="35" cy="28" r="1"/>
            <circle cx="38" cy="28" r="1"/>
            <circle cx="41" cy="28" r="1"/>
            <circle cx="44" cy="28" r="1"/>
            <circle cx="47" cy="28" r="1"/>
            <circle cx="1" cy="31" r="1"/>
            <circle cx="4" cy="31" r="1"/>
            <circle cx="7" cy="31" r="1"/>
            <circle cx="10" cy="31" r="1"/>
            <circle cx="13" cy="31" r="1"/>
            <circle cx="16" cy="31" r="1"/>
            <circle cx="19" cy="31" r="1"/>
            <circle cx="22" cy="31" r="1"/>
            <circle cx="25" cy="31" r="1"/>
            <circle cx="28" cy="31" r="1"/>
            <circle cx="31" cy="31" r="1"/>
            <circle cx="34" cy="31" r="1"/>
            <circle cx="37" cy="31" r="1"/>
            <circle cx="40" cy="31" r="1"/>
            <circle cx="43" cy="31" r="1"/>
            <circle cx="46" cy="31" r="1"/>
            <circle cx="2" cy="34" r="1"/>
            <circle cx="5" cy="34" r="1"/>
            <circle cx="8" cy="34" r="1"/>
            <circle cx="11" cy="34" r="1"/>
            <circle cx="14" cy="34" r="1"/>
            <circle cx="17" cy="34" r="1"/>
            <circle cx="20" cy="34" r="1"/>
            <circle cx="23" cy="34" r="1"/>
            <circle cx="26" cy="34" r="1"/>
            <circle cx="29" cy="34" r="1"/>
            <circle cx="32" cy="34" r="1"/>
            <circle cx="35" cy="34" r="1"/>
            <circle cx="38" cy="34" r="1"/>
            <circle cx="41" cy="34" r="1"/>
            <circle cx="44" cy="34" r="1"/>
            <circle cx="47" cy="34" r="1"/>
        </g>
        <g fill="#4046AD" opacity=".523" transform="translate(16 23)">
            <circle cx="1" cy="1" r="1"/>
            <circle cx="4" cy="1" r="1"/>
            <circle cx="7" cy="1" r="1"/>
            <circle cx="10" cy="1" r="1"/>
            <circle cx="13" cy="1" r="1"/>
            <circle cx="16" cy="1" r="1"/>
            <circle cx="19" cy="1" r="1"/>
            <circle cx="22" cy="1" r="1"/>
            <circle cx="25" cy="1" r="1"/>
            <circle cx="28" cy="1" r="1"/>
            <circle cx="31" cy="1" r="1"/>
            <circle cx="34" cy="1" r="1"/>
            <circle cx="37" cy="1" r="1"/>
            <circle cx="40" cy="1" r="1"/>
            <circle cx="43" cy="1" r="1"/>
            <circle cx="46" cy="1" r="1"/>
            <circle cx="2" cy="4" r="1"/>
            <circle cx="5" cy="4" r="1"/>
            <circle cx="8" cy="4" r="1"/>
            <circle cx="11" cy="4" r="1"/>
            <circle cx="14" cy="4" r="1"/>
            <circle cx="17" cy="4" r="1"/>
            <circle cx="20" cy="4" r="1"/>
            <circle cx="23" cy="4" r="1"/>
            <circle cx="26" cy="4" r="1"/>
            <circle cx="29" cy="4" r="1"/>
            <circle cx="32" cy="4" r="1"/>
            <circle cx="35" cy="4" r="1"/>
            <circle cx="38" cy="4" r="1"/>
            <circle cx="41" cy="4" r="1"/>
            <circle cx="44" cy="4" r="1"/>
            <circle cx="47" cy="4" r="1"/>
            <circle cx="1" cy="7" r="1"/>
            <circle cx="4" cy="7" r="1"/>
            <circle cx="7" cy="7" r="1"/>
            <circle cx="10" cy="7" r="1"/>
            <circle cx="13" cy="7" r="1"/>
            <circle cx="16" cy="7" r="1"/>
            <circle cx="19" cy="7" r="1"/>
            <circle cx="22" cy="7" r="1"/>
            <circle cx="25" cy="7" r="1"/>
            <circle cx="28" cy="7" r="1"/>
            <circle cx="31" cy="7" r="1"/>
            <circle cx="34" cy="7" r="1"/>
            <circle cx="37" cy="7" r="1"/>
            <circle cx="40" cy="7" r="1"/>
            <circle cx="43" cy="7" r="1"/>
            <circle cx="46" cy="7" r="1"/>
            <circle cx="2" cy="10" r="1"/>
            <circle cx="5" cy="10" r="1"/>
            <circle cx="8" cy="10" r="1"/>
            <circle cx="11" cy="10" r="1"/>
            <circle cx="14" cy="10" r="1"/>
            <circle cx="17" cy="10" r="1"/>
            <circle cx="20" cy="10" r="1"/>
            <circle cx="23" cy="10" r="1"/>
            <circle cx="26" cy="10" r="1"/>
            <circle cx="29" cy="10" r="1"/>
            <circle cx="32" cy="10" r="1"/>
            <circle cx="35" cy="10" r="1"/>
            <circle cx="38" cy="10" r="1"/>
            <circle cx="41" cy="10" r="1"/>
            <circle cx="44" cy="10" r="1"/>
            <circle cx="47" cy="10" r="1"/>
            <circle cx="1" cy="13" r="1"/>
            <circle cx="4" cy="13" r="1"/>
            <circle cx="7" cy="13" r="1"/>
            <circle cx="10" cy="13" r="1"/>
            <circle cx="13" cy="13" r="1"/>
            <circle cx="16" cy="13" r="1"/>
            <circle cx="19" cy="13" r="1"/>
            <circle cx="22" cy="13" r="1"/>
            <circle cx="25" cy="13" r="1"/>
            <circle cx="28" cy="13" r="1"/>
            <circle cx="31" cy="13" r="1"/>
            <circle cx="34" cy="13" r="1"/>
            <circle cx="37" cy="13" r="1"/>
            <circle cx="40" cy="13" r="1"/>
            <circle cx="43" cy="13" r="1"/>
            <circle cx="46" cy="13" r="1"/>
            <circle cx="2" cy="16" r="1"/>
            <circle cx="5" cy="16" r="1"/>
            <circle cx="8" cy="16" r="1"/>
            <circle cx="11" cy="16" r="1"/>
            <circle cx="14" cy="16" r="1"/>
            <circle cx="17" cy="16" r="1"/>
            <circle cx="20" cy="16" r="1"/>
            <circle cx="23" cy="16" r="1"/>
            <circle cx="26" cy="16" r="1"/>
            <circle cx="29" cy="16" r="1"/>
            <circle cx="32" cy="16" r="1"/>
            <circle cx="35" cy="16" r="1"/>
            <circle cx="38" cy="16" r="1"/>
            <circle cx="41" cy="16" r="1"/>
            <circle cx="44" cy="16" r="1"/>
            <circle cx="47" cy="16" r="1"/>
            <circle cx="1" cy="19" r="1"/>
            <circle cx="4" cy="19" r="1"/>
            <circle cx="7" cy="19" r="1"/>
            <circle cx="10" cy="19" r="1"/>
            <circle cx="13" cy="19" r="1"/>
            <circle cx="16" cy="19" r="1"/>
            <circle cx="19" cy="19" r="1"/>
            <circle cx="22" cy="19" r="1"/>
            <circle cx="25" cy="19" r="1"/>
            <circle cx="28" cy="19" r="1"/>
            <circle cx="31" cy="19" r="1"/>
            <circle cx="34" cy="19" r="1"/>
            <circle cx="37" cy="19" r="1"/>
            <circle cx="40" cy="19" r="1"/>
            <circle cx="43" cy="19" r="1"/>
            <circle cx="46" cy="19" r="1"/>
            <circle cx="2" cy="22" r="1"/>
            <circle cx="5" cy="22" r="1"/>
            <circle cx="8" cy="22" r="1"/>
            <circle cx="11" cy="22" r="1"/>
            <circle cx="14" cy="22" r="1"/>
            <circle cx="17" cy="22" r="1"/>
            <circle cx="20" cy="22" r="1"/>
            <circle cx="23" cy="22" r="1"/>
            <circle cx="26" cy="22" r="1"/>
            <circle cx="29" cy="22" r="1"/>
            <circle cx="32" cy="22" r="1"/>
            <circle cx="35" cy="22" r="1"/>
            <circle cx="38" cy="22" r="1"/>
            <circle cx="41" cy="22" r="1"/>
            <circle cx="44" cy="22" r="1"/>
            <circle cx="47" cy="22" r="1"/>
            <circle cx="1" cy="25" r="1"/>
            <circle cx="4" cy="25" r="1"/>
            <circle cx="7" cy="25" r="1"/>
            <circle cx="10" cy="25" r="1"/>
            <circle cx="13" cy="25" r="1"/>
            <circle cx="16" cy="25" r="1"/>
            <circle cx="19" cy="25" r="1"/>
            <circle cx="22" cy="25" r="1"/>
            <circle cx="25" cy="25" r="1"/>
            <circle cx="28" cy="25" r="1"/>
            <circle cx="31" cy="25" r="1"/>
            <circle cx="34" cy="25" r="1"/>
            <circle cx="37" cy="25" r="1"/>
            <circle cx="40" cy="25" r="1"/>
            <circle cx="43" cy="25" r="1"/>
            <circle cx="46" cy="25" r="1"/>
            <circle cx="2" cy="28" r="1"/>
            <circle cx="5" cy="28" r="1"/>
            <circle cx="8" cy="28" r="1"/>
            <circle cx="11" cy="28" r="1"/>
            <circle cx="14" cy="28" r="1"/>
            <circle cx="17" cy="28" r="1"/>
            <circle cx="20" cy="28" r="1"/>
            <circle cx="23" cy="28" r="1"/>
            <circle cx="26" cy="28" r="1"/>
            <circle cx="29" cy="28" r="1"/>
            <circle cx="32" cy="28" r="1"/>
            <circle cx="35" cy="28" r="1"/>
            <circle cx="38" cy="28" r="1"/>
            <circle cx="41" cy="28" r="1"/>
            <circle cx="44" cy="28" r="1"/>
            <circle cx="47" cy="28" r="1"/>
            <circle cx="1" cy="31" r="1"/>
            <circle cx="4" cy="31" r="1"/>
            <circle cx="7" cy="31" r="1"/>
            <circle cx="10" cy="31" r="1"/>
            <circle cx="13" cy="31" r="1"/>
            <circle cx="16" cy="31" r="1"/>
            <circle cx="19" cy="31" r="1"/>
            <circle cx="22" cy="31" r="1"/>
            <circle cx="25" cy="31" r="1"/>
            <circle cx="28" cy="31" r="1"/>
            <circle cx="31" cy="31" r="1"/>
            <circle cx="34" cy="31" r="1"/>
            <circle cx="37" cy="31" r="1"/>
            <circle cx="40" cy="31" r="1"/>
            <circle cx="43" cy="31" r="1"/>
            <circle cx="46" cy="31" r="1"/>
            <circle cx="2" cy="34" r="1"/>
            <circle cx="5" cy="34" r="1"/>
            <circle cx="8" cy="34" r="1"/>
            <circle cx="11" cy="34" r="1"/>
            <circle cx="14" cy="34" r="1"/>
            <circle cx="17" cy="34" r="1"/>
            <circle cx="20" cy="34" r="1"/>
            <circle cx="23" cy="34" r="1"/>
            <circle cx="26" cy="34" r="1"/>
            <circle cx="29" cy="34" r="1"/>
            <circle cx="32" cy="34" r="1"/>
            <circle cx="35" cy="34" r="1"/>
            <circle cx="38" cy="34" r="1"/>
            <circle cx="41" cy="34" r="1"/>
            <circle cx="44" cy="34" r="1"/>
            <circle cx="47" cy="34" r="1"/>
        </g>
        <path stroke="#4046AD" stroke-linecap="round" stroke-linejoin="round" stroke-width="2" d="M52 46L38.5 34.5"/>
        <circle cx="27.5" cy="24.5" r="13.5" stroke="#4046AD" stroke-width="3"/>
    </g>
</svg>
