<?xml version="1.0" encoding="UTF-8"?>
<svg width="40px" height="24px" viewBox="0 0 40 24" version="1.1" xmlns="http://www.w3.org/2000/svg" xmlns:xlink="http://www.w3.org/1999/xlink">
    <!-- Generator: Sketch 53.1 (72631) - https://sketchapp.com -->
    <title>Group 5</title>
    <desc>Created with Sketch.</desc>
    <g id="Working" stroke="none" stroke-width="1" fill="none" fill-rule="evenodd">
        <g id="Hero@2x" transform="translate(-166.000000, -294.000000)" fill="#FFFFFF">
            <g id="Group-16" transform="translate(108.000000, 287.000000)">
                <g id="Group-14" transform="translate(3.000000, 0.000000)">
                    <g id="Group-5" transform="translate(55.000000, 7.000000)">
                        <path d="M10.4972689,9.19979052 C10.4972689,9.72106501 10.54971,10.14372 10.6414819,10.453667 C10.7463641,10.763614 10.8774669,11.101738 11.0610107,11.468039 C11.1265621,11.580747 11.1527827,11.693455 11.1527827,11.7920745 C11.1527827,11.9329595 11.074121,12.0738445 10.9036874,12.2147295 L10.07774,12.8064465 C9.95974755,12.8909775 9.84175507,12.933243 9.73687285,12.933243 C9.60577009,12.933243 9.47466734,12.8628005 9.34356458,12.736004 C9.16002069,12.5246765 9.00269737,12.2992605 8.87159462,12.0738445 C8.74049186,11.83434 8.6093891,11.5666585 8.46517606,11.242623 C7.44257451,12.538765 6.15776747,13.186836 4.61075486,13.186836 C3.50949167,13.186836 2.63110317,12.848712 1.98869964,12.172464 C1.34629611,11.496216 1.0185392,10.594552 1.0185392,9.46747202 C1.0185392,8.26994953 1.41184749,7.29784302 2.21157433,6.56524102 C3.01130118,5.832639 4.07323355,5.466338 5.42359199,5.466338 C5.86934139,5.466338 6.32820104,5.50860352 6.81328126,5.57904601 C7.29836147,5.6494885 7.79655197,5.76219651 8.32096302,5.88899302 L8.32096302,4.86053252 C8.32096302,3.78980651 8.11119861,3.043116 7.70478005,2.6063725 C7.28525122,2.169629 6.57729631,1.9583015 5.56780503,1.9583015 C5.10894535,1.9583015 4.63697542,2.0146555 4.15189521,2.141452 C3.66681499,2.2682485 3.19484503,2.423222 2.73598538,2.620461 C2.52622096,2.71908051 2.36889765,2.77543451 2.27712571,2.80361151 C2.18535378,2.83178851 2.1198024,2.845877 2.06736129,2.845877 C1.88381743,2.845877 1.79204549,2.704992 1.79204549,2.4091335 L1.79204549,1.718797 C1.79204549,1.493381 1.81826605,1.324319 1.88381743,1.2256995 C1.94936881,1.12708 2.06736129,1.0284605 2.25090516,0.929841003 C2.70976482,0.676248003 3.26039641,0.464920501 3.90279994,0.2958585 C4.54520348,0.112708 5.22693786,0.028177 5.94800305,0.028177 C7.50812592,0.028177 8.64871992,0.408566501 9.38289539,1.1693455 C10.1039606,1.9301245 10.4710483,3.08538151 10.4710483,4.63511651 L10.4710483,9.19979052 L10.4972689,9.19979052 Z M5.17449673,11.3412425 C5.60713585,11.3412425 6.05288525,11.2567115 6.52485518,11.0876495 C6.99682514,10.9185875 7.41635398,10.6086405 7.77033143,10.1859855 C7.98009585,9.91830401 8.13741917,9.62244551 8.21608083,9.28432152 C8.29474246,8.9461975 8.34718359,8.53763102 8.34718359,8.05862202 L8.34718359,7.46690501 C7.96698557,7.36828551 7.56056701,7.28375451 7.14103818,7.22740053 C6.72150934,7.17104651 6.31509076,7.1428695 5.90867221,7.1428695 C5.03028369,7.1428695 4.38788019,7.32602003 3.95524107,7.70640953 C3.52260196,8.08679903 3.31283754,8.62216202 3.31283754,9.326587 C3.31283754,9.9887465 3.47016086,10.481844 3.79791775,10.819968 C4.11256436,11.1721805 4.57142404,11.3412425 5.17449673,11.3412425 Z M15.7020485,12.8628005 C15.4660635,12.8628005 15.3087402,12.820535 15.203858,12.7219155 C15.0989758,12.6373845 15.0072039,12.4401455 14.9285422,12.172464 L11.8476273,1.2820535 C11.7689656,1.0002835 11.7296348,0.817133003 11.7296348,0.718513501 C11.7296348,0.493097501 11.834517,0.366301 12.0442814,0.366301 L13.3290885,0.366301 C13.5781838,0.366301 13.7486173,0.408566501 13.8403893,0.507186 C13.9452715,0.591717 14.0239332,0.788956003 14.1025948,1.0566375 L16.3051212,10.3832245 L18.3503243,1.0566375 C18.4158757,0.774867501 18.4945373,0.591717 18.5994195,0.507186 C18.7043017,0.422655 18.8878456,0.366301 19.1238306,0.366301 L20.1726527,0.366301 C20.4217479,0.366301 20.5921815,0.408566501 20.6970637,0.507186 C20.8019459,0.591717 20.8937179,0.788956003 20.946159,1.0566375 L23.0175826,10.4959325 L25.2856604,1.0566375 C25.364322,0.774867501 25.456094,0.591717 25.5478659,0.507186 C25.6527481,0.422655 25.8231817,0.366301 26.0591667,0.366301 L27.2784223,0.366301 C27.4881868,0.366301 27.6061793,0.479009 27.6061793,0.718513501 C27.6061793,0.788956003 27.593069,0.859398501 27.5799587,0.943929501 C27.5668484,1.0284605 27.5406279,1.1411685 27.4881868,1.296142 L24.3286102,12.1865525 C24.2499486,12.4683225 24.1581766,12.651473 24.0532944,12.736004 C23.9484122,12.820535 23.7779786,12.876889 23.5551039,12.876889 L22.4276202,12.876889 C22.1785249,12.876889 22.0080913,12.8346235 21.9032091,12.736004 C21.7983269,12.6373845 21.706555,12.454234 21.6541139,12.172464 L19.6220211,3.08538151 L17.6030385,12.1583755 C17.5374872,12.4401455 17.4588255,12.623296 17.3539433,12.7219155 C17.2490611,12.820535 17.0655172,12.8628005 16.8295323,12.8628005 L15.7020485,12.8628005 Z M32.5487534,13.24319 C31.8670191,13.24319 31.1852845,13.158659 30.5297707,12.989597 C29.874257,12.820535 29.3629563,12.6373845 29.0220891,12.426057 C28.8123247,12.2992605 28.6681116,12.1583755 28.6156705,12.031579 C28.5632294,11.9047825 28.5370089,11.7638975 28.5370089,11.637101 L28.5370089,10.9185875 C28.5370089,10.622729 28.6418911,10.481844 28.8385452,10.481844 C28.9172069,10.481844 28.9958685,10.4959325 29.0745302,10.5241095 C29.1531919,10.5522865 29.2711843,10.6086405 29.4022871,10.6649945 C29.8480365,10.876322 30.3331167,11.045384 30.8444174,11.158092 C31.3688287,11.2708 31.8801292,11.327154 32.4045405,11.327154 C33.2304877,11.327154 33.8728914,11.1721805 34.3186405,10.8622335 C34.76439,10.5522865 35.0003751,10.1014545 35.0003751,9.52382601 C35.0003751,9.129348 34.8823824,8.80531252 34.6463976,8.53763102 C34.4104124,8.26994953 33.9646633,8.03044501 33.3222596,7.805029 L31.4212697,7.17104651 C30.4642193,6.84701102 29.7562645,6.36800202 29.3236255,5.7340195 C28.8909863,5.11412551 28.6681116,4.423789 28.6681116,3.69118701 C28.6681116,3.09947 28.7861041,2.5781955 29.0220891,2.1273635 C29.2580741,1.6765315 29.5727207,1.2820535 29.966029,0.972106501 C30.3593373,0.648071 30.8050868,0.408566501 31.3294977,0.2395045 C31.8539087,0.0704425003 32.4045405,0 32.9813925,0 C33.2698186,0 33.5713548,0.0140885 33.859781,0.056354 C34.1613172,0.0986195003 34.4366333,0.1549735 34.711949,0.2113275 C34.9741543,0.28177 35.2232499,0.352212501 35.4592347,0.436743501 C35.6952195,0.521274501 35.8787636,0.605805501 36.0098662,0.690336501 C36.1934103,0.803044501 36.3245128,0.915752501 36.4031746,1.042549 C36.4818361,1.155257 36.521167,1.3102305 36.521167,1.5074695 L36.521167,2.169629 C36.521167,2.4654875 36.4162847,2.620461 36.2196308,2.620461 C36.1147485,2.620461 35.9443151,2.564107 35.7214403,2.451399 C34.9741543,2.085098 34.1350967,1.9019475 33.2042672,1.9019475 C32.4569815,1.9019475 31.8670191,2.02874401 31.4606006,2.2964255 C31.054182,2.564107 30.8444174,2.97267351 30.8444174,3.55030199 C30.8444174,3.94478 30.9755202,4.28290402 31.2377258,4.55058551 C31.4999312,4.81826701 31.9850115,5.0859485 32.6798562,5.32545302 L34.5415153,5.95943551 C35.4854552,6.28347102 36.1671895,6.73430302 36.573608,7.31193152 C36.9800266,7.88956003 37.1766808,8.55171953 37.1766808,9.28432152 C37.1766808,9.890127 37.0586884,10.4395785 36.8358137,10.9185875 C36.5998288,11.3975965 36.2851822,11.8202515 35.8787636,12.1583755 C35.4723451,12.510588 34.9872647,12.764181 34.4235229,12.9473315 C33.8335605,13.1445705 33.2173776,13.24319 32.5487534,13.24319 Z" id="Shape" fill-rule="nonzero"></path>
                        <path d="M35.8433519,19.3373974 C31.5052084,22.3436832 25.2023738,23.9396127 19.782991,23.9396127 C12.1879436,23.9396127 5.34448943,21.3044733 0.17563772,16.9249459 C-0.233123513,16.5785426 0.136080181,16.1084238 0.623956491,16.3805978 C6.21475528,19.4239983 13.1109529,21.2673587 20.2444957,21.2673587 C25.0573295,21.2673587 30.3448539,20.3271211 35.210431,18.3971599 C35.9356527,18.0878712 36.5553875,18.8425356 35.8433519,19.3373974 Z" id="Shape"></path>
                        <path d="M37.6708141,17.0588894 C37.1014677,16.4147453 33.9022832,16.7487459 32.4518055,16.9038177 C32.0180175,16.951532 31.9502385,16.6175314 32.3433585,16.3670309 C34.8918614,14.7924564 39.0806245,15.245743 39.5686358,15.7706012 C40.0566467,16.3073879 39.433077,19.9933237 37.0472443,21.7587557 C36.6812358,22.0331134 36.3287834,21.8899703 36.4914537,21.5321124 C37.0336886,20.3511815 38.2401608,17.6911049 37.6708141,17.0588894 Z" id="Shape"></path>
                    </g>
                </g>
            </g>
        </g>
    </g>
</svg>