<?xml version="1.0" encoding="UTF-8"?>
<svg width="173px" height="73px" viewBox="0 0 173 73" version="1.1" xmlns="http://www.w3.org/2000/svg" xmlns:xlink="http://www.w3.org/1999/xlink">
    <!-- Generator: Sketch 53.2 (72643) - https://sketchapp.com -->
    <title>logo-python</title>
    <desc>Created with Sketch.</desc>
    <g id="logo-python" stroke="none" stroke-width="1" fill="none" fill-rule="evenodd">
        <g id="Group" transform="translate(20.000000, 20.000000)" fill="#D2DEFF" fill-rule="nonzero">
            <path d="M50.1472339,16.7586654 C50.1472339,12.5989306 48.9841128,10.4633764 46.6578705,10.3464354 C45.7322863,10.3018877 44.8285485,10.4522388 43.9493798,10.8002766 C43.2476851,11.056431 42.7753396,11.3098032 42.5268781,11.5659576 L42.5268781,21.4947498 C44.0149077,22.4469799 45.3363905,22.8896806 46.4885899,22.8200753 C48.9267755,22.6558015 50.1472339,20.6371883 50.1472339,16.7586654 Z M53.016812,16.9312918 C53.016812,19.0445707 52.5308135,20.798677 51.5533543,22.1936078 C50.4639517,23.7723026 48.9540786,24.5853164 47.0237349,24.629867 C45.5684679,24.6771998 44.0695166,24.212221 42.5268781,23.2377185 L42.5268781,32.2616155 L40.0313552,31.353936 L40.0313552,11.3237231 C40.4409039,10.8114142 40.9678584,10.3714958 41.6067562,9.99840042 C43.0920574,9.11577846 44.8968047,8.66193727 47.0210038,8.63966484 L47.0564975,8.67586004 C48.9977629,8.65079962 50.4939859,9.46381631 51.5451637,11.1121164 C52.5253512,12.6239882 53.016812,14.5618585 53.016812,16.9312918 Z M68.2684426,22.8534854 C68.2684426,25.6878976 67.9899497,27.6508246 67.4329638,28.7422681 C66.873244,29.8337116 65.8084162,30.705196 64.2357435,31.353936 C62.9606789,31.8662448 61.5818616,32.1446745 60.1020227,32.1920073 L59.6897428,30.588255 C61.1941536,30.3794334 62.2535248,30.170609 62.8678479,29.9617874 C64.0773846,29.5441443 64.9074067,28.9037568 65.3633709,28.0461924 C65.7292353,27.3473353 65.9094378,26.0136601 65.9094378,24.0395947 L65.9094378,23.3769348 C64.2029809,24.1676733 62.4146121,24.5602589 60.5443368,24.5602589 C59.3156878,24.5602589 58.2317447,24.1676733 57.2979726,23.3769348 C56.2495232,22.5165852 55.7252999,21.4251417 55.7252999,20.1026042 L55.7252999,9.51114916 L58.2208229,8.63966484 L58.2208229,19.3007251 C58.2208229,20.4395015 58.5812278,21.3165561 59.3020348,21.931886 C60.0228419,22.547213 60.9566167,22.8423478 62.1006254,22.8200753 C63.2446341,22.7950149 64.470552,22.3439589 65.7729197,21.4613398 L65.7729197,9.02389789 L68.2684426,9.02389789 L68.2684426,22.8534854 Z M78.0102663,24.4906507 C77.712661,24.5157083 77.4396276,24.5268459 77.1884377,24.5268459 C75.776855,24.5268459 74.6765307,24.1843783 73.8901957,23.496658 C73.1065891,22.8089377 72.7134244,21.8594927 72.7134244,20.6483259 L72.7134244,10.6248651 L71.0042364,10.6248651 L71.0042364,9.02389789 L72.7134244,9.02389789 L72.7134244,4.77227963 L75.2062163,3.86738238 L75.2062163,9.02389789 L78.0102663,9.02389789 L78.0102663,10.6248651 L75.2062163,10.6248651 L75.2062163,20.5787178 C75.2062163,21.5337302 75.4574061,22.2103128 75.9597886,22.6056835 C76.391181,22.9314461 77.0764943,23.1179952 78.0102663,23.1653281 L78.0102663,24.4906507 Z M93.1199194,24.2818292 L90.6243964,24.2818292 L90.6243964,14.4588402 C90.6243964,13.4592773 90.3950473,12.5989306 89.9390859,11.8805825 C89.4121315,11.0675687 88.6803998,10.6610603 87.7411683,10.6610603 C86.5971568,10.6610603 85.1664617,11.2763902 83.4490887,12.50705 L83.4490887,24.2818292 L80.9535629,24.2818292 L80.9535629,0.801876179 L83.4490887,1.687539e-13 L83.4490887,10.6944733 C85.0436021,9.51114916 86.7855499,8.91809454 88.6776687,8.91809454 C89.9991515,8.91809454 91.0694417,9.37193287 91.8885392,10.2768301 C92.7103706,11.1817245 93.1199194,12.3093633 93.1199194,13.6569612 L93.1199194,24.2818292 Z M106.383869,16.3577273 C106.383869,14.7595424 106.086267,13.4397871 105.493781,12.3956764 C104.789358,11.123254 103.694496,10.4522388 102.214655,10.3826306 C99.4788636,10.5441222 98.1136993,12.5432452 98.1136993,16.3744324 C98.1136993,18.1313238 98.3976517,19.598645 98.9710188,20.7764017 C99.7027504,22.2771358 100.800344,23.0177593 102.263801,22.9927017 C105.010514,22.9704264 106.383869,20.7596967 106.383869,16.3577273 Z M109.116935,16.3744324 C109.116935,18.6492029 108.546296,20.5425226 107.407747,22.0543944 C106.154526,23.747245 104.423494,24.5964541 102.214655,24.5964541 C100.02493,24.5964541 98.3184736,23.747245 97.0870934,22.0543944 C95.9703878,20.5425226 95.4133991,18.6492029 95.4133991,16.3744324 C95.4133991,14.2360959 96.0168033,12.4374419 97.2236087,10.972903 C98.4986761,9.41926572 100.175099,8.63966484 102.247417,8.63966484 C104.319741,8.63966484 106.007083,9.41926572 107.306725,10.972903 C108.513528,12.4374419 109.116935,14.2360959 109.116935,16.3744324 Z M123.423869,24.2818292 L120.928346,24.2818292 L120.928346,13.9019808 C120.928346,12.7632045 120.592515,11.8750151 119.920855,11.2346248 C119.249192,10.5970224 118.353645,10.2879649 117.236939,10.3130253 C116.051977,10.3353006 114.924347,10.7306685 113.85406,11.4963494 L113.85406,24.2818292 L111.358537,24.2818292 L111.358537,11.1817245 C112.794691,10.1153414 114.116171,9.41926572 115.322974,9.09350317 C116.461526,8.7900159 117.466288,8.63966484 118.331804,8.63966484 C118.924286,8.63966484 119.481272,8.69813533 120.005495,8.81507346 C120.985686,9.04617032 121.78294,9.47495109 122.397266,10.1042038 C123.082576,10.8002766 123.423869,11.6355657 123.423869,12.6128505 L123.423869,24.2818292 Z M15.3837188,0.895907728 C16.6676807,0.889823785 18.0063936,0.989323606 19.2966117,1.20834167 C21.334823,1.5547606 23.0519384,3.1139848 23.0519384,5.18964282 L23.0519384,12.4827437 C23.0519392,14.6213876 21.3848747,16.374778 19.2966117,16.374778 L11.794712,16.374778 C9.2476429,16.3747786 7.10274203,18.6046917 7.10274203,21.1327007 L7.10274203,24.6319608 L4.52040783,24.6319608 C2.33760341,24.6319603 1.06261593,23.0163316 0.528731851,20.7488532 C-0.19145475,17.7026467 -0.16086728,15.8821582 0.528731851,12.9647847 C1.12657034,10.4195991 3.03789687,9.0816771 5.22070185,9.0816771 L8.03938528,9.0816771 L15.5500387,9.0816771 L15.5500387,8.10866853 L8.03938528,8.10866853 L8.03938528,5.18964282 C8.03938556,2.97942497 8.61643708,1.78093598 11.794712,1.20834167 C12.873602,1.01365932 14.0997569,0.90199167 15.3837188,0.895907728 Z M11.3220135,3.24362568 C10.5434333,3.24362568 9.91267151,3.90024314 9.91267179,4.70760188 C9.91267179,5.51209893 10.5434333,6.1626511 11.3220135,6.16265139 C12.0978124,6.16265139 12.7313547,5.51209922 12.7313552,4.70760188 C12.7313552,3.90024286 12.0978124,3.24362568 11.3220135,3.24362568 Z M23.9885816,9.0816771 L26.8072662,9.0816771 C28.9928474,9.0816771 30.0231452,10.7488415 30.5625901,12.9647847 C31.3133669,16.0424837 31.3467317,18.3496788 30.5625901,20.7488532 C29.8034741,23.0793154 28.9900714,24.6319608 26.8072662,24.6319608 L23.0519384,24.6319608 L15.5500387,24.6319608 L15.5500387,25.6049694 L23.0519384,25.6049694 L23.0519384,28.5239943 C23.0519392,30.7342098 21.1874489,31.8577494 19.2966117,32.4160285 C16.4520137,33.2577449 14.1721628,33.1289093 11.794712,32.4160285 C9.80933304,31.8205316 8.03938528,30.5996526 8.03938528,28.5239943 L8.03938528,21.2308942 C8.03938556,19.132333 9.73981598,17.3388599 11.794712,17.3388599 L19.2966117,17.3388599 C21.7964106,17.3388596 23.9885816,15.1195448 23.9885816,12.4827437 L23.9885816,9.0816771 Z M19.7693101,27.5509866 C18.9935096,27.5509866 18.359969,28.2015396 18.3599684,29.0060352 C18.3599684,29.8133931 18.9935104,30.4700114 19.7693101,30.4700114 C20.54789,30.4700114 21.1786513,29.8133931 21.1786519,29.0060352 C21.1786519,28.2015396 20.5478909,27.5509874 19.7693101,27.5509866 Z M128.283509,6.75507185 L128.283509,3.95673777 L127.247037,3.95673777 L127.247037,3.62319115 L129.75751,3.62319115 L129.75751,3.95673777 L128.721038,3.95673777 L128.721038,6.75507185 L128.283509,6.75507185 Z M130.145456,6.75507185 L130.145456,3.62319115 L130.748647,3.62319115 L131.53661,6.30629731 L132.460524,3.62319115 L133,3.62319115 L133,6.75507185 L132.592208,6.75507185 L132.592208,4.20798179 L131.746768,6.75475078 L131.3306,6.75475078 L130.519264,4.19931791 L130.519264,6.75507185 L130.145456,6.75507185 Z" id="logo-python"></path>
        </g>
    </g>
</svg>