<?xml version="1.0" encoding="UTF-8"?>
<svg width="125px" height="73px" viewBox="0 0 125 73" version="1.1" xmlns="http://www.w3.org/2000/svg" xmlns:xlink="http://www.w3.org/1999/xlink">
    <!-- Generator: Sketch 53.2 (72643) - https://sketchapp.com -->
    <title>logo-java</title>
    <desc>Created with Sketch.</desc>
    <g id="logo-java" stroke="none" stroke-width="1" fill="none" fill-rule="evenodd">
        <path d="M73.1913431,40.6841855 L73.1799935,37.6626418 C72.6510191,37.6023311 71.4958334,37.7039724 70.9309702,37.7512723 C70.2240862,37.8109714 69.5506366,37.9574645 69.0305582,38.2720331 C67.9971478,38.904079 67.727523,40.6889307 68.6854742,41.644424 C69.675787,42.6328274 71.193387,42.1904417 72.2496487,41.5236477 C72.4790911,41.3783794 73.1799935,40.9813038 73.1913431,40.6841855 Z M66.0482726,31.4686236 C66.3958094,31.1635463 67.7448558,30.7923399 68.3133998,30.6559497 C70.854287,30.0442629 73.9301295,29.9378763 75.3445111,32.1854729 C75.8124447,32.9257426 75.8879031,33.7120881 75.8879031,34.7089112 C75.8879031,35.7384919 75.8879031,36.7651645 75.8879031,37.7948993 C75.8879031,38.3683168 75.9190351,43.5292332 75.8800791,43.9508015 L73.7922479,43.9508015 L73.5197087,42.5712918 C73.4316743,42.6214997 73.0464079,43.0149024 72.6060815,43.2876812 C72.2777159,43.4950975 71.915915,43.683992 71.5265078,43.8485478 C70.6044446,44.2382744 69.8681134,44.3662465 68.7538774,44.2318468 C66.7217198,43.9866212 65.6372382,43.0723051 65.3867846,41.0644233 C64.984187,37.8373006 67.5741526,36.4417179 70.1474006,36.1123004 C70.5170238,36.065613 73.0954863,35.9028944 73.1530007,35.8724324 L73.1632759,34.556908 C73.1206391,34.1509535 73.0373591,33.7622968 72.8839887,33.4334917 C72.5815423,32.7804751 72.0896838,32.4510577 71.2078038,32.3379353 C70.332979,32.2261911 69.4440446,32.3165055 68.6267334,32.4737131 C67.5772198,32.6806703 67.1583654,32.9257426 66.4616038,33.0950437 L66.048271,31.4686236 Z M98.2913264,40.8545581 L98.2985352,37.6566726 C96.812836,37.6626418 94.3073776,37.5910034 93.5172136,38.8944352 C92.7778144,40.1155124 93.3189056,42.4828147 95.6199216,42.1993197 C96.3958224,42.103036 97.1273992,41.7114706 97.715728,41.2880658 C97.9223176,41.1380523 98.1111168,40.9561994 98.2913264,40.8545581 Z M91.1614439,31.4686236 C91.5238584,31.1588003 92.8509728,30.7892778 93.4327064,30.6547256 C95.9159264,30.0759497 99.0750496,29.9263953 100.44342,32.1640431 C100.918408,32.9413565 101,33.6672372 101,34.7089112 L101,43.9495791 L98.89944,43.9471278 L98.6370232,42.5605765 C98.4603408,42.677066 98.2410216,42.9599485 97.7217088,43.2858448 C96.5287944,44.033921 95.3576584,44.4182916 93.8682784,44.2318468 C91.8414888,43.9800387 90.7576199,43.0963379 90.5001111,41.0728422 C90.2166823,38.8454514 91.3597519,37.5831961 92.7347176,36.8645103 C94.030544,36.1833273 95.266556,36.0703582 96.7606904,35.9765234 C97.02004,35.9592256 98.1500728,35.9508067 98.2667872,35.8652383 C98.4543592,35.6769563 98.2620328,34.0301771 97.9967024,33.4345633 C97.3453384,31.9780566 95.1203944,32.2016992 93.76644,32.4695803 C92.833488,32.6518922 91.981056,33.0100869 91.5934888,33.0884612 C91.4898104,32.9037004 91.1758607,31.7221157 91.1614439,31.4686236 Z M81.7124479,43.9765183 L81.7124479,43.9765382 C81.4050943,42.8756241 81.0072511,41.7281759 80.6687631,40.6171589 C80.3201519,39.4894566 79.9779823,38.4364556 79.6240039,37.289619 C79.4933319,36.8645302 77.5630127,30.8407313 77.5504359,30.5800451 L80.5081839,30.5872392 C80.6712167,30.9913564 80.8054159,31.4637458 80.9462095,31.90506 L82.1814551,35.8253058 C82.4630431,36.7077817 82.7087423,37.573573 82.9771407,38.4728868 L83.6918463,41.1757283 C83.9746615,40.8504445 85.3927239,35.8043343 85.5976271,35.0107947 C85.8761471,33.9238105 86.1187791,32.7703922 86.2698495,31.6168206 C86.4166247,30.5047321 86.1948511,30.5734658 86.7413095,30.5800451 L89.2437007,30.5818815 C89.2437007,30.9651805 88.5996983,33.6450616 88.4630455,34.2005697 C87.9064647,36.4542896 87.2529535,38.8119481 86.4446911,40.9724457 C86.2488375,41.4944305 86.0408671,42.0402948 85.8157191,42.5293688 C85.6970111,42.7877594 85.5976271,43.0227289 85.4712495,43.282191 C85.4065271,43.4113856 85.1711039,43.9502091 85.0602167,43.9769973 L81.7124479,43.9765183 Z M60.4412062,30.2971426 L60.4412062,25.7982749 C61.0103638,25.79705 62.9940558,25.7575567 63.331931,25.8180215 C63.3570806,30.3946511 63.333155,34.9761799 63.333155,39.5528094 C63.333155,41.7927528 63.4793166,43.7713976 62.5615486,45.6387572 C62.1018974,46.5757279 61.7196982,47.0314319 61.0985486,47.6167895 C60.6928838,48.0013134 59.613923,48.6726993 58.8794326,48.8025071 C58.6314326,48.4323722 57.697407,47.4768789 57.5710294,47.2143563 C59.7378462,46.5076098 60.443043,44.049994 60.443043,41.8937825 L60.441203,30.2971426 Z M36.7772261,32.2973712 C36.5401157,32.1311314 35.7869133,31.3262641 35.5467357,31.0625166 C35.1614693,30.6355906 34.7248237,30.2230544 34.3719181,29.7745453 C34.0369573,29.3512938 33.6648805,28.9780969 33.2467932,28.4369778 C32.8879068,27.9736206 32.5463508,27.5316932 32.2103164,27.0138412 C31.5051204,25.9279285 30.8522212,24.9108996 31.5106404,23.3573436 C31.9557212,22.3067915 33.031154,21.2299102 33.6667213,20.6277147 C34.6492117,19.7039082 36.5131221,18.10795 37.6520509,17.2230245 C39.0454205,16.1401736 40.2461573,15.0447704 40.9835621,13.2132305 C41.6205093,11.6357949 41.5694373,10.5696289 41.3490437,9 C42.0895157,9.40365828 42.2915045,11.6429894 42.2117525,12.6887963 C42.0637501,14.691933 41.2999653,16.0599624 40.0322061,17.2983374 C38.7848445,18.5097717 37.1828909,19.9820447 36.0134413,21.2113884 C35.8307773,21.4033441 35.6329293,21.5940758 35.4640685,21.7985833 C34.3467653,23.139212 33.080846,24.4074366 33.5941772,26.4529754 C33.8753053,27.5699625 34.4875597,28.694756 34.9973629,29.5802932 C35.2758837,30.0615607 35.5683605,30.5435931 35.8672797,30.9771007 L36.7772261,32.2973712 Z M50.2853229,45.7661153 C50.5069429,45.8593377 50.9394477,46.2014602 50.8879149,46.565625 C50.8454309,46.857998 50.4314845,47.1594024 50.2206005,47.302221 C46.6121021,49.7771338 36.7652629,49.817852 32.6734948,49.7627448 C29.9355268,49.7227924 24.7454727,49.5582373 22.2513635,48.7457159 C21.5858894,48.5286559 20.5859145,48.1363255 21.1826787,47.2908933 C22.1292807,45.9478156 26.4560127,45.2184137 27.8213158,45.4192483 C27.6446331,45.4910401 27.0736351,45.5525764 26.8375982,45.5945186 C26.0204407,45.7428482 24.8324338,46.0202198 24.1841371,46.4226531 C24.0008595,46.5362345 23.6455003,46.7880427 23.7073086,47.122817 C23.8007111,47.6544464 25.808943,47.9743726 26.2653732,48.0525936 C29.0841676,48.5459537 32.0245844,48.661984 34.9427629,48.6189703 C37.8048077,48.5776405 46.9703749,48.3402214 49.6807365,47.0738332 C50.2906909,46.7886551 50.7316301,46.4841894 50.2853229,45.7661153 Z M38.4774901,33.9602226 C38.7573909,33.4777303 39.6858957,32.512594 39.7722429,31.5480702 C39.9142637,29.9736959 37.9419205,28.7149618 37.2649437,26.6138567 C36.2638957,23.5081229 38.7112269,21.2622094 41.1987405,19.826521 C41.9235693,19.4096979 42.8802941,18.9350129 43.7101813,18.6228933 C44.3278037,18.3932814 45.8932549,17.767818 46.4844981,17.6900562 L45.3678077,18.4064456 C44.3876181,19.0204288 43.0187869,19.9629104 42.1824589,20.6528182 C41.4838565,21.2286862 40.8864789,21.7619987 40.3354189,22.4419569 C38.6873005,24.4845869 39.6601293,25.5392718 40.8775829,27.3815271 C41.2626965,27.9639768 41.8930485,29.1521432 41.8343077,30.064622 C41.7672845,31.0697107 40.9949117,31.9385633 40.5413957,32.408503 C40.1956989,32.7613409 38.9124485,33.8112806 38.4774901,33.9602226 Z M43.6712245,44.2347556 C43.3387181,44.5038607 40.1831221,45.2219349 39.4888141,45.3451602 C37.0499189,45.7780554 32.3661404,45.7661153 30.137362,44.6622932 C28.1567368,43.6792467 29.6071604,42.4982752 31.031358,42.2118723 C30.9239988,42.4003068 30.6490052,42.6418588 30.850994,42.9725003 C31.1684708,43.4981596 32.7399036,43.546531 33.2989388,43.5638288 C35.4718909,43.6296505 38.8279413,43.6230688 40.8973677,43.1142482 C41.4047173,42.9885732 41.2519605,42.969439 41.6479629,43.2056333 C42.3321477,43.6111287 42.9072869,43.945903 43.6712245,44.2347556 Z M44.3301037,39.5964364 C43.6543541,39.9708574 40.5222245,40.5788697 39.6392709,40.691992 C36.9575893,41.029216 31.518922,41.000438 28.9973599,40.1381679 C26.7615264,39.3711099 28.3634801,37.7644373 30.0338372,37.5580925 C29.899638,37.7632124 29.580934,37.9658835 29.6030196,38.341376 C29.6221908,38.6576285 29.9324588,38.8238675 30.2014708,38.9351534 C32.2779524,39.7896162 39.5308381,39.0816457 41.9672797,38.6763036 C42.6442565,38.5631813 42.5364373,38.4962872 42.8516133,38.7658523 C43.2128005,39.0816457 43.7413149,39.4487193 44.3301037,39.5964364 Z M46.0076693,34.1336557 C45.6374333,34.4260287 45.0905141,34.7052375 44.6728869,34.9708223 C44.0678405,35.3545804 43.8778149,35.3037594 42.9893405,35.4294343 C37.5417773,36.2018499 32.3906796,36.6127021 26.8819222,35.8467157 C25.9406882,35.7158372 23.4244936,35.3414162 24.9342717,34.4021492 C26.3300955,33.5314601 30.1907348,32.4288621 31.7262788,32.5729056 C30.6149572,32.9197733 29.414834,33.1236684 28.2867949,33.7275487 C27.997385,33.885522 27.5259244,34.1437594 27.5984687,34.5546116 C28.5803459,35.4687743 35.1608557,35.2517143 36.9054437,35.1494605 C39.1402037,35.0191937 41.6149877,34.7673855 43.8472941,34.4552658 C44.2187573,34.406282 44.5728893,34.3519406 44.9448125,34.2968334 C45.2653565,34.2454007 45.6901925,34.1468207 46.0076693,34.1336557 Z M26.9693433,50.6908374 L30.3579084,50.9747915 C36.1482541,51.3868685 47.3653037,51.7084787 52.2731565,48.3360877 C52.4593477,48.2111793 52.6312757,48.0305506 52.8301973,47.9402369 C52.7157829,48.7128051 51.5230213,49.51706 50.8615349,49.854284 C48.0787829,51.2642557 44.3278037,51.6259716 41.1651525,51.8496134 C38.7219629,52.0218232 36.0392077,52.0691231 33.5954036,51.8687484 C31.8567972,51.7282254 28.5073415,51.3354359 26.9693433,50.6908374 Z M47.1196045,32.8181312 C47.4107013,32.4204432 48.4580677,32.1640431 49.1037573,32.1377139 C49.9479077,32.1029658 50.6728893,32.3128318 51.2731813,32.66322 C52.3174805,33.2761308 53.2975174,34.571297 52.6236077,36.268284 C52.1515333,37.4636453 51.0072373,38.386227 49.9821093,39.0182729 C49.1787557,39.5133161 47.0674589,40.4652882 46.1771437,40.5591238 C46.3826597,40.407273 46.6114885,40.2949164 46.8481389,40.1459744 C48.2284725,39.2814079 49.8959149,38.0010907 50.6902205,36.5660147 C51.2839173,35.4897458 51.2744085,34.1007448 50.4512693,33.3682824 C49.6897853,32.6926096 48.3220285,32.4432511 47.1196045,32.8181312 Z" fill="#D2DEFF"></path>
    </g>
</svg>