<?xml version="1.0" encoding="UTF-8"?>
<svg width="121px" height="73px" viewBox="0 0 121 73" version="1.1" xmlns="http://www.w3.org/2000/svg" xmlns:xlink="http://www.w3.org/1999/xlink">
    <!-- Generator: Sketch 53.2 (72643) - https://sketchapp.com -->
    <title>logo-go</title>
    <desc>Created with Sketch.</desc>
    <g id="logo-go" stroke="none" stroke-width="1" fill="none" fill-rule="evenodd">
        <path d="M64.9308284,33.4702401 C65.4515796,31.7993547 66.2965085,30.2205095 67.4235292,28.7266003 C70.0536763,25.2236049 73.2242645,23.399128 77.5117645,22.6328478 C81.1867645,21.9760361 84.645588,22.3409315 87.7801468,24.4938141 C90.6264703,26.4642491 92.3919115,29.1279852 92.8602939,32.6309807 C93.4727939,37.5570681 92.0676468,41.5709171 88.7169115,45.0009335 C86.3389704,47.4457325 83.420588,48.978293 80.0698527,49.6715942 C79.0970586,49.8540419 78.1242645,49.8905314 77.1874998,50 C73.9088233,49.9270209 70.9183822,48.978293 68.3963234,46.7889208 C66.6225147,45.2360472 65.4006247,43.3274674 64.7934549,41.1055837 C64.3720911,41.9673621 63.8682683,42.7926901 63.2801469,43.5778416 C60.6860293,47.0443476 57.2992646,49.1972302 53.0117646,49.7810628 C49.4808822,50.2554268 46.2022058,49.5621256 43.3198529,47.3727534 C40.6536764,45.3293394 39.1404411,42.6291137 38.7441176,39.2720763 C38.2757352,35.2947169 39.4286764,31.7187423 41.8066176,28.5806422 C44.3647058,25.1871153 47.7514705,23.0342327 51.8948528,22.2679524 C55.2816175,21.6476303 58.5242646,22.0490152 61.4426469,24.0559397 C63.3522057,25.3330735 64.7213234,27.0845712 65.6220587,29.2009643 C65.8382351,29.5293701 65.6941175,29.7118178 65.2617645,29.8212864 C62.9919116,30.405119 61.4426469,30.8429934 59.2088234,31.426826 C58.6683822,31.5727842 58.6323528,31.6092737 58.1639705,31.0619307 C57.6235293,30.4416085 57.2272057,30.0402237 56.4705881,29.6753283 C54.2007352,28.5441527 52.0029411,28.8725585 49.9492646,30.2226713 C47.4992646,31.8282109 46.2382352,34.2000308 46.2742646,37.1556832 C46.310294,40.0748461 48.2919117,42.4831555 51.1382352,42.8845404 C53.5882352,43.2129463 55.6419116,42.3371974 57.2632352,40.476231 C57.5874999,40.0748461 57.8757352,39.6369717 58.2360293,39.1261182 C56.9389705,39.1261182 55.3176469,39.1261182 51.2823528,39.1261182 C50.5257352,39.1261182 50.3455881,38.6517542 50.597794,38.0314321 C51.0661764,36.9002565 51.9308822,35.0028006 52.435294,34.0540726 C52.5433822,33.8351354 52.7955881,33.4702401 53.3360293,33.4702401 L64.9308284,33.4702401 Z M24.5845588,30.4780981 C24.4404412,30.4780981 24.4044117,30.405119 24.4764706,30.2956504 L25.2330882,29.3104329 C25.305147,29.2009643 25.4852941,29.1279852 25.6294117,29.1279852 L38.4919117,29.1279852 C38.6360293,29.1279852 38.6720588,29.2374539 38.5999999,29.3469225 L37.9874999,30.2956504 C37.9154411,30.405119 37.7352941,30.5145876 37.6272058,30.5145876 L24.5845588,30.4780981 Z M19.1441176,33.8351354 C19,33.8351354 18.9639706,33.7621564 19.0360294,33.6526877 L19.7926471,32.6674703 C19.8647059,32.5580017 20.0448529,32.4850226 20.1889706,32.4850226 L36.6183823,32.4850226 C36.7624999,32.4850226 36.8345588,32.5944912 36.7985293,32.7039598 L36.5102941,33.5797087 C36.4742646,33.7256668 36.330147,33.7986459 36.1860294,33.7986459 L19.1441176,33.8351354 Z M27.8632353,37.1921728 C27.7191176,37.1921728 27.6830882,37.0827042 27.755147,36.9732355 L28.2595588,36.0609971 C28.3316176,35.9515285 28.4757353,35.8420599 28.6198529,35.8420599 L35.8257352,35.8420599 C35.9698529,35.8420599 36.0419117,35.9515285 36.0419117,36.0974867 L35.9698529,36.9732355 C35.9698529,37.1191937 35.8257352,37.2286623 35.717647,37.2286623 L27.8632353,37.1921728 Z M85.7624998,35.2582273 C85.7264704,34.7838634 85.7264704,34.418968 85.6544115,34.0540726 C85.0058821,30.4416085 81.7272057,28.3981945 78.3044116,29.2009643 C74.9536763,29.9672446 72.7919116,32.1201272 71.9992645,35.5501436 C71.3507351,38.3963275 72.7198528,41.2790008 75.3139704,42.446666 C77.295588,43.3224149 79.2772057,43.2129463 81.1867645,42.2277288 C84.033088,40.7316578 85.5823527,38.3963275 85.7624998,35.2582273 Z" fill="#D2DEFF" fill-rule="nonzero"></path>
    </g>
</svg>