<?xml version="1.0" encoding="UTF-8"?>
<svg width="159px" height="35px" viewBox="0 0 159 35" version="1.1" xmlns="http://www.w3.org/2000/svg" xmlns:xlink="http://www.w3.org/1999/xlink">
    <!-- Generator: Sketch 53.2 (72643) - https://sketchapp.com -->
    <title>logo-withtext</title>
    <desc>Created with Sketch.</desc>
    <g id="logo-withtext" stroke="none" stroke-width="1" fill="none" fill-rule="evenodd">
        <polygon id="Path" fill="#FFFFFF" fill-rule="nonzero" points="6.10619897e-18 0 0 14 7.0399681 21.0872147 7.0399681 35 21.0944258 21.0872147 21.0944258 12 26 12 21 7 14 14"></polygon>
        <path d="M41.650012,26.5488308 C44.6382979,26.5488308 46.6105666,24.127923 46.6105666,21.0715268 C46.6105666,18.0151307 44.6382979,15.5942228 41.650012,15.5942228 C38.6916089,15.5942228 36.6894573,18.0151307 36.6894573,21.0715268 C36.6894573,24.127923 38.6916089,26.5488308 41.650012,26.5488308 Z M41.4408319,29 C36.8687545,29 34,25.4896836 34,21.0715268 C34,16.65337 37.0181688,13.1430536 41.4408319,13.1430536 C44.0107578,13.1430536 45.6543151,14.5048143 46.4013866,15.4429161 L46.4013866,7 L49.060961,7 L49.060961,28.6368638 L46.8197466,28.6368638 L46.4611523,26.4883081 C45.6244322,27.6685007 43.771695,29 41.4408319,29 Z M61.1037533,26.5488308 C64.0621563,26.5488308 66.0643079,24.127923 66.0643079,21.0715268 C66.0643079,18.0151307 64.0621563,15.5942228 61.1037533,15.5942228 C58.1154674,15.5942228 56.1431987,18.0151307 56.1431987,21.0715268 C56.1431987,24.127923 58.1154674,26.5488308 61.1037533,26.5488308 Z M60.8348076,29 C56.292613,29 53.4238585,25.4896836 53.4238585,21.0715268 C53.4238585,16.65337 56.4719101,13.1430536 60.8348076,13.1430536 C63.4047334,13.1430536 65.1080564,14.4140303 65.8551279,15.4126547 L66.2436051,13.5061898 L68.5147024,13.5061898 L68.5147024,28.6368638 L66.2436051,28.6368638 L65.8551279,26.6093535 C65.0184078,27.8500688 63.076022,29 60.8348076,29 Z M77.6289744,29 C74.8199857,29 73.056897,27.3658872 72.2201769,24.9752407 L74.4613913,24.0371389 C74.9395171,25.6409904 76.0451829,26.6093535 77.7783887,26.6093535 C79.3024145,26.6093535 80.3184317,25.610729 80.3184317,24.3700138 C80.3184317,23.0990371 79.5713603,22.4332875 77.8381544,21.7372765 L75.9256514,20.9504814 C74.3717428,20.3452545 73.2959598,18.9229711 73.2959598,17.0770289 C73.2959598,14.8982118 75.1486971,13.1430536 77.5692087,13.1430536 C79.6610088,13.1430536 81.0655032,14.2022008 81.9022233,15.957359 L79.7805403,17.1980743 C79.3322974,16.1086657 78.5553431,15.5337001 77.5692087,15.5337001 C76.6129572,15.5337001 75.8360029,16.2599725 75.8360029,17.1678129 C75.8360029,18.2572215 76.7026058,18.7111417 77.5692087,19.0742779 L79.7506574,19.9518569 C81.543629,20.7083906 82.8584748,22.130674 82.8584748,24.3397524 C82.8584748,26.9724897 80.8264404,29 77.6289744,29 Z M86.8926608,28.6368638 L86.8926608,7 L89.5522352,7 L89.5522352,15.3823934 C90.4188382,14.0508941 92.1221611,13.1430536 94.0944298,13.1430536 C97.9493187,13.1430536 99.7721731,15.6547455 99.7721731,19.5281981 L99.7721731,28.6368638 L97.0827158,28.6368638 L97.0827158,19.7702889 C97.0827158,17.0770289 95.5885728,15.5942228 93.5266555,15.5942228 C91.4946211,15.5942228 89.5522352,17.3796424 89.5522352,21.4649243 L89.5522352,28.6368638 L86.8926608,28.6368638 Z M112.711451,29 C110.141525,29 108.378437,27.5777166 107.661248,26.5790922 L107.332536,28.6368638 L105.091322,28.6368638 L105.091322,7 L107.750896,7 L107.750896,15.5942228 C108.707148,14.3837689 110.559885,13.1430536 112.771217,13.1430536 C117.432943,13.1430536 120.152283,16.65337 120.152283,21.0715268 C120.152283,25.4896836 117.074349,29 112.711451,29 Z M112.472388,26.5488308 C115.400908,26.5488308 117.462826,24.127923 117.462826,21.0715268 C117.462826,18.0151307 115.550323,15.5942228 112.562037,15.5942228 C109.603634,15.5942228 107.511834,18.0151307 107.511834,21.0715268 C107.511834,24.127923 109.513985,26.5488308 112.472388,26.5488308 Z M124.306,10.4195323 L124.306,7.45392022 L127.294286,7.45392022 L127.294286,10.4195323 L124.306,10.4195323 Z M124.485298,28.6368638 L124.485298,13.5061898 L127.144872,13.5061898 L127.144872,28.6368638 L124.485298,28.6368638 Z M132.703084,28.6368638 L132.703084,13.5061898 L134.944298,13.5061898 L135.332776,15.5337001 C136.139613,14.0508941 137.454459,13.1430536 139.396844,13.1430536 C140.323213,13.1430536 141.279464,13.4456671 141.817356,13.7482806 L140.950753,16.4112792 C140.353096,16.0784044 139.546259,15.8968363 138.82907,15.8968363 C136.886684,15.8968363 135.362658,17.4704264 135.362658,20.738652 L135.362658,28.6368638 L132.703084,28.6368638 Z M151.589051,26.5488308 C154.577337,26.5488308 156.549606,24.127923 156.549606,21.0715268 C156.549606,18.0151307 154.577337,15.5942228 151.589051,15.5942228 C148.630648,15.5942228 146.628496,18.0151307 146.628496,21.0715268 C146.628496,24.127923 148.630648,26.5488308 151.589051,26.5488308 Z M151.379871,29 C146.807793,29 143.939039,25.4896836 143.939039,21.0715268 C143.939039,16.65337 146.957208,13.1430536 151.379871,13.1430536 C153.949797,13.1430536 155.593354,14.5048143 156.340426,15.4429161 L156.340426,7 L159,7 L159,28.6368638 L156.758786,28.6368638 L156.400191,26.4883081 C155.563471,27.6685007 153.710734,29 151.379871,29 Z" id="dashbird" fill="#FFFFFF" fill-rule="nonzero"></path>
    </g>
</svg>