<?xml version="1.0" encoding="UTF-8"?>
<svg width="160px" height="73px" viewBox="0 0 160 73" version="1.1" xmlns="http://www.w3.org/2000/svg" xmlns:xlink="http://www.w3.org/1999/xlink">
    <!-- Generator: Sketch 53.2 (72643) - https://sketchapp.com -->
    <title>logo-node</title>
    <desc>Created with Sketch.</desc>
    <g id="logo-node" stroke="none" stroke-width="1" fill="none" fill-rule="evenodd">
        <path d="M82.0525674,17.0000429 L82.0525674,17.0000666 C82.1267054,16.9992332 82.2009177,17.0058019 82.2678587,17.0434104 L86.530634,19.4431192 C86.8044851,19.5971638 86.975571,19.8935107 86.975571,20.2092919 L86.975571,40.9682216 C86.975571,41.2792687 86.8125223,41.5640885 86.5449865,41.7199366 L79.3829504,45.8832876 C79.1151846,46.0389041 78.7895489,46.0389041 78.5217831,45.8832876 L71.3597471,41.7199366 C71.0922112,41.5640885 70.9291625,41.2792687 70.9291625,40.9682216 L70.9291625,32.6415197 C70.9291625,32.3302392 71.0919813,32.0309416 71.3597471,31.8753707 L78.5217831,27.7120197 C78.7891488,27.5568664 79.1156445,27.5567734 79.3829504,27.7120197 L81.1770476,28.7528584 C81.2708015,28.8074903 81.38493,28.8074903 81.4784558,28.7528584 C81.5717463,28.6983632 81.6219828,28.6012647 81.6219828,28.4926027 L81.6219828,17.4337246 C81.6219828,17.2794503 81.7051702,17.1359845 81.837276,17.0578662 C81.9034402,17.018777 81.9784293,17.0009547 82.0525674,17.0000429 Z M35.9801458,27.3939408 L35.9800987,27.3939408 L36.0662156,27.3939408 C36.2037188,27.399583 36.3326036,27.4235454 36.4537408,27.4951552 L43.6157624,31.6585061 C43.8844462,31.8138911 44.0463452,32.0969073 44.0463452,32.410223 L44.0320234,43.5847476 C44.0320234,43.7401799 43.9486079,43.8845083 43.816732,43.9606516 C43.6844017,44.0408196 43.5195732,44.0408196 43.3861493,43.9606516 L39.1377266,41.5030721 C38.8703646,41.3438484 38.6927895,41.0619427 38.6927895,40.751357 L38.6927895,35.5327353 C38.6927895,35.2214548 38.5302025,34.9357578 38.2622068,34.7810184 L36.4537571,33.7257495 C36.322515,33.6471078 36.1707806,33.6100993 36.0231726,33.6100993 C35.8724721,33.6100993 35.7275654,33.6471534 35.5925898,33.7257495 L33.7841402,34.7810184 C33.5161354,34.9357578 33.3535556,35.2214548 33.3535556,35.5327353 L33.3535556,40.751357 C33.3535556,41.0619427 33.1777368,41.342043 32.9086204,41.5030721 L28.6601977,43.9606516 C28.5276609,44.0408196 28.3626007,44.0408196 28.2296149,43.9606516 C28.093935,43.8845083 28.0143217,43.7401799 28.0143217,43.5847476 L28,32.410223 C28,32.0969073 28.1637132,31.8138911 28.4305827,31.6585061 L35.5926206,27.4951552 C35.7152498,27.4235454 35.843566,27.3994846 35.9801458,27.3939408 Z M100.338008,27.4951552 L100.338008,27.4950093 C100.487635,27.4951953 100.634533,27.532388 100.768591,27.6106576 L107.88757,31.7740086 C108.154531,31.9298567 108.318152,32.2153695 108.318152,32.5257255 L108.318152,34.5351437 C108.318152,34.8454505 108.153957,35.1310107 107.88757,35.2868588 L103.596089,37.8021704 C103.462321,37.8803945 103.299847,37.8800717 103.165505,37.8021704 C103.031737,37.7245007 102.950213,37.5821601 102.950213,37.4263594 L102.950213,35.3735499 C102.950213,35.217979 102.86869,35.0754068 102.734922,34.9977371 L100.495888,33.6966445 C100.36212,33.6190205 100.198499,33.6190205 100.065305,33.6966445 L97.8262708,34.9977371 C97.6925029,35.0754068 97.5966269,35.217979 97.5966269,35.3735499 L97.5966269,37.9756438 C97.5966269,38.131492 97.691355,38.2884963 97.8262708,38.36598 L105.031366,42.5293309 C105.166282,42.6074638 105.247563,42.748185 105.246658,42.9051894 C105.246084,43.0621481 105.153651,43.2047185 105.017014,43.2810478 L100.711179,45.6952362 C100.447089,45.8430878 100.126735,45.8318014 99.8643662,45.6809025 L92.7597402,41.6042883 C92.4899085,41.4495507 92.3148049,41.1656555 92.3148049,40.8525714 L92.3148049,32.5258713 C92.3148049,32.2145908 92.4778518,31.929771 92.7453877,31.7741544 L99.9074237,27.6108035 C100.041766,27.5330882 100.188381,27.4949728 100.338008,27.4951552 Z M78.9236608,33.71127 L78.9236608,33.7115016 C78.8863157,33.7115016 78.8567198,33.7207528 78.8231914,33.7401816 L76.3688658,35.1711248 C76.3022688,35.2101684 76.2540439,35.2815466 76.2540439,35.3590303 L76.2540439,38.2213343 C76.2540439,38.2990496 76.3020389,38.3704296 76.3688658,38.4092872 L78.8231914,39.8404146 C78.8900183,39.8788109 78.9716558,39.8788109 79.0384828,39.8404146 L81.4928084,38.4092872 C81.5598652,38.3706594 81.6076303,38.2990496 81.6076303,38.2213343 L81.6076303,35.3590303 C81.6076303,35.2815466 81.5594053,35.2099824 81.4928084,35.1711248 L79.0384828,33.73995 C79.0049543,33.7205157 78.9610005,33.71127 78.9236608,33.71127 Z M121.795413,27.2927701 C122.043719,27.2927701 122.286852,27.3444879 122.498699,27.4662435 L129.258858,31.398296 C129.696331,31.653048 129.962144,32.1315087 129.962144,32.6415197 L129.962144,40.4911925 C129.962144,41.0009263 129.696331,41.4780922 129.258858,41.7343706 L122.498699,45.6519909 C122.282834,45.777815 122.045725,45.8398964 121.795413,45.8398964 C121.548545,45.8398964 121.307993,45.777815 121.092127,45.6519909 L118.824388,44.3075984 C118.487958,44.1177963 118.656174,44.0573343 118.766976,44.0184767 C119.216505,43.8614249 119.306641,43.8295992 119.786023,43.5558815 C119.835972,43.5276629 119.906586,43.5253505 119.958257,43.5558815 L121.694944,44.5967202 C121.758095,44.6314145 121.837897,44.6314145 121.895883,44.5967202 L128.656041,40.6790998 C128.719171,40.6429703 128.75651,40.5661796 128.75651,40.4911925 L128.75651,32.6415197 C128.75651,32.564729 128.70599,32.4924718 128.641689,32.4536142 L121.895883,28.5359938 C121.833303,28.4994485 121.758095,28.4994485 121.694944,28.5359938 L114.949138,32.4536142 C114.883689,32.4913156 114.834314,32.5669957 114.834314,32.6415197 L114.834314,40.4911925 C114.834314,40.5661796 114.884263,40.629047 114.949138,40.6646659 L116.786293,41.7488483 C117.789839,42.2541416 118.408156,41.6528604 118.408156,41.0549564 L118.408156,33.3064999 C118.408156,33.196957 118.500588,33.1185469 118.609097,33.1185469 L119.45591,33.1185469 C119.562694,33.1185469 119.656848,33.196957 119.656848,33.3064999 L119.656848,41.0549564 C119.656848,42.4038825 118.931747,43.1799775 117.661812,43.1799775 C117.271418,43.1799775 116.955081,43.1865461 116.097359,42.7607753 L114.331967,41.7343706 C113.894495,41.4798957 113.628681,41.0009263 113.628681,40.4911925 L113.628681,32.6415197 C113.628681,32.1315087 113.894495,31.651983 114.331967,31.398296 L121.092127,27.4662435 C121.305697,27.3444879 121.547108,27.2927701 121.795413,27.2927701 Z M57.4949609,27.451764 C57.6442021,27.451764 57.7918916,27.4896971 57.9255454,27.5674124 L65.0875815,31.7163312 C65.3553473,31.8717617 65.518166,32.1710155 65.518166,32.4824802 L65.518166,40.8091803 C65.518166,41.1205538 65.3548874,41.405142 65.0875815,41.5608972 L57.9255454,45.7242481 C57.6577796,45.8800033 57.3321439,45.8800033 57.0643781,45.7242481 L49.9023421,41.5608972 C49.6347501,41.405142 49.4717575,41.1205538 49.4717575,40.8091803 L49.4717575,32.4824802 C49.4717575,32.1714769 49.6345763,31.8717617 49.9023421,31.7163312 L57.0643781,27.5674124 C57.198032,27.4896971 57.3457197,27.451764 57.4949609,27.451764 Z M131.828005,27.4952482 L133.19152,27.4952482 L133.19152,27.6976332 L132.617408,27.6976332 L132.617408,29.1865857 L132.387764,29.1865857 L132.387764,27.6976332 L131.828005,27.6976332 L131.828005,27.4952482 Z M133.392458,27.4952482 L133.392489,27.4951096 L133.722602,27.4951096 L134.196245,28.9262844 L134.684239,27.4951096 L135,27.4951096 L135,29.1864471 L134.784709,29.1864471 L134.784709,28.1890014 C134.784709,28.1540299 134.783803,28.094631 134.784709,28.015528 C134.786954,27.9342512 134.79903,27.8463583 134.79903,27.7553197 L134.311036,29.1864471 L134.081392,29.1864471 L133.60775,27.7553197 L133.60775,27.798802 C133.60775,27.8406212 133.604998,27.9154223 133.60775,28.0012345 C133.609578,28.0854728 133.60775,28.1484314 133.60775,28.18914 L133.60775,29.1865857 L133.392458,29.1865857 L133.392458,27.4952482 Z M123.603863,32.901821 C125.767113,32.901821 126.841276,33.6648242 126.976766,35.2870977 C126.981933,35.3430718 126.956098,35.3899789 126.919356,35.4316121 C126.882038,35.4706083 126.829793,35.5039149 126.775827,35.5039149 L125.900307,35.5039149 C125.809599,35.5039149 125.732093,35.4334631 125.713721,35.3449228 C125.503597,34.4029406 124.990915,34.1016535 123.603863,34.1016535 C122.050892,34.1016535 121.88153,34.6475606 121.88153,35.0558011 C121.88153,35.5503606 122.081319,35.6871027 124.177974,35.96651 C126.252812,36.2428172 127.249469,36.6370869 127.249469,38.1060106 C127.249469,39.587747 126.015705,40.4334622 123.876566,40.4334622 C120.921615,40.4334622 120.302724,39.0783833 120.302724,37.9325372 C120.302724,37.8236417 120.395731,37.7301521 120.503663,37.7301521 L121.379183,37.7301521 C121.476781,37.7301521 121.550287,37.8076358 121.565768,37.9036255 C121.69724,38.7987918 122.089932,39.2480162 123.876566,39.2480162 C125.298639,39.2480162 125.900307,38.923923 125.900307,38.1638338 C125.900307,37.7256186 125.728075,37.3987498 123.517746,37.1808203 C121.670257,36.9967079 120.532368,36.5877289 120.532368,35.0991448 C120.532368,33.7269512 121.678868,32.901821 123.603863,32.901821 Z M100.323656,34.8823276 C100.352292,34.8823276 100.369882,34.8813976 100.395418,34.8966613 L101.773285,35.7062014 C101.824405,35.735992 101.859402,35.7909012 101.859402,35.8507614 L101.859402,37.4409301 C101.859402,37.5007903 101.824382,37.5558854 101.773285,37.5854919 L100.395418,38.3805525 C100.344324,38.4106203 100.289208,38.4106203 100.237539,38.3805525 L98.8596719,37.5854919 C98.8080014,37.5556538 98.773555,37.5007903 98.773555,37.4409301 L98.773555,35.8507614 C98.773555,35.7909012 98.8080014,35.7358079 98.8596719,35.7062014 L100.237539,34.8966613 C100.263374,34.8823276 100.295041,34.8823276 100.323656,34.8823276 Z" fill="#D2DEFF"></path>
    </g>
</svg>