<?xml version="1.0" encoding="UTF-8"?>
<svg width="80px" height="73px" viewBox="0 0 80 73" version="1.1" xmlns="http://www.w3.org/2000/svg" xmlns:xlink="http://www.w3.org/1999/xlink">
    <!-- Generator: Sketch 53.2 (72643) - https://sketchapp.com -->
    <title>logo-c</title>
    <desc>Created with Sketch.</desc>
    <g id="logo-c" stroke="none" stroke-width="1" fill="none" fill-rule="evenodd">
        <path d="M39.7899598,18.0084579 L39.7898411,18.0088424 C40.652301,17.9638663 41.0007329,18.0737693 42.1761567,18.7296126 C42.701256,19.0225337 43.8103702,19.6398205 44.6397346,20.1035737 C45.469099,20.5673654 46.2760042,21.0104373 46.4313989,21.0946233 C46.5867935,21.1788092 47.0515934,21.4457441 47.4662558,21.6802347 C47.8809182,21.9148022 48.3048331,22.1485239 48.4084295,22.2058012 C49.039814,22.5559994 52.1176554,24.2816964 52.7486445,24.6384297 C53.1633464,24.8728818 53.6281068,25.1312059 53.7835014,25.2165451 C55.5332922,26.1761113 55.7397732,26.309771 56.1312253,26.733161 C56.4973714,27.1290273 56.7739975,27.6696242 56.8957826,28.242281 C57.0397104,28.9184596 57.0321977,44.0306865 56.8878745,44.6998689 C56.7554134,45.3150799 56.5044492,45.8179277 56.1078963,46.2390113 C55.8326937,46.5311635 55.1892888,47.0123306 55.0730394,47.0123306 C55.0572232,47.0123306 54.8919434,47.1026671 54.7100566,47.2149151 C54.5277744,47.327163 54.2283728,47.4966882 54.0381825,47.5977882 C53.8479921,47.6988883 53.4515579,47.9253447 53.1577712,48.0933322 C52.864024,48.2618579 52.4945565,48.4675177 52.3391619,48.5513192 C51.9504776,48.7611691 51.6694625,48.9141646 51.2965945,49.1294347 C51.121825,49.2301503 50.8557562,49.3827614 50.7019432,49.4673318 C50.4223911,49.6210961 49.3344311,50.2284652 48.9797518,50.4283588 C48.4819751,50.7085943 46.2405363,51.9586598 45.991035,52.0951256 C45.8356404,52.1800804 45.1280216,52.5778687 44.4156184,52.9810772 C43.7032152,53.3843242 42.9645965,53.7963357 42.7783602,53.8970513 C42.2071565,54.2062714 41.6319197,54.5322517 41.5658869,54.5803031 C41.4290763,54.6798655 40.7910885,54.8878317 40.4383863,54.9481842 C39.9862789,55.024682 39.8417975,55.018147 39.3958189,54.9174314 C38.7633273,54.7755838 38.6273076,54.7108874 37.0094638,53.798719 C36.2664957,53.3797497 35.5276398,52.9748498 35.3722452,52.8902794 C35.2168506,52.8057475 34.8553308,52.603163 34.5690567,52.4397884 C34.2827036,52.2764138 34.0403197,52.1395635 34.0284575,52.1395635 C34.0165953,52.1395635 33.8231626,52.036157 33.6037122,51.906995 C33.3842618,51.7779483 33.0795223,51.6018881 32.9241277,51.5165489 C32.5178083,51.2932062 30.9766339,50.4350091 30.7540202,50.3077691 C30.6504238,50.2485699 30.2887063,50.0427563 29.9431213,49.8497821 C29.5975364,49.6566541 29.2281084,49.4509943 29.124512,49.391795 C28.8758015,49.2499475 27.7528481,48.6275863 27.3946102,48.430768 C27.2392156,48.3455826 26.9344365,48.1695224 26.7149861,48.0403604 C26.4954566,47.9111984 26.302103,47.8001036 26.2902408,47.8001036 C26.2783787,47.8001036 25.9510219,47.6205069 25.5643147,47.4021616 C25.1780425,47.18397 24.8542049,47.0117539 24.8383886,47.0117539 C24.8225724,47.0117539 24.6458258,46.8968151 24.4445641,46.7641934 C23.8469077,46.3696341 23.4729722,45.8916193 23.1779992,45.142441 C23.0040996,44.700753 23.0004618,44.2133201 23.0004618,36.4481448 C23.0004618,27.6372953 22.9708064,28.1451788 23.3867736,27.3409145 C23.6121551,26.903455 24.2064505,26.2910117 24.6069574,26.0795858 C24.7421863,26.0080854 25.4004584,25.6398583 26.0743096,25.2612136 C26.7481607,24.882569 27.3839737,24.5301411 27.4875702,24.4728639 C27.5911666,24.4155867 28.2405816,24.0485128 28.931712,23.6619877 C32.5468312,21.6402944 33.6047007,21.0536451 33.8047762,20.944088 C33.9257705,20.877854 34.2601259,20.684111 34.5539127,20.5161234 C34.8476994,20.3479821 35.2171274,20.1419379 35.372522,20.0581364 C35.5279166,19.9743348 36.294016,19.5538278 37.0715426,19.1196358 C38.8853496,18.1068671 39.0155173,18.0488211 39.7899598,18.0084579 Z M39.258613,25.548061 L39.258613,25.5557492 C37.7661526,25.6572336 36.3029126,26.0241153 35.0265416,26.6594311 C30.5909547,28.8672945 28.1632402,33.3911947 28.8714916,38.131672 C29.0917328,39.6053877 29.7005001,41.1758596 30.5241311,42.3962487 C30.6858522,42.6357366 30.8325479,42.8463553 30.8483641,42.8617317 C30.8641804,42.8771081 31.0096898,43.0577812 31.1650844,43.2596738 C31.5537687,43.763867 32.5368274,44.7211268 33.1421151,45.1817278 C34.8456038,46.4779611 37.0854609,47.3102105 39.3049151,47.471663 C39.7792838,47.50626 41.2554535,47.4447543 41.7530326,47.3740227 C41.9950211,47.3394257 42.288452,47.2921432 42.4094463,47.2613903 C42.5304406,47.2306375 42.7696613,47.1737447 42.9423351,47.1337659 C44.9636118,46.667245 47.0502885,45.4355543 48.5567859,43.8152243 C48.9600606,43.3814936 49.4999086,42.6891697 49.7229177,42.3136003 L49.8850342,42.0356713 L47.5450207,40.7217552 C46.2599508,40.000908 45.165348,39.4005352 45.1123635,39.392847 C45.0562159,39.3851588 44.9237548,39.5158584 44.7956432,39.70076 C44.1738671,40.5984362 43.08824,41.3944741 42.0000033,41.7504385 C41.2099818,42.0087626 41.0026704,42.0360557 40.084735,42.0356713 C39.0692925,42.0350178 38.5141819,41.924961 37.7138403,41.5701498 C37.1160258,41.3052908 36.728765,41.0471589 36.1384237,40.5115209 C35.1177618,39.5854368 34.491913,38.2886269 34.3930615,36.8926775 C34.2028711,34.2084521 35.9708901,31.8411735 38.6869348,31.1265153 C39.3468281,30.9519928 40.792947,30.9300814 41.405352,31.0880742 C41.9505379,31.2303062 42.5605705,31.4644124 42.9653478,31.6887161 C43.6468303,32.0662076 44.4904688,32.8382967 44.8574057,33.4155664 C44.9333236,33.5347337 45.0333614,33.6262235 45.0736928,33.6258391 C45.1140242,33.6254547 45.2872121,33.5481881 45.4600046,33.4532386 C45.7976815,33.2671838 46.9115801,32.6461297 47.2207877,32.4696851 C47.3243841,32.4104859 47.6861016,32.2048261 48.0316866,32.0116981 C48.3772715,31.8187239 48.7737057,31.5957272 48.9120978,31.5161541 C49.05049,31.4365811 49.3310306,31.28397 49.5299199,31.178257 C49.7288092,31.0725441 49.8849946,30.9683687 49.8849946,30.9453041 C49.8849946,30.9222394 49.7319725,30.6727568 49.5374326,30.3897151 C48.1562395,28.3825141 46.0448103,26.8191153 43.6912739,26.0650935 C42.2788832,25.6127573 40.7508757,25.445577 39.2584153,25.5470615 L39.258613,25.548061 Z M49.8233508,33.8218886 L49.8233508,34.5201324 L49.1051351,34.5201324 L49.1051351,35.924116 L49.8233508,35.924116 L49.8233508,37.3206421 L49.1051351,37.3206421 L49.1051351,38.7246257 L49.8233508,38.7246257 L49.8233508,39.4228695 L51.2675322,39.4228695 L51.2675322,38.7246257 L52.7039636,38.7246257 L52.7039636,39.4228695 L54.1481054,39.4228695 L54.1481054,38.7246257 L54.8663606,38.7246257 L54.8663606,37.3206421 L54.1481054,37.3206421 L54.1481054,35.924116 L54.8663606,35.924116 L54.8663606,34.5201324 L54.1481054,34.5201324 L54.1481054,33.8218886 L52.7039636,33.8218886 L52.7039636,34.5201324 L51.2675322,34.5201324 L51.2675322,33.8218886 L49.8233508,33.8218886 Z M51.2675322,35.924116 L52.7039636,35.924116 L52.7039636,37.3206421 L51.2675322,37.3206421 L51.2675322,35.924116 Z" fill="#D2DEFF"></path>
    </g>
</svg>