<?xml version="1.0" encoding="UTF-8"?>
<svg width="23px" height="21px" viewBox="0 0 23 21" version="1.1" xmlns="http://www.w3.org/2000/svg" xmlns:xlink="http://www.w3.org/1999/xlink">
    <!-- Generator: Sketch 53.2 (72643) - https://sketchapp.com -->
    <title>Path</title>
    <desc>Created with Sketch.</desc>
    <g id="Working" stroke="none" stroke-width="1" fill="none" fill-rule="evenodd">
        <g id="Hero@2x" transform="translate(-1117.000000, -3468.000000)" fill="#FFFFFF" fill-rule="nonzero">
            <path d="M1134.74736,3468.82114 C1136.46406,3469.25255 1137.99786,3470.51902 1138.62986,3471.67882 L1138.63465,3471.6876 C1140.0053,3474.24775 1139.31762,3478.0697 1137.28726,3480.04782 L1128.50101,3488.91837 L1127.54187,3487.95003 L1119.73242,3480.06531 C1117.68282,3478.07085 1116.99412,3474.24732 1118.36955,3471.67969 C1119.00914,3470.50391 1120.46981,3469.25546 1122.16251,3468.82253 C1124.22958,3468.29385 1126.39105,3468.95155 1128.4799,3470.91218 C1130.49937,3468.95301 1132.65381,3468.29502 1134.74736,3468.82114 Z M1134.0893,3471.43972 C1132.71748,3471.09497 1131.22282,3471.68937 1129.54548,3473.74286 L1128.52527,3474.99184 L1127.47528,3473.7678 C1125.69771,3471.69557 1124.17246,3471.09537 1122.83153,3471.43833 C1121.91352,3471.67312 1121.04114,3472.41875 1120.74547,3472.96224 C1119.9558,3474.43643 1120.40983,3476.95713 1121.63306,3478.14777 L1128.50103,3485.08165 L1135.38597,3478.13091 C1136.58832,3476.95933 1137.04232,3474.4462 1136.25866,3472.9701 C1135.97347,3472.4475 1135.04292,3471.67937 1134.0893,3471.43972 Z" id="Path"></path>
        </g>
    </g>
</svg>