<svg xmlns="http://www.w3.org/2000/svg" xmlns:xlink="http://www.w3.org/1999/xlink" viewBox="0 0 420 300"><defs><style>.a,.d,.e,.f,.j{fill:none;}.b{clip-path:url(#a);}.c{fill:#0d0d0d;}.d,.e{stroke:#fff;}.d,.e,.f,.j{stroke-miterlimit:10;}.d{stroke-width:2px;opacity:0.06;}.e{stroke-linecap:square;opacity:0.2;}.f,.j{stroke:#6c65ff;stroke-linecap:round;stroke-width:18px;}.g{font-size:9.6px;font-family:SFUIText-Regular, SF UI Text;}.g,.h,.k,.m{fill:#fff;}.h,.k{font-size:9px;}.h,.k,.m{font-family:OperatorMono-Book, Operator Mono;}.i{letter-spacing:-0.05em;}.j{opacity:0.3;}.k{letter-spacing:-0.11em;}.l{letter-spacing:0em;}.m{opacity:0.5;font-size:7px;}.n{letter-spacing:-0.05em;}</style><clipPath id="a"><rect class="a" x="7" y="55" width="405" height="190" rx="9"/></clipPath></defs><title>cost</title><g class="b"><rect class="c" x="7" y="55" width="405" height="190" rx="9"/></g><g class="b"><rect class="d" x="7" y="55" width="405" height="190" rx="9"/></g><line class="e" x1="159.5" y1="217.5" x2="159.5" y2="218"/><line class="e" x1="219" y1="217.5" x2="219" y2="218"/><line class="e" x1="278.5" y1="217.5" x2="278.5" y2="218"/><line class="e" x1="338" y1="217.5" x2="338" y2="218"/><line class="e" x1="397.5" y1="217.5" x2="397.5" y2="218"/><line class="f" x1="167.35" y1="88.2" x2="375.5" y2="88.2"/><text class="g" transform="translate(30.79 89.6)">geolocation-area-search</text><text class="h" transform="translate(354.81 91)"><tspan class="i">19.3</tspan><tspan x="18.07" y="0">$</tspan></text><text class="g" transform="translate(49.14 146.9)">geolocation-ecoding</text><line class="j" x1="167.46" y1="144.5" x2="196.35" y2="144.5"/><text class="h" transform="translate(182.33 147.3)"><tspan class="i">4.1</tspan><tspan x="13.55" y="0">$</tspan></text><text class="g" transform="translate(92.08 174.55)">data-query</text><line class="j" x1="167.46" y1="173.15" x2="194.24" y2="173.15"/><text class="h" transform="translate(174.81 175.95)"><tspan class="i">3.76</tspan><tspan x="18.07" y="0">$</tspan></text><text class="g" transform="translate(48.03 203.2)">some-other-function</text><line class="j" x1="168.4" y1="200.2" x2="180.97" y2="200.2"/><text class="k" transform="translate(165.37 203)">2.2<tspan class="l" x="11.77" y="0">1</tspan></text><text class="h" transform="translate(181.05 203)">$</text><text class="g" transform="translate(68.42 118.25)">mapbox-api-call</text><line class="j" x1="167.03" y1="116.85" x2="233.4" y2="116.85"/><text class="h" transform="translate(211.81 119.65)"><tspan class="i">6.86</tspan><tspan x="18.07" y="0">$</tspan></text><text class="m" transform="translate(154.52 227.62) rotate(45)"><tspan class="n">0</tspan><tspan x="3.51" y="0">$</tspan></text><text class="m" transform="translate(213.52 227.62) rotate(45)"><tspan class="n">5</tspan><tspan x="3.51" y="0">$</tspan></text><text class="m" transform="translate(272.57 227.27) rotate(45)"><tspan class="n">10</tspan><tspan x="7.03" y="0">$</tspan></text><text class="m" transform="translate(332.57 227.27) rotate(45)"><tspan class="n">15</tspan><tspan x="7.03" y="0">$</tspan></text><text class="m" transform="translate(392.57 227.27) rotate(45)"><tspan class="n">20</tspan><tspan x="7.03" y="0">$</tspan></text></svg>