<svg xmlns="http://www.w3.org/2000/svg" xmlns:xlink="http://www.w3.org/1999/xlink" viewBox="0 0 400 300"><defs><style>.a,.d,.e,.f,.j{fill:none;}.b{clip-path:url(#a);}.c{fill:#0d0d0d;}.d,.e{stroke:#fff;}.d,.e,.f,.j{stroke-miterlimit:10;}.d{stroke-width:2px;opacity:0.06;}.e{stroke-linecap:square;opacity:0.2;}.f,.j{stroke:#6c65ff;stroke-linecap:round;stroke-width:18px;}.g{font-size:9.6px;font-family:SFUIText-Regular, SF UI Text;}.g,.h,.k,.m{fill:#fff;}.h,.k{font-size:9px;}.h,.k,.m{font-family:OperatorMono-Book, Operator Mono;}.i{letter-spacing:-0.05em;}.j{opacity:0.3;}.k{letter-spacing:-0.11em;}.l{letter-spacing:0em;}.m{opacity:0.5;font-size:7px;}.n{letter-spacing:-0.05em;}</style><clipPath id="a"><rect class="a" y="55.5" width="400" height="190" rx="9"/></clipPath></defs><title>fontpage-svg</title><g class="b"><rect class="c" y="55.5" width="400" height="190" rx="9"/></g><g class="b"><rect class="d" y="55.5" width="400" height="190" rx="9"/></g><line class="e" x1="152.5" y1="218" x2="152.5" y2="218.5"/><line class="e" x1="210.5" y1="218" x2="210.5" y2="218.5"/><line class="e" x1="267.5" y1="218" x2="267.5" y2="218.5"/><line class="e" x1="325.5" y1="218" x2="325.5" y2="218.5"/><line class="e" x1="382.5" y1="218" x2="382.5" y2="218.5"/><line class="f" x1="160.35" y1="88.7" x2="368.5" y2="88.7"/><text class="g" transform="translate(23.79 90.1)">geolocation-area-search</text><text class="h" transform="translate(347.81 91.5)"><tspan class="i">19.3</tspan><tspan x="18.07" y="0">$</tspan></text><text class="g" transform="translate(42.14 147.4)">geolocation-ecoding</text><line class="j" x1="160.46" y1="145" x2="189.35" y2="145"/><text class="h" transform="translate(175.33 147.8)"><tspan class="i">4.1</tspan><tspan x="13.55" y="0">$</tspan></text><text class="g" transform="translate(85.08 175.05)">data-query</text><line class="j" x1="160.46" y1="173.65" x2="187.24" y2="173.65"/><text class="h" transform="translate(167.81 176.45)"><tspan class="i">3.76</tspan><tspan x="18.07" y="0">$</tspan></text><text class="g" transform="translate(41.03 203.7)">some-other-function</text><line class="j" x1="161.4" y1="200.7" x2="173.97" y2="200.7"/><text class="k" transform="translate(158.37 203.5)">2.2<tspan class="l" x="11.77" y="0">1</tspan></text><text class="h" transform="translate(174.05 203.5)">$</text><text class="g" transform="translate(61.42 118.75)">mapbox-api-call</text><line class="j" x1="160.03" y1="117.35" x2="226.4" y2="117.35"/><text class="h" transform="translate(204.81 120.15)"><tspan class="i">6.86</tspan><tspan x="18.07" y="0">$</tspan></text><text class="m" transform="translate(147.52 228.12) rotate(45)"><tspan class="n">0</tspan><tspan x="3.51" y="0">$</tspan></text><text class="m" transform="translate(205.1 228.12) rotate(45)"><tspan class="n">5</tspan><tspan x="3.51" y="0">$</tspan></text><text class="m" transform="translate(261.74 227.77) rotate(45)"><tspan class="n">10</tspan><tspan x="7.03" y="0">$</tspan></text><text class="m" transform="translate(319.74 227.77) rotate(45)"><tspan class="n">15</tspan><tspan x="7.03" y="0">$</tspan></text><text class="m" transform="translate(376.74 227.77) rotate(45)"><tspan class="n">20</tspan><tspan x="7.03" y="0">$</tspan></text></svg>