<?xml version="1.0" encoding="UTF-8"?>
<svg width="42px" height="42px" viewBox="0 0 42 42" version="1.1" xmlns="http://www.w3.org/2000/svg" xmlns:xlink="http://www.w3.org/1999/xlink">
    <!-- Generator: Sketch 53.2 (72643) - https://sketchapp.com -->
    <title>icon-heart</title>
    <desc>Created with Sketch.</desc>
    <g id="icon-heart" stroke="none" stroke-width="1" fill="none" fill-rule="evenodd">
        <path d="M27.0315635,11.1725291 C28.7341397,11.6003929 30.2567746,12.8576396 30.8823414,14.0056474 L30.8869572,14.0140938 C32.246845,16.5541541 31.5635049,20.3519974 29.5481189,22.3155303 L20.7974014,31.1502178 L19.8737838,30.2177374 L12.0636822,22.3323786 C10.0297059,20.3531286 9.34535833,16.5537208 10.7098589,14.0064846 C11.3431527,12.8422656 12.7929372,11.6031288 14.4712824,11.1738681 C16.532227,10.6467521 18.6893354,11.3093933 20.7768642,13.2842571 C22.7940697,11.3108294 24.9438618,10.6478817 27.0315635,11.1725291 Z M26.3978771,13.6941241 C25.0060438,13.3443511 23.4921022,13.9464175 21.8031409,16.0141284 L20.8207225,17.2168541 L19.8096174,16.0381423 C18.0204212,13.9523584 16.476329,13.3447418 15.1155314,13.6927852 C14.6058281,13.823149 14.12056,14.0922043 13.6928053,14.457808 C13.3628493,14.7398227 13.0976104,15.0580664 12.9977843,15.2415262 C12.1973391,16.7358227 12.6557129,19.2806537 13.8939192,20.4858522 L20.7974184,27.4555959 L27.7172513,20.4696179 C28.9352351,19.2827988 29.3935745,16.7454463 28.5990719,15.2493039 C28.3076023,14.7148998 27.3657573,13.9373561 26.3978771,13.6941241 Z" id="Path" fill="#FFFFFF" fill-rule="nonzero"></path>
    </g>
</svg>