<?xml version="1.0" encoding="UTF-8"?>
<svg width="28px" height="28px" viewBox="0 0 28 28" version="1.1" xmlns="http://www.w3.org/2000/svg" xmlns:xlink="http://www.w3.org/1999/xlink">
    <!-- Generator: Sketch 53.2 (72643) - https://sketchapp.com -->
    <title>icon-github</title>
    <desc>Created with Sketch.</desc>
    <g id="icon-github" stroke="none" stroke-width="1" fill="none" fill-rule="evenodd">
        <path d="M14,4 C8.475,4 4,8.58818995 4,14.2529384 C4,18.7898637 6.8625,22.6218994 10.8375,23.9804138 C11.3375,24.070127 11.525,23.7625388 11.525,23.4933992 C11.525,23.2498919 11.5125,22.442473 11.5125,21.5837894 C9,22.0579878 8.35,20.9557969 8.15,20.3790691 C8.0375,20.0842972 7.55,19.1743489 7.125,18.9308416 C6.775,18.738599 6.275,18.2644006 7.1125,18.2515844 C7.9,18.2387682 8.4625,18.9949225 8.65,19.3025106 C9.55,20.8532675 10.9875,20.4175177 11.5625,20.148378 C11.65,19.481937 11.9125,19.033371 12.2,18.7770475 C9.975,18.5207241 7.65,17.6364081 7.65,13.7146592 C7.65,12.5996521 8.0375,11.6768876 8.675,10.959182 C8.575,10.7028585 8.225,9.65193231 8.775,8.24215328 C8.775,8.24215328 9.6125,7.97301364 11.525,9.29307946 C12.325,9.06238835 13.175,8.94704279 14.025,8.94704279 C14.875,8.94704279 15.725,9.06238835 16.525,9.29307946 C18.4375,7.96019747 19.275,8.24215328 19.275,8.24215328 C19.825,9.65193231 19.475,10.7028585 19.375,10.959182 C20.0125,11.6768876 20.4,12.5868359 20.4,13.7146592 C20.4,17.6492243 18.0625,18.5207241 15.8375,18.7770475 C16.2,19.0974518 16.5125,19.7126281 16.5125,20.6738411 C16.5125,22.0451716 16.5,23.1473625 16.5,23.4933992 C16.5,23.7625388 16.6875,24.0829431 17.1875,23.9804138 C21.1375,22.6218994 24,18.7770475 24,14.2529384 C24,8.58818995 19.525,4 14,4 Z" id="Path" fill="#1B1F23"></path>
    </g>
</svg>