<svg xmlns="http://www.w3.org/2000/svg" xmlns:xlink="http://www.w3.org/1999/xlink" viewBox="0 0 400 300"><defs><style>.a,.b,.e,.m{fill:none;}.b{clip-rule:evenodd;}.c{clip-path:url(#a);}.d{fill:#0d0d0d;}.e{stroke:#fff;stroke-width:2px;opacity:0.06;}.e,.m{stroke-miterlimit:10;}.f{opacity:0.5;}.f,.k{font-size:12px;font-family:SFUIText-Regular, SF UI Text;}.f,.k,.l,.p{fill:#fff;}.g{letter-spacing:-0.05em;}.h{letter-spacing:0.03em;}.i{letter-spacing:0.04em;}.j{letter-spacing:0.03em;}.l{font-size:15.2px;letter-spacing:-0.06em;}.l,.p{font-family:RenoMono-Regular, Reno Mono;}.m{stroke:#ff6300;stroke-width:0.8px;}.m,.p{opacity:0.5;}.n{clip-path:url(#c);}.o{fill:#ff6300;}.p{font-size:11.2px;letter-spacing:0em;}.q{clip-path:url(#d);}.r{letter-spacing:0.03em;}.s{letter-spacing:0.01em;}.t{letter-spacing:0.04em;}.u{letter-spacing:0.03em;}.v{letter-spacing:0.02em;}.w{letter-spacing:0.03em;}.x{letter-spacing:0.02em;}.y{clip-path:url(#f);}.z{clip-path:url(#g);}.aa{clip-path:url(#i);}</style><clipPath id="a"><rect class="a" y="24" width="400" height="82.4" rx="7.2"/></clipPath><clipPath id="c"><path class="b" d="M22.4,52.48a1.22,1.22,0,0,1,.08-.43,1,1,0,0,1,.22-.34,1,1,0,0,1,.36-.23,1.42,1.42,0,0,1,.48-.08,1.4,1.4,0,0,1,.47.08,1,1,0,0,1,.36.23,1.13,1.13,0,0,1,.23.34,1.22,1.22,0,0,1,.08.43,1.16,1.16,0,0,1-.08.42,1,1,0,0,1-.23.34,1.09,1.09,0,0,1-.36.22,1.19,1.19,0,0,1-.47.08,1.21,1.21,0,0,1-.48-.08,1.09,1.09,0,0,1-.36-.22.87.87,0,0,1-.22-.34A1.16,1.16,0,0,1,22.4,52.48Zm2-2.62H22.65l-.11-6.66h2Z"/></clipPath><clipPath id="d"><rect class="a" y="112" width="400" height="82.4" rx="7.2"/></clipPath><clipPath id="f"><path class="b" d="M22.4,140.48a1.22,1.22,0,0,1,.08-.43,1,1,0,0,1,.22-.34,1,1,0,0,1,.36-.23,1.42,1.42,0,0,1,.48-.08,1.4,1.4,0,0,1,.47.08,1,1,0,0,1,.36.23,1.13,1.13,0,0,1,.23.34,1.22,1.22,0,0,1,.08.43,1.16,1.16,0,0,1-.08.42,1,1,0,0,1-.23.34,1.09,1.09,0,0,1-.36.22,1.19,1.19,0,0,1-.47.08,1.21,1.21,0,0,1-.48-.08,1.09,1.09,0,0,1-.36-.22.87.87,0,0,1-.22-.34A1.16,1.16,0,0,1,22.4,140.48Zm2-2.62H22.65l-.11-6.66h2Z"/></clipPath><clipPath id="g"><rect class="a" y="200" width="400" height="82.4" rx="7.2"/></clipPath><clipPath id="i"><path class="b" d="M22.4,228.48a1.22,1.22,0,0,1,.08-.43,1,1,0,0,1,.22-.34,1,1,0,0,1,.36-.23,1.42,1.42,0,0,1,.48-.08,1.4,1.4,0,0,1,.47.08,1,1,0,0,1,.36.23,1.13,1.13,0,0,1,.23.34,1.22,1.22,0,0,1,.08.43,1.16,1.16,0,0,1-.08.42,1,1,0,0,1-.23.34,1.09,1.09,0,0,1-.36.22,1.19,1.19,0,0,1-.47.08,1.21,1.21,0,0,1-.48-.08,1.09,1.09,0,0,1-.36-.22.87.87,0,0,1-.22-.34A1.16,1.16,0,0,1,22.4,228.48Zm2-2.62H22.65l-.11-6.66h2Z"/></clipPath></defs><title>fontpage-svg</title><g class="c"><rect class="d" y="24" width="400" height="82.4" rx="7.2"/></g><g class="c"><rect class="e" y="24" width="400" height="82.4" rx="7.2"/></g><text class="f" transform="translate(49.6 73.6)"><tspan class="g">Y</tspan><tspan class="h" x="7.29" y="0">our lambda fun</tspan><tspan class="i" x="98.07" y="0">c</tspan><tspan class="h" x="105.3" y="0">tion is getting close </tspan><tspan class="j" x="228.32" y="0">t</tspan><tspan class="h" x="232.99" y="0">o the</tspan><tspan x="263.79" y="0"> </tspan></text><text class="k" transform="translate(49.6 89.6)"><tspan class="h">memory lim</tspan><tspan x="69.68" y="0">i</tspan></text><text class="k" transform="translate(122.67 89.6)">t</text><text class="l" transform="translate(48.8 50.8)">Getting close to memory limit</text><path class="m" d="M34.34,54.64,25,37.23a1.6,1.6,0,0,0-2.17-.65,1.63,1.63,0,0,0-.65.65L12.86,54.64a1.6,1.6,0,0,0,.66,2.17,1.64,1.64,0,0,0,.75.19H32.93a1.6,1.6,0,0,0,1.6-1.6A1.71,1.71,0,0,0,34.34,54.64Z"/><g class="n"><rect class="o" x="17.4" y="38.2" width="12.28" height="20.34"/></g><text class="p" transform="translate(330.31 50.4)">1min ago</text><g class="q"><rect class="d" y="112" width="400" height="82.4" rx="7.2"/></g><g class="q"><rect class="e" y="112" width="400" height="82.4" rx="7.2"/></g><text class="f" transform="translate(49.6 161.6)"><tspan class="g">Y</tspan><tspan class="h" x="7.29" y="0">our lambda fun</tspan><tspan class="i" x="98.07" y="0">c</tspan><tspan class="h" x="105.3" y="0">tion</tspan><tspan x="128.29" y="0"> </tspan></text><text class="k" transform="translate(181.74 161.6)"><tspan class="h">big</tspan><tspan class="r" x="18.82" y="0">-</tspan><tspan class="h" x="24.87" y="0">quer</tspan><tspan x="52.2" y="0">y</tspan></text><text class="f" transform="translate(240.9 161.6)"><tspan class="h"> </tspan><tspan class="r" x="3.78" y="0">ha</tspan><tspan class="h" x="18.3" y="0">s</tspan><tspan x="24.97" y="0"> </tspan></text><text class="f" transform="translate(49.6 177.6)"><tspan class="s">e</tspan><tspan class="h" x="7.01" y="0">xpe</tspan><tspan class="t" x="28.67" y="0">r</tspan><tspan class="h" x="33.76" y="0">ienced 113 ti</tspan><tspan class="u" x="109.46" y="0">m</tspan><tspan class="h" x="120.28" y="0">eou</tspan><tspan class="v" x="142.43" y="0">t</tspan><tspan class="h" x="147.06" y="0">s in the la</tspan><tspan class="w" x="205.8" y="0">s</tspan><tspan class="h" x="212.42" y="0">t </tspan><tspan class="x" x="220.95" y="0">2</tspan><tspan x="228.43" y="0">4</tspan></text><text class="f" transform="translate(286.32 177.6)">h</text><text class="l" transform="translate(48.8 138.8)">Increased amount of timeouts</text><path class="m" d="M34.34,142.64,25,125.23a1.6,1.6,0,0,0-2.17-.65,1.63,1.63,0,0,0-.65.65l-9.33,17.41a1.6,1.6,0,0,0,.66,2.17,1.64,1.64,0,0,0,.75.19H32.93a1.6,1.6,0,0,0,1.6-1.6A1.71,1.71,0,0,0,34.34,142.64Z"/><g class="y"><rect class="o" x="17.4" y="126.2" width="12.28" height="20.34"/></g><text class="p" transform="translate(329.71 138.4)">5min ago</text><g class="z"><rect class="d" y="200" width="400" height="82.4" rx="7.2"/></g><g class="z"><rect class="e" y="200" width="400" height="82.4" rx="7.2"/></g><text class="f" transform="translate(49.6 249.6)"><tspan class="g">Y</tspan><tspan class="h" x="7.29" y="0">our lambda fun</tspan><tspan class="i" x="98.07" y="0">c</tspan><tspan class="h" x="105.3" y="0">tion</tspan><tspan x="128.29" y="0"> </tspan></text><text class="k" transform="translate(181.74 249.6)"><tspan class="h">big</tspan><tspan class="r" x="18.82" y="0">-</tspan><tspan class="h" x="24.87" y="0">quer</tspan><tspan x="52.2" y="0">y</tspan></text><text class="f" transform="translate(240.9 249.6)"><tspan class="h"> </tspan><tspan class="r" x="3.78" y="0">ha</tspan><tspan class="h" x="18.3" y="0">s is</tspan><tspan x="38.78" y="0"> </tspan></text><text class="f" transform="translate(49.6 265.6)"><tspan class="h">getting cl</tspan><tspan class="u" x="57.24" y="0">o</tspan><tspan class="h" x="64.71" y="0">se </tspan><tspan class="j" x="82.42" y="0">t</tspan><tspan class="r" x="87.1" y="0">o</tspan><tspan class="h" x="94.57" y="0"> </tspan><tspan class="r" x="98.35" y="0">a</tspan><tspan class="h" x="105.36" y="0" xml:space="preserve"> time</tspan><tspan class="u" x="135.33" y="0">o</tspan><tspan class="h" x="142.81" y="0">ut</tspan><tspan x="154.97" y="0">.</tspan></text><text class="l" transform="translate(48.8 226.8)">Close to timeout</text><path class="m" d="M34.34,230.64,25,213.23a1.6,1.6,0,0,0-2.17-.65,1.63,1.63,0,0,0-.65.65l-9.33,17.41a1.6,1.6,0,0,0,.66,2.17,1.64,1.64,0,0,0,.75.19H32.93a1.6,1.6,0,0,0,1.6-1.6A1.71,1.71,0,0,0,34.34,230.64Z"/><g class="aa"><rect class="o" x="17.4" y="214.2" width="12.28" height="20.34"/></g><text class="p" transform="translate(315.81 226.4)">24min ago</text></svg>