<?xml version="1.0" encoding="UTF-8"?>
<svg width="420px" height="300px" viewBox="0 0 420 300" version="1.1" xmlns="http://www.w3.org/2000/svg" xmlns:xlink="http://www.w3.org/1999/xlink">
    <!-- Generator: Sketch 53.2 (72643) - https://sketchapp.com -->
    <title>feature/notifications</title>
    <desc>Created with Sketch.</desc>
    <g id="feature/notifications" stroke="none" stroke-width="1" fill="none" fill-rule="evenodd">
        <g id="Group-21" transform="translate(12.000000, 21.000000)">
            <g id="Group" transform="translate(11.199999, 10.399999)"></g>
            <rect id="Rectangle" stroke-opacity="0.0566542832" stroke="#FFFFFF" fill-opacity="0.05" fill="#FFFFFF" x="0.5" y="0.5" width="395.799976" height="81.3999951" rx="7.19999957"></rect>
            <text id="Your-lambda-function" font-family="SFUIText-Regular, SF UI Text" font-size="11.9999993" font-weight="normal" line-spacing="15.999999" letter-spacing="0.399999976" fill="#FFFFFF">
                <tspan x="49.599997" y="48.5999978" fill-opacity="0.498060533">Your lambda function is getting close to the </tspan>
                <tspan x="49.599997" y="64.5999968">memory limi</tspan>
                <tspan x="122.671868" y="64.5999968">t</tspan>
            </text>
            <text id="Getting-close-to-mem" font-family="RenoMono-Regular, Reno Mono" font-size="15.1999991" font-weight="normal" line-spacing="18.3999989" letter-spacing="-1.5999999" fill="#FFFFFF">
                <tspan x="48.7999971" y="21.3999994">Getting close to memory limi</tspan>
                <tspan x="280.639983" y="21.3999994">t</tspan>
            </text>
            <path d="M34.3380939,30.6444439 L25.0103665,13.2326861 C24.5930854,12.4537614 23.623369,12.1605913 22.8444444,12.5778724 C22.5663987,12.7268255 22.3385838,12.9546404 22.1896307,13.2326861 L12.8619033,30.6444439 C12.4446222,31.4233686 12.7377923,32.3930849 13.516717,32.810366 C13.7490998,32.9348568 14.0086432,32.999998 14.2722712,32.999998 L32.927726,32.999998 C33.8113816,32.999998 34.5277259,32.2836537 34.5277259,31.3999981 C34.5277259,31.1363701 34.4625847,30.8768267 34.3380939,30.6444439 Z" id="Oval-Copy" stroke="#FF6300" stroke-width="0.799999952" opacity="0.5" fill-rule="nonzero"></path>
            <path d="M24.4320297,25.8585918 L22.6531236,25.8585918 L22.5406236,19.1999989 L24.5445297,19.1999989 L24.4320297,25.8585918 Z M22.3999987,28.4812477 C22.3999987,28.3265595 22.4257797,28.1835922 22.4773424,28.0523416 C22.5289052,27.9210909 22.6039044,27.8062483 22.7023424,27.7078103 C22.8007804,27.6093724 22.9203104,27.5332013 23.0609361,27.4792947 C23.2015618,27.4253882 23.3609352,27.3984354 23.539061,27.3984354 C23.7124994,27.3984354 23.869529,27.4253882 24.0101547,27.4792947 C24.1507804,27.5332013 24.2703104,27.6093724 24.3687484,27.7078103 C24.4671864,27.8062483 24.5433575,27.9210909 24.597264,28.0523416 C24.6511705,28.1835922 24.6781234,28.3265595 24.6781234,28.4812477 C24.6781234,28.6312485 24.6511705,28.7718721 24.597264,28.9031227 C24.5433575,29.0343733 24.4671864,29.1468722 24.3687484,29.2406227 C24.2703104,29.3343731 24.1507804,29.4082005 24.0101547,29.462107 C23.869529,29.5160135 23.7124994,29.5429664 23.539061,29.5429664 C23.3609352,29.5429664 23.2015618,29.5160135 23.0609361,29.462107 C22.9203104,29.4082005 22.8007804,29.3343731 22.7023424,29.2406227 C22.6039044,29.1468722 22.5289052,29.0343733 22.4773424,28.9031227 C22.4257797,28.7718721 22.3999987,28.6312485 22.3999987,28.4812477 Z" id="!" fill="#FF6300"></path>
            <text id="1min-ago" opacity="0.5" font-family="RenoMono-Regular, Reno Mono" font-size="11.1999993" font-weight="normal" line-spacing="18.3999989" fill="#FFFFFF">
                <tspan x="326.159984" y="19.9999993">1min ago</tspan>
            </text>
        </g>
        <g id="Group-21-Copy" transform="translate(12.000000, 109.000000)">
            <g id="Group" transform="translate(11.199999, 10.399999)"></g>
            <rect id="Rectangle" stroke-opacity="0.0566542832" stroke="#FFFFFF" fill-opacity="0.05" fill="#FFFFFF" x="0.5" y="0.5" width="395.799976" height="81.3999951" rx="7.19999957"></rect>
            <text id="Your-lambda-function" font-family="SFUIText-Regular, SF UI Text" font-size="11.9999993" font-weight="normal" line-spacing="15.999999" letter-spacing="0.399999976" fill="#FFFFFF">
                <tspan x="49.599997" y="48.5999978" fill-opacity="0.498060533">Your lambda function </tspan>
                <tspan x="181.74413" y="48.5999978">big-query</tspan>
                <tspan x="240.90272" y="48.5999978" fill-opacity="0.498060533"> has </tspan>
                <tspan x="49.599997" y="64.5999968" fill-opacity="0.498060533">experienced 113 timeouts in the last 24</tspan>
                <tspan x="286.315217" y="64.5999968" fill-opacity="0.498060533">h</tspan>
            </text>
            <text id="Increased-amount-of" font-family="RenoMono-Regular, Reno Mono" font-size="15.1999991" font-weight="normal" line-spacing="18.3999989" letter-spacing="-1.5999999" fill="#FFFFFF">
                <tspan x="48.7999971" y="21.3999994">Increased amount of timeout</tspan>
                <tspan x="272.359984" y="21.3999994">s</tspan>
            </text>
            <path d="M34.3380939,30.6444439 L25.0103665,13.2326861 C24.5930854,12.4537614 23.623369,12.1605913 22.8444444,12.5778724 C22.5663987,12.7268255 22.3385838,12.9546404 22.1896307,13.2326861 L12.8619033,30.6444439 C12.4446222,31.4233686 12.7377923,32.3930849 13.516717,32.810366 C13.7490998,32.9348568 14.0086432,32.999998 14.2722712,32.999998 L32.927726,32.999998 C33.8113816,32.999998 34.5277259,32.2836537 34.5277259,31.3999981 C34.5277259,31.1363701 34.4625847,30.8768267 34.3380939,30.6444439 Z" id="Oval-Copy" stroke="#FF6300" stroke-width="0.799999952" opacity="0.5" fill-rule="nonzero"></path>
            <path d="M24.4320297,25.8585918 L22.6531236,25.8585918 L22.5406236,19.1999989 L24.5445297,19.1999989 L24.4320297,25.8585918 Z M22.3999987,28.4812477 C22.3999987,28.3265595 22.4257797,28.1835922 22.4773424,28.0523416 C22.5289052,27.9210909 22.6039044,27.8062483 22.7023424,27.7078103 C22.8007804,27.6093724 22.9203104,27.5332013 23.0609361,27.4792947 C23.2015618,27.4253882 23.3609352,27.3984354 23.539061,27.3984354 C23.7124994,27.3984354 23.869529,27.4253882 24.0101547,27.4792947 C24.1507804,27.5332013 24.2703104,27.6093724 24.3687484,27.7078103 C24.4671864,27.8062483 24.5433575,27.9210909 24.597264,28.0523416 C24.6511705,28.1835922 24.6781234,28.3265595 24.6781234,28.4812477 C24.6781234,28.6312485 24.6511705,28.7718721 24.597264,28.9031227 C24.5433575,29.0343733 24.4671864,29.1468722 24.3687484,29.2406227 C24.2703104,29.3343731 24.1507804,29.4082005 24.0101547,29.462107 C23.869529,29.5160135 23.7124994,29.5429664 23.539061,29.5429664 C23.3609352,29.5429664 23.2015618,29.5160135 23.0609361,29.462107 C22.9203104,29.4082005 22.8007804,29.3343731 22.7023424,29.2406227 C22.6039044,29.1468722 22.5289052,29.0343733 22.4773424,28.9031227 C22.4257797,28.7718721 22.3999987,28.6312485 22.3999987,28.4812477 Z" id="!" fill="#FF6300"></path>
            <text id="5min-ago" opacity="0.5" font-family="RenoMono-Regular, Reno Mono" font-size="11.1999993" font-weight="normal" line-spacing="18.3999989" letter-spacing="-0.799999952" fill="#FFFFFF">
                <tspan x="327.959984" y="19.9999993">5mi</tspan>
                <tspan x="347.399983" y="19.9999993">n ago</tspan>
            </text>
        </g>
        <g id="Group-21-Copy-2" transform="translate(12.000000, 197.000000)">
            <g id="Group" transform="translate(11.199999, 10.399999)"></g>
            <rect id="Rectangle" stroke-opacity="0.0566542832" stroke="#FFFFFF" fill-opacity="0.05" fill="#FFFFFF" x="0.5" y="0.5" width="395.799976" height="81.3999951" rx="7.19999957"></rect>
            <text id="Your-lambda-function" font-family="SFUIText-Regular, SF UI Text" font-size="11.9999993" font-weight="normal" line-spacing="15.999999" letter-spacing="0.399999976" fill="#FFFFFF">
                <tspan x="49.599997" y="48.5999978" fill-opacity="0.498060533">Your lambda function </tspan>
                <tspan x="181.74413" y="48.5999978">big-query</tspan>
                <tspan x="240.90272" y="48.5999978" fill-opacity="0.498060533"> has is </tspan>
                <tspan x="49.599997" y="64.5999968" fill-opacity="0.498060533">getting close to a timeout.</tspan>
            </text>
            <text id="Close-to-timeout" font-family="RenoMono-Regular, Reno Mono" font-size="15.1999991" font-weight="normal" line-spacing="18.3999989" letter-spacing="-1.5999999" fill="#FFFFFF">
                <tspan x="48.7999971" y="21.3999994">Close to timeou</tspan>
                <tspan x="172.99999" y="21.3999994">t</tspan>
            </text>
            <path d="M34.3380939,30.6444439 L25.0103665,13.2326861 C24.5930854,12.4537614 23.623369,12.1605913 22.8444444,12.5778724 C22.5663987,12.7268255 22.3385838,12.9546404 22.1896307,13.2326861 L12.8619033,30.6444439 C12.4446222,31.4233686 12.7377923,32.3930849 13.516717,32.810366 C13.7490998,32.9348568 14.0086432,32.999998 14.2722712,32.999998 L32.927726,32.999998 C33.8113816,32.999998 34.5277259,32.2836537 34.5277259,31.3999981 C34.5277259,31.1363701 34.4625847,30.8768267 34.3380939,30.6444439 Z" id="Oval-Copy" stroke="#FF6300" stroke-width="0.799999952" opacity="0.5" fill-rule="nonzero"></path>
            <path d="M24.4320297,25.8585918 L22.6531236,25.8585918 L22.5406236,19.1999989 L24.5445297,19.1999989 L24.4320297,25.8585918 Z M22.3999987,28.4812477 C22.3999987,28.3265595 22.4257797,28.1835922 22.4773424,28.0523416 C22.5289052,27.9210909 22.6039044,27.8062483 22.7023424,27.7078103 C22.8007804,27.6093724 22.9203104,27.5332013 23.0609361,27.4792947 C23.2015618,27.4253882 23.3609352,27.3984354 23.539061,27.3984354 C23.7124994,27.3984354 23.869529,27.4253882 24.0101547,27.4792947 C24.1507804,27.5332013 24.2703104,27.6093724 24.3687484,27.7078103 C24.4671864,27.8062483 24.5433575,27.9210909 24.597264,28.0523416 C24.6511705,28.1835922 24.6781234,28.3265595 24.6781234,28.4812477 C24.6781234,28.6312485 24.6511705,28.7718721 24.597264,28.9031227 C24.5433575,29.0343733 24.4671864,29.1468722 24.3687484,29.2406227 C24.2703104,29.3343731 24.1507804,29.4082005 24.0101547,29.462107 C23.869529,29.5160135 23.7124994,29.5429664 23.539061,29.5429664 C23.3609352,29.5429664 23.2015618,29.5160135 23.0609361,29.462107 C22.9203104,29.4082005 22.8007804,29.3343731 22.7023424,29.2406227 C22.6039044,29.1468722 22.5289052,29.0343733 22.4773424,28.9031227 C22.4257797,28.7718721 22.3999987,28.6312485 22.3999987,28.4812477 Z" id="!" fill="#FF6300"></path>
            <text id="24min-ago" opacity="0.5" font-family="RenoMono-Regular, Reno Mono" font-size="11.1999993" font-weight="normal" line-spacing="18.3999989" letter-spacing="-0.799999952" fill="#FFFFFF">
                <tspan x="322.079984" y="19.9999993">24mi</tspan>
                <tspan x="347.999983" y="19.9999993">n ago</tspan>
            </text>
        </g>
    </g>
</svg>