<svg xmlns="http://www.w3.org/2000/svg" xmlns:xlink="http://www.w3.org/1999/xlink" viewBox="0 0 420 300"><defs><style>.a,.b,.c,.f,.n{fill:none;}.a{clip-rule:evenodd;}.b{fill-rule:evenodd;}.d{clip-path:url(#a);}.e{fill:#0d0d0d;}.f{stroke:#fff;stroke-width:2px;opacity:0.06;}.f,.n{stroke-miterlimit:10;}.g{opacity:0.5;}.g,.l{font-size:12px;font-family:SFUIText-Regular, SF UI Text;}.g,.l,.m,.q{fill:#fff;}.h{letter-spacing:-0.05em;}.i{letter-spacing:0.03em;}.j{letter-spacing:0.04em;}.k{letter-spacing:0.03em;}.m{font-size:15.2px;letter-spacing:-0.05em;}.m,.q{font-family:RenoMono-Regular, Reno Mono;}.n{stroke:#ff6300;stroke-width:0.8px;}.n,.q{opacity:0.5;}.o{clip-path:url(#c);}.p{fill:#ff6300;}.q{font-size:11.2px;}.r{clip-path:url(#d);}.s{letter-spacing:0.03em;}.t{letter-spacing:0.01em;}.u{letter-spacing:0.04em;}.v{letter-spacing:0.03em;}.w{letter-spacing:0.02em;}.x{letter-spacing:0.03em;}.y{letter-spacing:0.02em;}.z{clip-path:url(#f);}.aa{clip-path:url(#g);}.ab{clip-path:url(#i);}</style><clipPath id="a"><path class="a" d="M401.6,19a7.2,7.2,0,0,1,7.2,7.2v68a7.2,7.2,0,0,1-7.2,7.2H19.2A7.2,7.2,0,0,1,12,94.2v-68A7.2,7.2,0,0,1,19.2,19"/></clipPath><clipPath id="c"><path class="a" d="M34.4,47.48a1.22,1.22,0,0,1,.08-.43,1,1,0,0,1,.22-.34,1,1,0,0,1,.36-.23,1.42,1.42,0,0,1,.48-.08,1.4,1.4,0,0,1,.47.08,1,1,0,0,1,.36.23,1.13,1.13,0,0,1,.23.34,1.22,1.22,0,0,1,.08.43,1.16,1.16,0,0,1-.08.42,1,1,0,0,1-.23.34,1.09,1.09,0,0,1-.36.22,1.19,1.19,0,0,1-.47.08,1.21,1.21,0,0,1-.48-.08,1.09,1.09,0,0,1-.36-.22.87.87,0,0,1-.22-.34A1.16,1.16,0,0,1,34.4,47.48Zm2-2.62H34.65l-.11-6.66h2Z"/></clipPath><clipPath id="d"><rect class="c" x="12" y="107" width="396.8" height="82.4" rx="7.2"/></clipPath><clipPath id="f"><path class="a" d="M34.4,135.48a1.22,1.22,0,0,1,.08-.43,1,1,0,0,1,.22-.34,1,1,0,0,1,.36-.23,1.42,1.42,0,0,1,.48-.08,1.4,1.4,0,0,1,.47.08,1,1,0,0,1,.36.23,1.13,1.13,0,0,1,.23.34,1.22,1.22,0,0,1,.08.43,1.16,1.16,0,0,1-.08.42,1,1,0,0,1-.23.34,1.09,1.09,0,0,1-.36.22,1.19,1.19,0,0,1-.47.08,1.21,1.21,0,0,1-.48-.08,1.09,1.09,0,0,1-.36-.22.87.87,0,0,1-.22-.34A1.16,1.16,0,0,1,34.4,135.48Zm2-2.62H34.65l-.11-6.66h2Z"/></clipPath><clipPath id="g"><rect class="c" x="12" y="195" width="396.8" height="82.4" rx="7.2"/></clipPath><clipPath id="i"><path class="a" d="M34.4,223.48a1.22,1.22,0,0,1,.08-.43,1,1,0,0,1,.22-.34,1,1,0,0,1,.36-.23,1.42,1.42,0,0,1,.48-.08,1.4,1.4,0,0,1,.47.08,1,1,0,0,1,.36.23,1.13,1.13,0,0,1,.23.34,1.22,1.22,0,0,1,.08.43,1.16,1.16,0,0,1-.08.42,1,1,0,0,1-.23.34,1.09,1.09,0,0,1-.36.22,1.19,1.19,0,0,1-.47.08,1.21,1.21,0,0,1-.48-.08,1.09,1.09,0,0,1-.36-.22.87.87,0,0,1-.22-.34A1.16,1.16,0,0,1,34.4,223.48Zm2-2.62H34.65l-.11-6.66h2Z"/></clipPath></defs><title>notifications</title><g class="d"><rect class="e" x="12" y="19" width="396.8" height="82.4" rx="7.2"/></g><g class="d"><path class="f" d="M401.6,19a7.2,7.2,0,0,1,7.2,7.2v68a7.2,7.2,0,0,1-7.2,7.2H19.2A7.2,7.2,0,0,1,12,94.2v-68A7.2,7.2,0,0,1,19.2,19"/></g><text class="g" transform="translate(61.6 68.6)"><tspan class="h">Y</tspan><tspan class="i" x="7.29" y="0">our lambda fun</tspan><tspan class="j" x="98.07" y="0">c</tspan><tspan class="i" x="105.3" y="0">tion is getting close </tspan><tspan class="k" x="228.32" y="0">t</tspan><tspan class="i" x="232.99" y="0">o the</tspan><tspan x="263.79" y="0"> </tspan></text><text class="l" transform="translate(61.6 84.6)"><tspan class="i">memory lim</tspan><tspan x="69.68" y="0">i</tspan></text><text class="l" transform="translate(134.67 84.6)">t</text><text class="m" transform="translate(60.8 45.8)">Getting close to memory limit</text><path class="n" d="M46.34,49.64,37,32.23a1.6,1.6,0,0,0-2.17-.65,1.63,1.63,0,0,0-.65.65L24.86,49.64a1.6,1.6,0,0,0,.66,2.17,1.64,1.64,0,0,0,.75.19H44.93a1.6,1.6,0,0,0,1.6-1.6A1.71,1.71,0,0,0,46.34,49.64Z"/><g class="o"><rect class="p" x="29.4" y="33.2" width="12.28" height="20.34"/></g><text class="q" transform="translate(338.16 45.4)">1min ago</text><g class="r"><rect class="e" x="12" y="107" width="396.8" height="82.4" rx="7.2"/></g><g class="r"><rect class="f" x="12" y="107" width="396.8" height="82.4" rx="7.2"/></g><text class="g" transform="translate(61.6 156.6)"><tspan class="h">Y</tspan><tspan class="i" x="7.29" y="0">our lambda fun</tspan><tspan class="j" x="98.07" y="0">c</tspan><tspan class="i" x="105.3" y="0">tion</tspan><tspan x="128.29" y="0"> </tspan></text><text class="l" transform="translate(193.74 156.6)"><tspan class="i">big</tspan><tspan class="s" x="18.82" y="0">-</tspan><tspan class="i" x="24.87" y="0">quer</tspan><tspan x="52.2" y="0">y</tspan></text><text class="g" transform="translate(252.9 156.6)"><tspan class="i"> </tspan><tspan class="s" x="3.78" y="0">ha</tspan><tspan class="i" x="18.3" y="0">s</tspan><tspan x="24.97" y="0"> </tspan></text><text class="g" transform="translate(61.6 172.6)"><tspan class="t">e</tspan><tspan class="i" x="7.01" y="0">xpe</tspan><tspan class="u" x="28.67" y="0">r</tspan><tspan class="i" x="33.76" y="0">ienced 113 ti</tspan><tspan class="v" x="109.46" y="0">m</tspan><tspan class="i" x="120.28" y="0">eou</tspan><tspan class="w" x="142.43" y="0">t</tspan><tspan class="i" x="147.06" y="0">s in the la</tspan><tspan class="x" x="205.8" y="0">s</tspan><tspan class="i" x="212.42" y="0">t </tspan><tspan class="y" x="220.95" y="0">2</tspan><tspan x="228.43" y="0">4</tspan></text><text class="g" transform="translate(298.32 172.6)">h</text><text class="m" transform="translate(60.8 133.8)">Increased amount of timeouts</text><path class="n" d="M46.34,137.64,37,120.23a1.6,1.6,0,0,0-2.17-.65,1.63,1.63,0,0,0-.65.65l-9.33,17.41a1.6,1.6,0,0,0,.66,2.17,1.64,1.64,0,0,0,.75.19H44.93a1.6,1.6,0,0,0,1.6-1.6A1.71,1.71,0,0,0,46.34,137.64Z"/><g class="z"><rect class="p" x="29.4" y="121.2" width="12.28" height="20.34"/></g><text class="q" transform="translate(337.56 133.4)">5min ago</text><g class="aa"><rect class="e" x="12" y="195" width="396.8" height="82.4" rx="7.2"/></g><g class="aa"><rect class="f" x="12" y="195" width="396.8" height="82.4" rx="7.2"/></g><text class="g" transform="translate(61.6 244.6)"><tspan class="h">Y</tspan><tspan class="i" x="7.29" y="0">our lambda fun</tspan><tspan class="j" x="98.07" y="0">c</tspan><tspan class="i" x="105.3" y="0">tion</tspan><tspan x="128.29" y="0"> </tspan></text><text class="l" transform="translate(193.74 244.6)"><tspan class="i">big</tspan><tspan class="s" x="18.82" y="0">-</tspan><tspan class="i" x="24.87" y="0">quer</tspan><tspan x="52.2" y="0">y</tspan></text><text class="g" transform="translate(252.9 244.6)"><tspan class="i"> </tspan><tspan class="s" x="3.78" y="0">ha</tspan><tspan class="i" x="18.3" y="0">s is</tspan><tspan x="38.78" y="0"> </tspan></text><text class="g" transform="translate(61.6 260.6)"><tspan class="i">getting cl</tspan><tspan class="v" x="57.24" y="0">o</tspan><tspan class="i" x="64.71" y="0">se </tspan><tspan class="k" x="82.42" y="0">t</tspan><tspan class="s" x="87.1" y="0">o</tspan><tspan class="i" x="94.57" y="0"> </tspan><tspan class="s" x="98.35" y="0">a</tspan><tspan class="i" x="105.36" y="0" xml:space="preserve"> time</tspan><tspan class="v" x="135.33" y="0">o</tspan><tspan class="i" x="142.81" y="0">ut</tspan><tspan x="154.97" y="0">.</tspan></text><text class="m" transform="translate(60.8 221.8)">Close to timeout</text><path class="n" d="M46.34,225.64,37,208.23a1.6,1.6,0,0,0-2.17-.65,1.63,1.63,0,0,0-.65.65l-9.33,17.41a1.6,1.6,0,0,0,.66,2.17,1.64,1.64,0,0,0,.75.19H44.93a1.6,1.6,0,0,0,1.6-1.6A1.71,1.71,0,0,0,46.34,225.64Z"/><g class="ab"><rect class="p" x="29.4" y="209.2" width="12.28" height="20.34"/></g><text class="q" transform="translate(330.88 221.4)">24min ago</text></svg>