<?xml version="1.0" encoding="UTF-8"?>
<svg width="406px" height="260px" viewBox="0 0 406 260" version="1.1" xmlns="http://www.w3.org/2000/svg" xmlns:xlink="http://www.w3.org/1999/xlink">
    <!-- Generator: Sketch 53.2 (72643) - https://sketchapp.com -->
    <title>Group 22</title>
    <desc>Created with Sketch.</desc>
    <g id="Working" stroke="none" stroke-width="1" fill="none" fill-rule="evenodd">
        <g id="Hero@2x" transform="translate(-852.000000, -1973.000000)">
            <g id="Group-22" transform="translate(852.000000, 1973.000000)">
                <rect id="Rectangle" stroke-opacity="0.0566542832" stroke="#FFFFFF" fill-opacity="0.05" fill="#FFFFFF" x="0.5" y="0.5" width="404" height="259" rx="9"></rect>
                <rect id="Rectangle" fill="#6C65FF" opacity="0.600000024" x="239" y="75.3671875" width="34" height="14" rx="2"></rect>
                <rect id="Rectangle" fill="#6C65FF" opacity="0.600000024" x="239" y="105" width="34" height="14" rx="2"></rect>
                <rect id="Rectangle" fill="#6C65FF" opacity="0.600000024" x="239" y="134" width="34" height="14" rx="2"></rect>
                <rect id="Rectangle" fill="#6C65FF" opacity="0.600000024" x="239" y="163" width="34" height="14" rx="2"></rect>
                <rect id="Rectangle" fill="#6C65FF" opacity="0.600000024" x="239" y="192" width="34" height="14" rx="2"></rect>
                <rect id="Rectangle" fill="#6C65FF" opacity="0.600000024" x="239" y="221" width="34" height="14" rx="2"></rect>
                <text id="87d2dcca-08c6-11e8-b" font-family="Helvetica" font-size="10" font-weight="normal" line-spacing="29" letter-spacing="-0.4807692">
                    <tspan x="18" y="77" fill="#B2B2B2">87d2dcca-08c6-11e8-b471-2f78fbf54088 </tspan>
                    <tspan x="183.507438" y="77" fill="#FFFFFF">Hello</tspan>
                    <tspan x="203.891678" y="77" fill="#B2B2B2"> was called</tspan>
                    <tspan x="248.07099" y="77" font-family="Monaco" fill="#B2B2B2">...</tspan>
                    <tspan x="264.631612" y="77" fill="#B2B2B2"></tspan>
                    <tspan x="18" y="106" fill="#B2B2B2">87d2dcca-08c6-11e8-b471-2f78fbf54088 </tspan>
                    <tspan x="183.507438" y="106" fill="#FFFFFF">Hello</tspan>
                    <tspan x="203.891678" y="106" fill="#B2B2B2"> was called</tspan>
                    <tspan x="248.07099" y="106" font-family="Monaco" fill="#B2B2B2">...</tspan>
                    <tspan x="264.631612" y="106" fill="#B2B2B2"></tspan>
                    <tspan x="18" y="135" fill="#B2B2B2">87d2dcca-08c6-11e8-b471-2f78fbf54088 </tspan>
                    <tspan x="183.507438" y="135" fill="#FFFFFF">Hello</tspan>
                    <tspan x="203.891678" y="135" fill="#B2B2B2"> was called</tspan>
                    <tspan x="248.07099" y="135" font-family="Monaco" fill="#B2B2B2">...</tspan>
                    <tspan x="264.631612" y="135" fill="#B2B2B2"></tspan>
                    <tspan x="18" y="164" fill="#B2B2B2">87d2dcca-08c6-11e8-b471-2f78fbf54088 </tspan>
                    <tspan x="183.507438" y="164" fill="#FFFFFF">Hello</tspan>
                    <tspan x="203.891678" y="164" fill="#B2B2B2"> was called</tspan>
                    <tspan x="248.07099" y="164" font-family="Monaco" fill="#B2B2B2">...</tspan>
                    <tspan x="264.631612" y="164" fill="#B2B2B2"></tspan>
                    <tspan x="18" y="193" fill="#B2B2B2">87d2dcca-08c6-11e8-b471-2f78fbf54088 </tspan>
                    <tspan x="183.507438" y="193" fill="#FFFFFF">Hello</tspan>
                    <tspan x="203.891678" y="193" fill="#B2B2B2"> was called</tspan>
                    <tspan x="248.07099" y="193" font-family="Monaco" fill="#B2B2B2">...</tspan>
                    <tspan x="264.631612" y="193" fill="#B2B2B2"></tspan>
                    <tspan x="18" y="222" fill="#B2B2B2">87d2dcca-08c6-11e8-b471-2f78fbf54088 </tspan>
                    <tspan x="183.507438" y="222" fill="#FFFFFF">Hello</tspan>
                    <tspan x="203.891678" y="222" fill="#B2B2B2"> was called</tspan>
                    <tspan x="248.07099" y="222" font-family="Monaco" fill="#B2B2B2">...</tspan>
                </text>
                <g id="Group-9" transform="translate(1.000000, 14.367188)">
                    <path d="M31.6475023,24.3505779 C34.2102356,24.3505779 36.6295544,23.4428098 38.5560355,21.7916801 L45.4825693,28.7391344 C45.6560337,28.912543 45.8853193,29 46.1115621,29 C46.3378203,29 46.5655922,28.912543 46.7390489,28.7406399 C47.0859776,28.3938227 47.0874836,27.8313663 46.7405575,27.4845646 L39.8063008,20.530934 C43.3147822,16.3418289 43.1096616,10.0689798 39.18032,6.1304026 C37.1696592,4.11131724 34.4936693,3 31.6473892,3 C28.801109,3 26.1251191,4.11131724 24.1144583,6.12739164 C19.9618472,10.2875451 19.9618472,17.05952 24.1144583,21.2227617 C26.1251191,23.2403416 28.801109,24.3501533 31.6473892,24.3501533 L31.6475023,24.3505779 Z M25.3726343,7.38223167 C27.0484295,5.7009151 29.277726,4.77658667 31.6475023,4.77658667 C34.0172786,4.77658667 36.2464979,5.7009151 37.9223703,7.38223167 C41.3840895,10.8519086 41.3840895,16.4973569 37.9223703,19.967304 C36.2465751,21.6486206 34.0172786,22.572949 31.6475023,22.572949 C29.277726,22.572949 27.0485067,21.6486206 25.3726343,19.967304 C21.9109151,16.4976271 21.9109151,10.8521788 25.3726343,7.38223167 Z" id="Shape" fill="#FFFFFF" fill-rule="nonzero" opacity="0.200000003"></path>
                    <path d="M0.306640625,44.5 L403.570313,44.5" id="Line-6" stroke="#1A1A1A" stroke-linecap="square"></path>
                    <text id="Hello" font-family="Helvetica" font-size="20.8000011" font-weight="normal" letter-spacing="-1" fill="#FFFFFF">
                        <tspan x="68" y="29">Hello</tspan>
                    </text>
                    <path d="M132,2.6328125 L132,32.6328125" id="Line-11" stroke="#6C65FF" stroke-linecap="square"></path>
                    <text id="16-/-2234" font-family="Helvetica" font-size="11" font-weight="normal" letter-spacing="-0.5288461" fill="#FFFFFF">
                        <tspan x="337" y="10">16</tspan>
                        <tspan x="348.177659" y="10" fill-opacity="0.498552229"> / 2234</tspan>
                    </text>
                </g>
            </g>
        </g>
    </g>
</svg>