<svg xmlns="http://www.w3.org/2000/svg" xmlns:xlink="http://www.w3.org/1999/xlink" viewBox="0 0 420 300"><defs><style>.a,.d,.r,.u{fill:none;}.b{clip-path:url(#a);}.c{fill:#0d0d0d;}.d,.r{stroke:#fff;}.d,.r,.u{stroke-miterlimit:10;}.d{stroke-width:2px;opacity:0.06;}.e{clip-path:url(#c);}.f{fill:#6c65ff;opacity:0.6;}.g{clip-path:url(#d);}.h{clip-path:url(#e);}.i{clip-path:url(#f);}.j{clip-path:url(#g);}.k{clip-path:url(#h);}.l,.n,.o{font-size:10px;}.l,.o{fill:#b2b2b2;}.l,.n,.s{font-family:RenoMono-Regular, Reno Mono;}.m{letter-spacing:-0.05em;}.n,.q,.s,.v,.x{fill:#fff;}.o{font-family:Monaco;}.p{clip-path:url(#i);}.q{opacity:0.2;}.r,.u{stroke-linecap:square;}.r{opacity:0.05;}.s{font-size:20.8px;}.t{letter-spacing:-0.05em;}.u{stroke:#6c65ff;}.v,.x{font-size:11px;font-family:OperatorMono-Book, Operator Mono;}.w{letter-spacing:-0.05em;}.x{opacity:0.5;}</style><clipPath id="a"><rect class="a" x="8" y="20" width="405" height="260" rx="9"/></clipPath><clipPath id="c"><rect class="a" x="247" y="95.37" width="34" height="14" rx="2"/></clipPath><clipPath id="d"><rect class="a" x="247" y="125" width="34" height="14" rx="2"/></clipPath><clipPath id="e"><rect class="a" x="247" y="154" width="34" height="14" rx="2"/></clipPath><clipPath id="f"><rect class="a" x="247" y="183" width="34" height="14" rx="2"/></clipPath><clipPath id="g"><rect class="a" x="247" y="212" width="34" height="14" rx="2"/></clipPath><clipPath id="h"><rect class="a" x="247" y="241" width="34" height="14" rx="2"/></clipPath><clipPath id="i"><path class="a" d="M34.37,41.75a8.85,8.85,0,0,1,12.55,0,8.92,8.92,0,0,1,0,12.58,8.85,8.85,0,0,1-12.55,0A8.92,8.92,0,0,1,34.37,41.75Zm6.28,17a10.58,10.58,0,0,0,6.91-2.56l6.92,7a.93.93,0,0,0,.63.26.89.89,0,0,0,.63-1.52l-6.93-7a10.71,10.71,0,0,0-.63-14.4,10.65,10.65,0,0,0-15.07,0,10.71,10.71,0,0,0,0,15.1,10.58,10.58,0,0,0,7.54,3.13Z"/></clipPath></defs><title>observability</title><g class="b"><rect class="c" x="8" y="20" width="405" height="260" rx="9"/></g><g class="b"><rect class="d" x="8" y="20" width="405" height="260" rx="9"/></g><g class="e"><rect class="f" x="242" y="90.37" width="44" height="24"/></g><g class="g"><rect class="f" x="242" y="120" width="44" height="24"/></g><g class="h"><rect class="f" x="242" y="149" width="44" height="24"/></g><g class="i"><rect class="f" x="242" y="178" width="44" height="24"/></g><g class="j"><rect class="f" x="242" y="207" width="44" height="24"/></g><g class="k"><rect class="f" x="242" y="236" width="44" height="24"/></g><text class="l" transform="translate(26 106)"><tspan class="m">87d2dcca-08c6-11e8-b471-2f78fbf54088</tspan><tspan x="216.72" y="0"> </tspan></text><text class="n" transform="translate(248.71 106)"><tspan class="m">Hell</tspan><tspan x="24.08" y="0">o</tspan></text><text class="l" transform="translate(278.81 106)"><tspan class="m" xml:space="preserve"> was calle</tspan><tspan x="60.2" y="0">d</tspan></text><text class="o" transform="translate(345.02 106)"><tspan class="m">..</tspan><tspan x="11.04" y="0">.</tspan></text><text class="l" transform="translate(26 135)"><tspan class="m">87d2dcca-08c6-11e8-b471-2f78fbf54088</tspan><tspan x="216.72" y="0"> </tspan></text><text class="n" transform="translate(248.71 135)"><tspan class="m">Hell</tspan><tspan x="24.08" y="0">o</tspan></text><text class="l" transform="translate(278.81 135)"><tspan class="m" xml:space="preserve"> was calle</tspan><tspan x="60.2" y="0">d</tspan></text><text class="o" transform="translate(345.02 135)"><tspan class="m">..</tspan><tspan x="11.04" y="0">.</tspan></text><text class="l" transform="translate(26 164)"><tspan class="m">87d2dcca-08c6-11e8-b471-2f78fbf54088</tspan><tspan x="216.72" y="0"> </tspan></text><text class="n" transform="translate(248.71 164)"><tspan class="m">Hell</tspan><tspan x="24.08" y="0">o</tspan></text><text class="l" transform="translate(278.81 164)"><tspan class="m" xml:space="preserve"> was calle</tspan><tspan x="60.2" y="0">d</tspan></text><text class="o" transform="translate(345.02 164)"><tspan class="m">..</tspan><tspan x="11.04" y="0">.</tspan></text><text class="l" transform="translate(26 193)"><tspan class="m">87d2dcca-08c6-11e8-b471-2f78fbf54088</tspan><tspan x="216.72" y="0"> </tspan></text><text class="n" transform="translate(248.71 193)"><tspan class="m">Hell</tspan><tspan x="24.08" y="0">o</tspan></text><text class="l" transform="translate(278.81 193)"><tspan class="m" xml:space="preserve"> was calle</tspan><tspan x="60.2" y="0">d</tspan></text><text class="o" transform="translate(345.02 193)"><tspan class="m">..</tspan><tspan x="11.04" y="0">.</tspan></text><text class="l" transform="translate(26 222)"><tspan class="m">87d2dcca-08c6-11e8-b471-2f78fbf54088</tspan><tspan x="216.72" y="0"> </tspan></text><text class="n" transform="translate(248.71 222)"><tspan class="m">Hell</tspan><tspan x="24.08" y="0">o</tspan></text><text class="l" transform="translate(278.81 222)"><tspan class="m" xml:space="preserve"> was calle</tspan><tspan x="60.2" y="0">d</tspan></text><text class="o" transform="translate(345.02 222)"><tspan class="m">..</tspan><tspan x="11.04" y="0">.</tspan></text><text class="l" transform="translate(26 251)"><tspan class="m">87d2dcca-08c6-11e8-b471-2f78fbf54088</tspan><tspan x="216.72" y="0"> </tspan></text><text class="n" transform="translate(248.71 251)"><tspan class="m">Hell</tspan><tspan x="24.08" y="0">o</tspan></text><text class="l" transform="translate(278.81 251)"><tspan class="m" xml:space="preserve"> was calle</tspan><tspan x="60.2" y="0">d</tspan></text><text class="o" transform="translate(345.02 251)"><tspan class="m">..</tspan><tspan x="11.04" y="0">.</tspan></text><g class="p"><rect class="q" x="25" y="32.37" width="36" height="36"/></g><line class="r" x1="9.31" y1="78.87" x2="412.57" y2="78.87"/><text class="s" transform="translate(77 58.37)"><tspan class="t">Hell</tspan><tspan x="50.09" y="0">o</tspan></text><line class="u" x1="141" y1="37" x2="141" y2="67"/><text class="v" transform="translate(346 45.37)"><tspan class="w">1</tspan><tspan x="5.52" y="0">6</tspan></text><text class="x" transform="translate(357.04 45.37)"><tspan class="w" xml:space="preserve"> / 223</tspan><tspan x="33.13" y="0">4</tspan></text></svg>