<svg xmlns="http://www.w3.org/2000/svg" xmlns:xlink="http://www.w3.org/1999/xlink" viewBox="0 0 400 300"><defs><style>@font-face { font-family: 'Reno Mono'; src: url('/fonts/RenoMono.woff2') format('woff2');}.a,.d,.r,.u{fill:none;}.b{clip-path:url(#a);}.c{fill:#0d0d0d;}.d,.r{stroke:#fff;}.d,.r,.u{stroke-miterlimit:10;}.d{stroke-width:2px;opacity:0.06;}.e{clip-path:url(#c);}.f{fill:#6c65ff;opacity:0.6;}.g{clip-path:url(#d);}.h{clip-path:url(#e);}.i{clip-path:url(#f);}.j{clip-path:url(#g);}.k{clip-path:url(#h);}.l,.n,.o{font-size:10px;}.l,.o{fill:#b2b2b2;}.l,.n,.s{font-family: 'Reno Mono';}.m{letter-spacing:-0.05em;}.n,.q,.s,.v,.w{fill:#fff;}.o{font-family: 'Reno mono';}.p{clip-path:url(#i);}.q{opacity:0.2;}.r,.u{stroke-linecap:square;}.r{opacity:0.05;}.s{font-size:20.8px;}.t{letter-spacing:-0.05em;}.u{stroke:#6c65ff;}.v,.w{font-size:11px;font-family: 'Reno Mono';}.w{opacity:0.5;}</style><clipPath id="a"><rect class="a" y="20.5" width="400" height="260" rx="9"/></clipPath><clipPath id="c"><rect class="a" x="239" y="95.87" width="34" height="14" rx="2"/></clipPath><clipPath id="d"><rect class="a" x="239" y="125.5" width="34" height="14" rx="2"/></clipPath><clipPath id="e"><rect class="a" x="239" y="154.5" width="34" height="14" rx="2"/></clipPath><clipPath id="f"><rect class="a" x="239" y="183.5" width="34" height="14" rx="2"/></clipPath><clipPath id="g"><rect class="a" x="239" y="212.5" width="34" height="14" rx="2"/></clipPath><clipPath id="h"><rect class="a" x="239" y="241.5" width="34" height="14" rx="2"/></clipPath><clipPath id="i"><path class="a" d="M26.37,42.25a8.85,8.85,0,0,1,12.55,0,8.92,8.92,0,0,1,0,12.58,8.85,8.85,0,0,1-12.55,0A8.92,8.92,0,0,1,26.37,42.25Zm6.28,17a10.58,10.58,0,0,0,6.91-2.56l6.92,7a.93.93,0,0,0,.63.26.89.89,0,0,0,.63-1.52l-6.93-7A10.71,10.71,0,0,0,40.18,41a10.65,10.65,0,0,0-15.07,0,10.71,10.71,0,0,0,0,15.1,10.58,10.58,0,0,0,7.54,3.13Z"/></clipPath></defs><title>fontpage-svg</title><g class="b"><rect class="c" y="20.5" width="400" height="260" rx="9"/></g><g class="b"><rect class="d" y="20.5" width="400" height="260" rx="9"/></g><g class="e"><rect class="f" x="234" y="90.87" width="44" height="24"/></g><g class="g"><rect class="f" x="234" y="120.5" width="44" height="24"/></g><g class="h"><rect class="f" x="234" y="149.5" width="44" height="24"/></g><g class="i"><rect class="f" x="234" y="178.5" width="44" height="24"/></g><g class="j"><rect class="f" x="234" y="207.5" width="44" height="24"/></g><g class="k"><rect class="f" x="234" y="236.5" width="44" height="24"/></g><text class="l" transform="translate(18 106.5)"><tspan class="m">87d2dcca-08c6-11e8-b471-2f78fbf54088</tspan><tspan x="216.72" y="0"> </tspan></text><text class="n" transform="translate(240.71 106.5)"><tspan class="m">Hell</tspan><tspan x="24.08" y="0">o</tspan></text><text class="l" transform="translate(270.81 106.5)"><tspan class="m" xml:space="preserve"> was calle</tspan><tspan x="60.2" y="0">d</tspan></text><text class="o" transform="translate(337.02 106.5)"><tspan class="m">..</tspan><tspan x="11.04" y="0">.</tspan></text><text class="l" transform="translate(18 135.5)"><tspan class="m">87d2dcca-08c6-11e8-b471-2f78fbf54088</tspan><tspan x="216.72" y="0"> </tspan></text><text class="n" transform="translate(240.71 135.5)"><tspan class="m">Hell</tspan><tspan x="24.08" y="0">o</tspan></text><text class="l" transform="translate(270.81 135.5)"><tspan class="m" xml:space="preserve"> was calle</tspan><tspan x="60.2" y="0">d</tspan></text><text class="o" transform="translate(337.02 135.5)"><tspan class="m">..</tspan><tspan x="11.04" y="0">.</tspan></text><text class="l" transform="translate(18 164.5)"><tspan class="m">87d2dcca-08c6-11e8-b471-2f78fbf54088</tspan><tspan x="216.72" y="0"> </tspan></text><text class="n" transform="translate(240.71 164.5)"><tspan class="m">Hell</tspan><tspan x="24.08" y="0">o</tspan></text><text class="l" transform="translate(270.81 164.5)"><tspan class="m" xml:space="preserve"> was calle</tspan><tspan x="60.2" y="0">d</tspan></text><text class="o" transform="translate(337.02 164.5)"><tspan class="m">..</tspan><tspan x="11.04" y="0">.</tspan></text><text class="l" transform="translate(18 193.5)"><tspan class="m">87d2dcca-08c6-11e8-b471-2f78fbf54088</tspan><tspan x="216.72" y="0"> </tspan></text><text class="n" transform="translate(240.71 193.5)"><tspan class="m">Hell</tspan><tspan x="24.08" y="0">o</tspan></text><text class="l" transform="translate(270.81 193.5)"><tspan class="m" xml:space="preserve"> was calle</tspan><tspan x="60.2" y="0">d</tspan></text><text class="o" transform="translate(337.02 193.5)"><tspan class="m">..</tspan><tspan x="11.04" y="0">.</tspan></text><text class="l" transform="translate(18 222.5)"><tspan class="m">87d2dcca-08c6-11e8-b471-2f78fbf54088</tspan><tspan x="216.72" y="0"> </tspan></text><text class="n" transform="translate(240.71 222.5)"><tspan class="m">Hell</tspan><tspan x="24.08" y="0">o</tspan></text><text class="l" transform="translate(270.81 222.5)"><tspan class="m" xml:space="preserve"> was calle</tspan><tspan x="60.2" y="0">d</tspan></text><text class="o" transform="translate(337.02 222.5)"><tspan class="m">..</tspan><tspan x="11.04" y="0">.</tspan></text><text class="l" transform="translate(18 251.5)"><tspan class="m">87d2dcca-08c6-11e8-b471-2f78fbf54088</tspan><tspan x="216.72" y="0"> </tspan></text><text class="n" transform="translate(240.71 251.5)"><tspan class="m">Hell</tspan><tspan x="24.08" y="0">o</tspan></text><text class="l" transform="translate(270.81 251.5)"><tspan class="m" xml:space="preserve"> was calle</tspan><tspan x="60.2" y="0">d</tspan></text><text class="o" transform="translate(337.02 251.5)"><tspan class="m">..</tspan><tspan x="11.04" y="0">.</tspan></text><g class="p"><rect class="q" x="17" y="32.87" width="36" height="36"/></g><line class="r" x1="1.31" y1="79.37" x2="398.5" y2="79.37"/><text class="s" transform="translate(69 58.87)"><tspan class="t">Hell</tspan><tspan x="50.09" y="0">o</tspan></text><line class="u" x1="133" y1="37.5" x2="133" y2="67.5"/><text class="v" transform="translate(328 45.87)">16</text><text class="w" transform="translate(340.1 45.87)"><tspan xml:space="preserve"> / 2234</tspan></text></svg>