<?xml version="1.0" encoding="UTF-8"?>
<svg width="134px" height="61px" viewBox="0 0 134 61" version="1.1" xmlns="http://www.w3.org/2000/svg" xmlns:xlink="http://www.w3.org/1999/xlink">
    <!-- Generator: Sketch 54.1 (76490) - https://sketchapp.com -->
    <title>testimonial-pipedrive</title>
    <desc>Created with Sketch.</desc>
    <g id="testimonial-pipedrive" stroke="none" stroke-width="1" fill="none" fill-rule="evenodd">
        <g id="Group" transform="translate(0.000000, 15.000000)" fill="#FFFFFF" fill-rule="nonzero">
            <path d="M6.66,15.2682 C6.66,11.6578 8.6162,10.3722 10.4462,10.3722 C12.692,10.3722 14.2008,12.3254 14.2008,15.2346 C14.2008,18.5526 12.2814,20.0348 10.383,20.0348 C7.8232,20.0348 6.66,17.5612 6.66,15.2682 Z M11.348,6.1246 C8.6778,6.1246 7.132,7.3356 6.3864,8.1714 C6.2968,7.4508 5.8266,6.5158 3.9898,6.5158 L-5.86197757e-14,6.5158 L-5.86197757e-14,10.73 L1.6352,10.73 C1.9124,10.73 2.0018,10.8186 2.0018,11.0984 L2.0018,30.3418 L6.7566,30.3418 L6.7566,23.1194 C6.7566,22.9246 6.753,22.7422 6.7478,22.5794 C7.4898,23.2662 8.9092,24.2154 11.1252,24.2154 C15.7728,24.2154 19.024,20.497 19.024,15.1708 C19.024,9.7598 15.9378,6.1246 11.348,6.1246 L11.348,6.1246 Z" id="Shape"></path>
            <path d="M25.4092,19.275 L25.4092,9.0778 C25.4092,7.355 24.5864,6.5158 22.9004,6.5158 L18.651,6.5158 L18.651,10.7298 L20.2878,10.7298 C20.5634,10.7298 20.6528,10.8202 20.6528,11.0982 L20.6528,21.26 C20.6528,23.0094 21.4494,23.822 23.1564,23.822 L27.411,23.822 L27.411,19.6452 L25.7742,19.6452 C25.511,19.6452 25.4092,19.5388 25.4092,19.2752" id="Path"></path>
            <path d="M36.8612,20.0348 C34.3084,20.0348 33.1398,17.5612 33.1398,15.2682 C33.1398,11.6578 35.0962,10.3722 36.9278,10.3722 C39.1736,10.3722 40.6824,12.3254 40.6824,15.2346 C40.6824,18.5526 38.7648,20.0348 36.8612,20.0348 L36.8612,20.0348 Z M37.8312,6.1246 C35.1576,6.1246 33.6152,7.3356 32.8662,8.1714 C32.7784,7.4508 32.31,6.5158 30.473,6.5158 L26.4816,6.5158 L26.4816,10.73 L28.1168,10.73 C28.3922,10.73 28.4816,10.8186 28.4816,11.0984 L28.4816,30.3418 L33.24,30.3418 L33.24,23.1194 C33.24,22.9246 33.2348,22.7422 33.2296,22.5794 C33.9682,23.2662 35.3928,24.2154 37.607,24.2154 C42.2564,24.2154 45.504,20.497 45.504,15.1708 C45.504,9.7598 42.4196,6.1246 37.8316,6.1246 L37.8312,6.1246 Z M50.8652,12.673 C51.381,10.975 52.6704,10.0116 54.4532,10.0116 C55.8848,10.0116 56.9866,11.1112 57.1812,12.673 L50.8652,12.673 Z M54.4532,6.125 C49.33,6.125 45.7472,9.8452 45.7472,15.1714 C45.7472,20.4108 49.6124,24.2158 54.9392,24.2158 C59.1288,24.2158 61.6886,21.7122 61.7972,21.6058 L61.9886,21.4148 L59.9166,17.946 L59.6094,18.24 C59.5884,18.256 57.7094,20.0034 55.2268,20.0034 C52.8442,20.0034 51.1002,18.5356 50.688,16.2338 L61.964,16.2338 L61.9904,15.9186 C61.9992,15.876 62.092,14.8546 62.092,14.355 C62.092,9.4326 59.0218,6.125 54.453,6.125 L54.4532,6.125 Z M70.907,20.0348 C68.6454,20.0348 67.1822,18.1242 67.1822,15.1708 C67.1822,12.2988 68.7052,10.3724 70.972,10.3724 C73.5422,10.3724 74.695,12.7644 74.695,15.139 C74.695,18.751 72.737,20.035 70.907,20.035 L70.907,20.0348 Z M79.3864,19.2752 L79.3864,2.562 C79.3864,0.8392 78.553,-3.90798505e-14 76.8442,-3.90798505e-14 L72.5948,-3.90798505e-14 L72.5948,4.2158 L74.2318,4.2158 C74.5072,4.2158 74.5966,4.3044 74.5966,4.584 L74.5966,7.6048 C73.895,6.9656 72.5246,6.1246 70.1648,6.1246 C65.5506,6.1246 62.331,9.8446 62.331,15.1708 C62.331,20.582 65.4154,24.2154 70.0052,24.2154 C72.6282,24.2154 74.1406,22.9866 74.8792,22.1294 C74.9756,22.8768 75.4546,23.8222 77.2336,23.8222 L81.3532,23.8222 L81.3532,19.6452 L79.7512,19.6452 C79.4882,19.6452 79.3864,19.5392 79.3864,19.2752 L79.3864,19.2752 Z M91.9344,6.2872 C89.9554,6.2872 88.1342,7.44 87.0534,9.2762 L87.0534,8.8812 C87.0534,7.3124 86.1954,6.5156 84.5112,6.5156 L80.4232,6.5156 L80.4232,10.7298 L82.0584,10.7298 C82.3338,10.7298 82.425,10.8184 82.425,11.0982 L82.425,23.8222 L87.18,23.8222 L87.18,16.897 C87.18,15.985 87.2958,15.107 87.5202,14.2942 C88.2362,11.9056 90.138,11.0556 91.6766,11.0556 C92.2224,11.0556 92.6188,11.114 92.6258,11.1158 L93.0224,11.176 L93.0224,6.406 L92.7328,6.3564 C92.7188,6.3528 92.3154,6.2872 91.9346,6.2872 L91.9344,6.2872 Z M99.7902,19.275 L99.7902,9.0778 C99.7902,7.355 98.971,6.5158 97.2848,6.5158 L93.4408,6.5158 L93.4408,10.7298 L94.6688,10.7298 C94.9462,10.7298 95.0338,10.8202 95.0338,11.0982 L95.0338,21.26 C95.0338,23.0094 95.8322,23.822 97.5428,23.822 L101.794,23.822 L101.794,19.6452 L100.1552,19.6452 C99.892,19.6452 99.7902,19.5388 99.7902,19.2752 L99.7902,19.275 Z" id="Shape"></path>
            <path d="M117.7416,6.516 L115.2046,6.516 C113.722,6.516 112.9272,7.0348 112.457,8.308 L109.357,17.046 C109.2498,17.37 109.1498,17.7332 109.0638,18.082 C108.9744,17.7332 108.8674,17.3648 108.7498,17.0408 L105.6496,8.3062 C105.1742,7.019 104.4056,6.5162 102.9038,6.5162 L100.2054,6.5162 L100.2054,10.7302 L100.9054,10.7302 C101.2774,10.7302 101.3968,10.8576 101.4844,11.0914 L106.283,23.8224 L111.6306,23.8224 L116.4292,11.0914 C116.5168,10.8576 116.6398,10.7302 117.0116,10.7302 L117.7416,10.7302 L117.7416,6.5162 L117.7416,6.516 Z M122.342,12.673 C122.8632,10.975 124.1476,10.0116 125.9284,10.0116 C127.3636,10.0116 128.4636,11.1112 128.6584,12.673 L122.342,12.673 L122.342,12.673 Z M125.9284,6.125 C120.807,6.125 117.226,9.8452 117.226,15.1714 C117.226,20.4108 121.0876,24.2158 126.4144,24.2158 C130.6058,24.2158 133.1674,21.7122 133.2744,21.6058 L133.4674,21.4148 L131.4006,17.946 L131.0846,18.24 C131.069,18.256 129.1794,20.0034 126.7056,20.0034 C124.3212,20.0034 122.5772,18.5356 122.165,16.2338 L133.4446,16.2338 L133.4708,15.9186 C133.4762,15.876 133.5728,14.8546 133.5728,14.355 C133.5728,9.4326 130.5006,6.125 125.9284,6.125 Z M25.084,0.001 L20.845,0.001 L20.845,4.5074 L25.084,4.5074 L25.084,0.001 Z M99.4672,0.001 L95.2266,0.001 L95.2266,4.5074 L99.4672,4.5074 L99.4672,0.001 Z" id="Shape"></path>
        </g>
    </g>
</svg>