<svg width="24" height="24" viewBox="0 0 24 24" fill="none" xmlns="http://www.w3.org/2000/svg">
<g clip-path="url(#clip0)">
<path d="M2.50001 14.5C2.49806 16.0124 2.85722 17.5033 3.5476 18.8489C4.23798 20.1945 5.23964 21.3558 6.46928 22.2363C7.69891 23.1167 9.12099 23.6909 10.6172 23.911C12.1135 24.1312 13.6407 23.9909 15.0718 23.5019C16.5029 23.0129 17.7966 22.1892 18.8453 21.0995C19.8939 20.0098 20.6673 18.6854 21.101 17.2366C21.5347 15.7877 21.6162 14.2563 21.3388 12.7696C21.0614 11.2829 20.433 9.88392 19.506 8.689C19.4685 8.64095 19.45 8.58083 19.4538 8.52001C19.4577 8.45919 19.4837 8.40191 19.527 8.359L21.178 6.708C21.2735 6.61575 21.3497 6.50541 21.4021 6.3834C21.4545 6.2614 21.4821 6.13018 21.4833 5.9974C21.4844 5.86462 21.4591 5.73294 21.4088 5.61005C21.3585 5.48715 21.2843 5.3755 21.1904 5.28161C21.0965 5.18771 20.9849 5.11346 20.862 5.06318C20.7391 5.0129 20.6074 4.9876 20.4746 4.98875C20.3418 4.9899 20.2106 5.01749 20.0886 5.0699C19.9666 5.12231 19.8563 5.19849 19.764 5.294L18.108 6.95C18.0652 6.99301 18.0081 7.01888 17.9475 7.02274C17.8869 7.02661 17.827 7.00821 17.779 6.971C16.4531 5.94765 14.879 5.29505 13.218 5.08C13.1576 5.07243 13.1022 5.04302 13.062 4.99733C13.0218 4.95164 12.9998 4.89283 13 4.832V2.251C12.9999 2.21809 13.0062 2.18547 13.0188 2.15502C13.0313 2.12457 13.0496 2.0969 13.0729 2.07358C13.0961 2.05026 13.1237 2.03175 13.1541 2.01913C13.1845 2.0065 13.2171 2 13.25 2H15C15.2652 2 15.5196 1.89464 15.7071 1.70711C15.8947 1.51957 16 1.26522 16 1C16 0.734784 15.8947 0.48043 15.7071 0.292893C15.5196 0.105357 15.2652 0 15 0L9.00001 0C8.73479 0 8.48044 0.105357 8.2929 0.292893C8.10536 0.48043 8.00001 0.734784 8.00001 1C8.00001 1.26522 8.10536 1.51957 8.2929 1.70711C8.48044 1.89464 8.73479 2 9.00001 2H10.75C10.8163 2 10.8799 2.02634 10.9268 2.07322C10.9737 2.12011 11 2.1837 11 2.25V4.832C11.0002 4.89283 10.9782 4.95164 10.938 4.99733C10.8979 5.04302 10.8424 5.07243 10.782 5.08C8.49386 5.3786 6.39225 6.49871 4.8686 8.23171C3.34496 9.96472 2.50317 12.1925 2.50001 14.5ZM4.50001 14.5C4.50001 13.0166 4.93988 11.5666 5.76399 10.3332C6.5881 9.09985 7.75944 8.13856 9.12988 7.5709C10.5003 7.00325 12.0083 6.85472 13.4632 7.14411C14.918 7.4335 16.2544 8.14781 17.3033 9.1967C18.3522 10.2456 19.0665 11.582 19.3559 13.0368C19.6453 14.4917 19.4968 15.9997 18.9291 17.3701C18.3614 18.7406 17.4002 19.9119 16.1668 20.736C14.9334 21.5601 13.4834 22 12 22C10.0115 21.9979 8.10511 21.207 6.69905 19.801C5.29298 18.3949 4.50213 16.4885 4.50001 14.5Z" fill="white"/>
<path d="M14 11H10.5V14C10.5 14 14.5 13.5 14 16.5C13.5 19.5 10 18 10 18" stroke="white" stroke-width="2" stroke-linecap="round" stroke-linejoin="round"/>
</g>
<defs>
<clipPath id="clip0">
<path d="M0 0H24V24H0V0Z" fill="white"/>
</clipPath>
</defs>
</svg>
